<svg width="781" height="301" viewBox="0 0 781 301" fill="none" xmlns="http://www.w3.org/2000/svg">
<path d="M131.939 200.52V68.1899H99.4963V101.28H66.5042V134.36H99.4963V200.52H66.5042V233.6H163.843V200.52H131.939Z" fill="#50DA4C"/>
<path d="M228.621 200.58V101.33H196.178V134.42H163.735V167.5H196.178V233.66H228.621H261.064V200.58H228.621Z" fill="#50DA4C"/>
<path d="M66.7199 300.93L33.5218 267.63V35.66H261.025L294.223 68.96V1H0V301L66.7199 300.93Z" fill="#50DA4C"/>
<path d="M349.56 79.12C342.627 79.12 337.133 77.2 333.08 73.36C329.027 69.4667 327 63.92 327 56.72V43.28C327 36.08 329.027 30.56 333.08 26.72C337.133 22.8267 342.627 20.88 349.56 20.88C356.44 20.88 361.747 22.7733 365.48 26.56C369.267 30.2933 371.16 35.44 371.16 42V42.48H360.76V41.68C360.76 38.3733 359.827 35.6533 357.96 33.52C356.147 31.3867 353.347 30.32 349.56 30.32C345.827 30.32 342.893 31.4667 340.76 33.76C338.627 36.0533 337.56 39.1733 337.56 43.12V56.88C337.56 60.7733 338.627 63.8933 340.76 66.24C342.893 68.5333 345.827 69.68 349.56 69.68C353.347 69.68 356.147 68.6133 357.96 66.48C359.827 64.2933 360.76 61.5733 360.76 58.32V56.88H371.16V58C371.16 64.56 369.267 69.7333 365.48 73.52C361.747 77.2533 356.44 79.12 349.56 79.12ZM379.164 78V68.72H386.524V31.28H379.164V22H407.964C411.378 22 414.338 22.5867 416.844 23.76C419.404 24.88 421.378 26.5067 422.764 28.64C424.204 30.72 424.924 33.2267 424.924 36.16V36.96C424.924 39.52 424.444 41.6267 423.484 43.28C422.524 44.88 421.378 46.1333 420.044 47.04C418.764 47.8933 417.538 48.5067 416.364 48.88V50.32C417.538 50.64 418.818 51.2533 420.204 52.16C421.591 53.0133 422.764 54.2667 423.724 55.92C424.738 57.5733 425.244 59.7333 425.244 62.4V63.2C425.244 66.2933 424.524 68.96 423.084 71.2C421.644 73.3867 419.644 75.0667 417.084 76.24C414.578 77.4133 411.644 78 408.284 78H379.164ZM397.084 68.4H407.004C409.298 68.4 411.138 67.84 412.524 66.72C413.964 65.6 414.684 64 414.684 61.92V61.12C414.684 59.04 413.991 57.44 412.604 56.32C411.218 55.2 409.351 54.64 407.004 54.64H397.084V68.4ZM397.084 45.04H406.844C409.031 45.04 410.818 44.48 412.204 43.36C413.644 42.24 414.364 40.6933 414.364 38.72V37.92C414.364 35.8933 413.671 34.3467 412.284 33.28C410.898 32.16 409.084 31.6 406.844 31.6H397.084V45.04ZM434.889 78V22H445.449V78H434.889ZM469.943 78V31.6H453.623V22H496.823V31.6H480.503V78H469.943Z" fill="#50DA4C"/>
<path d="M328.28 234V178H363.48V187.6H338.84V201.12H361.56V210.72H338.84V234H328.28ZM374.014 234V178H410.014V187.6H384.574V200.96H407.774V210.56H384.574V224.4H410.494V234H374.014ZM440.751 235.12C436.431 235.12 432.618 234.347 429.311 232.8C426.005 231.253 423.418 229.04 421.551 226.16C419.685 223.28 418.751 219.813 418.751 215.76V213.52H429.151V215.76C429.151 219.12 430.191 221.653 432.271 223.36C434.351 225.013 437.178 225.84 440.751 225.84C444.378 225.84 447.071 225.12 448.831 223.68C450.645 222.24 451.551 220.4 451.551 218.16C451.551 216.613 451.098 215.36 450.191 214.4C449.338 213.44 448.058 212.667 446.351 212.08C444.698 211.44 442.671 210.853 440.271 210.32L438.431 209.92C434.591 209.067 431.285 208 428.511 206.72C425.791 205.387 423.685 203.653 422.191 201.52C420.751 199.387 420.031 196.613 420.031 193.2C420.031 189.787 420.831 186.88 422.431 184.48C424.085 182.027 426.378 180.16 429.311 178.88C432.298 177.547 435.791 176.88 439.791 176.88C443.791 176.88 447.338 177.573 450.431 178.96C453.578 180.293 456.031 182.32 457.791 185.04C459.605 187.707 460.511 191.067 460.511 195.12V197.52H450.111V195.12C450.111 192.987 449.685 191.28 448.831 190C448.031 188.667 446.858 187.707 445.311 187.12C443.765 186.48 441.925 186.16 439.791 186.16C436.591 186.16 434.218 186.773 432.671 188C431.178 189.173 430.431 190.8 430.431 192.88C430.431 194.267 430.778 195.44 431.471 196.4C432.218 197.36 433.311 198.16 434.751 198.8C436.191 199.44 438.031 200 440.271 200.48L442.111 200.88C446.111 201.733 449.578 202.827 452.511 204.16C455.498 205.493 457.818 207.253 459.471 209.44C461.125 211.627 461.951 214.427 461.951 217.84C461.951 221.253 461.071 224.267 459.311 226.88C457.605 229.44 455.151 231.467 451.951 232.96C448.805 234.4 445.071 235.12 440.751 235.12ZM483.99 234V187.6H467.67V178H510.87V187.6H494.55V234H483.99ZM522.101 202.56V197.12H525.221C527.675 197.12 528.901 195.893 528.901 193.44V190.88H527.541C525.408 190.88 523.621 190.24 522.181 188.96C520.795 187.68 520.101 186.053 520.101 184.08C520.101 181.947 520.795 180.213 522.181 178.88C523.621 177.547 525.408 176.88 527.541 176.88C529.728 176.88 531.515 177.573 532.901 178.96C534.288 180.293 534.981 182.107 534.981 184.4V193.6C534.981 199.573 531.995 202.56 526.021 202.56H522.101ZM545.657 234V227.28C545.657 223.387 546.297 220.16 547.577 217.6C548.857 214.987 550.697 212.853 553.097 211.2C555.55 209.493 558.537 208.107 562.057 207.04L567.417 205.36C569.39 204.72 571.044 203.947 572.377 203.04C573.71 202.08 574.724 200.933 575.417 199.6C576.164 198.267 576.537 196.747 576.537 195.04V194.72C576.537 192.053 575.63 189.947 573.817 188.4C572.004 186.8 569.524 186 566.377 186C563.284 186 560.777 186.853 558.857 188.56C556.99 190.213 556.057 192.613 556.057 195.76V197.2H545.817V195.92C545.817 191.867 546.724 188.427 548.537 185.6C550.35 182.773 552.804 180.613 555.897 179.12C559.044 177.627 562.537 176.88 566.377 176.88C570.217 176.88 573.684 177.627 576.777 179.12C579.87 180.56 582.297 182.613 584.057 185.28C585.87 187.893 586.777 190.987 586.777 194.56V195.36C586.777 198.933 586.03 201.973 584.537 204.48C583.097 206.933 581.124 208.96 578.617 210.56C576.11 212.107 573.257 213.387 570.057 214.4L564.937 216C562.644 216.693 560.857 217.467 559.577 218.32C558.297 219.12 557.39 220.027 556.857 221.04C556.377 222 556.137 223.173 556.137 224.56V224.88H586.297V234H545.657ZM621.069 234V222.64H593.549V210.8L612.909 178H631.309V213.52H640.589V222.64H631.309V234H621.069ZM603.309 213.52H621.069V184.56H619.629L603.309 212.24V213.52Z" fill="#50DA4C"/>
<path d="M328.28 156V100H338.84V123.12H359.64V100H370.2V156H359.64V132.72H338.84V156H328.28ZM377.94 156L392.66 100H411.06L425.78 156H414.9L411.86 143.68H391.86L388.82 156H377.94ZM394.34 133.92H409.38L402.58 106.64H401.14L394.34 133.92ZM454.294 157.12C447.361 157.12 441.868 155.2 437.814 151.36C433.761 147.467 431.734 141.92 431.734 134.72V121.28C431.734 114.08 433.761 108.56 437.814 104.72C441.868 100.827 447.361 98.88 454.294 98.88C461.174 98.88 466.481 100.773 470.214 104.56C474.001 108.293 475.894 113.44 475.894 120V120.48H465.494V119.68C465.494 116.373 464.561 113.653 462.694 111.52C460.881 109.387 458.081 108.32 454.294 108.32C450.561 108.32 447.628 109.467 445.494 111.76C443.361 114.053 442.294 117.173 442.294 121.12V134.88C442.294 138.773 443.361 141.893 445.494 144.24C447.628 146.533 450.561 147.68 454.294 147.68C458.081 147.68 460.881 146.613 462.694 144.48C464.561 142.293 465.494 139.573 465.494 136.32V134.88H475.894V136C475.894 142.56 474.001 147.733 470.214 151.52C466.481 155.253 461.174 157.12 454.294 157.12ZM485.499 156V100H496.059V122.24H497.499L515.659 100H529.179L505.819 127.6L529.979 156H516.059L497.499 133.28H496.059V156H485.499ZM549.537 156V109.6H533.217V100H576.417V109.6H560.097V156H549.537ZM604.103 157.12C597.063 157.12 591.463 155.2 587.303 151.36C583.143 147.467 581.063 141.92 581.063 134.72V121.28C581.063 114.08 583.143 108.56 587.303 104.72C591.463 100.827 597.063 98.88 604.103 98.88C611.143 98.88 616.743 100.827 620.903 104.72C625.063 108.56 627.143 114.08 627.143 121.28V134.72C627.143 141.92 625.063 147.467 620.903 151.36C616.743 155.2 611.143 157.12 604.103 157.12ZM604.103 147.68C608.049 147.68 611.116 146.533 613.303 144.24C615.489 141.947 616.583 138.88 616.583 135.04V120.96C616.583 117.12 615.489 114.053 613.303 111.76C611.116 109.467 608.049 108.32 604.103 108.32C600.209 108.32 597.143 109.467 594.903 111.76C592.716 114.053 591.623 117.12 591.623 120.96V135.04C591.623 138.88 592.716 141.947 594.903 144.24C597.143 146.533 600.209 147.68 604.103 147.68ZM634.008 156V146.72H641.368V109.28H634.008V100H662.808C666.221 100 669.181 100.587 671.688 101.76C674.248 102.88 676.221 104.507 677.608 106.64C679.048 108.72 679.768 111.227 679.768 114.16V114.96C679.768 117.52 679.288 119.627 678.328 121.28C677.368 122.88 676.221 124.133 674.888 125.04C673.608 125.893 672.381 126.507 671.208 126.88V128.32C672.381 128.64 673.661 129.253 675.048 130.16C676.435 131.013 677.608 132.267 678.568 133.92C679.581 135.573 680.088 137.733 680.088 140.4V141.2C680.088 144.293 679.368 146.96 677.928 149.2C676.488 151.387 674.488 153.067 671.928 154.24C669.421 155.413 666.488 156 663.128 156H634.008ZM651.928 146.4H661.848C664.141 146.4 665.981 145.84 667.368 144.72C668.808 143.6 669.528 142 669.528 139.92V139.12C669.528 137.04 668.835 135.44 667.448 134.32C666.061 133.2 664.195 132.64 661.848 132.64H651.928V146.4ZM651.928 123.04H661.688C663.875 123.04 665.661 122.48 667.048 121.36C668.488 120.24 669.208 118.693 669.208 116.72V115.92C669.208 113.893 668.515 112.347 667.128 111.28C665.741 110.16 663.928 109.6 661.688 109.6H651.928V123.04ZM689.733 156V100H725.733V109.6H700.293V122.96H723.493V132.56H700.293V146.4H726.213V156H689.733ZM735.03 156V100H759.35C762.87 100 765.937 100.613 768.55 101.84C771.163 103.067 773.19 104.8 774.63 107.04C776.07 109.28 776.79 111.92 776.79 114.96V115.92C776.79 119.28 775.99 122 774.39 124.08C772.79 126.16 770.817 127.68 768.47 128.64V130.08C770.603 130.187 772.257 130.933 773.43 132.32C774.603 133.653 775.19 135.44 775.19 137.68V156H764.63V139.2C764.63 137.92 764.283 136.88 763.59 136.08C762.95 135.28 761.857 134.88 760.31 134.88H745.59V156H735.03ZM745.59 125.28H758.23C760.737 125.28 762.683 124.613 764.07 123.28C765.51 121.893 766.23 120.08 766.23 117.84V117.04C766.23 114.8 765.537 113.013 764.15 111.68C762.763 110.293 760.79 109.6 758.23 109.6H745.59V125.28Z" fill="#50DA4C"/>
</svg>
