<svg width="1533" height="1492" viewBox="0 0 1533 1492" fill="none" xmlns="http://www.w3.org/2000/svg">
<path d="M249.011 843.848C185.94 843.848 127.541 833.725 73.8134 813.48C20.0862 792.457 -26.6332 763.257 -66.3447 725.881C-105.277 687.727 -135.645 642.955 -157.447 591.563C-179.25 540.172 -190.151 483.719 -190.151 422.206C-190.151 360.692 -179.25 304.239 -157.447 252.848C-135.645 201.457 -104.888 157.073 -65.1767 119.698C-25.4652 81.5435 21.2541 52.3439 74.9814 32.0989C128.709 11.0752 187.108 0.56334 250.179 0.56334C318.701 0.56334 380.993 12.6325 437.057 36.7709C493.898 60.1305 541.396 94.7807 579.551 140.721L470.928 243.504C442.118 211.579 409.804 187.83 373.985 172.257C338.167 155.905 299.624 147.729 258.355 147.729C217.865 147.729 180.879 154.348 147.396 167.585C113.914 180.822 84.7146 199.899 59.7976 224.816C34.8806 248.955 15.4142 277.765 1.39842 311.247C-11.8387 344.729 -18.4573 381.715 -18.4573 422.206C-18.4573 462.696 -11.8387 499.682 1.39842 533.164C15.4142 566.646 34.8806 595.846 59.7976 620.763C84.7146 644.901 113.914 663.589 147.396 676.826C180.879 690.063 217.865 696.682 258.355 696.682C299.624 696.682 338.167 688.895 373.985 673.322C409.804 656.97 442.118 632.443 470.928 599.739L579.551 702.522C541.396 748.462 493.898 783.502 437.057 807.64C380.993 831.779 318.311 843.848 249.011 843.848ZM1089.75 843.848C1025.9 843.848 966.722 833.336 912.216 812.312C858.489 791.289 811.38 761.7 770.89 723.545C731.179 685.391 700.422 641.008 678.619 590.395C656.817 539.004 645.916 482.941 645.916 422.206C645.916 361.47 656.817 305.796 678.619 255.184C700.422 203.793 731.179 159.02 770.89 120.866C811.38 82.7116 858.489 53.1226 912.216 32.0989C966.722 11.0752 1025.9 0.56334 1089.75 0.56334C1153.6 0.56334 1212.39 11.0752 1266.12 32.0989C1319.84 53.1226 1366.56 82.7116 1406.27 120.866C1446.76 158.241 1477.91 202.625 1499.71 254.016C1521.51 305.407 1532.42 361.47 1532.42 422.206C1532.42 482.941 1521.51 539.004 1499.71 590.395C1477.91 641.787 1446.76 686.559 1406.27 724.713C1366.56 762.089 1319.84 791.289 1266.12 812.312C1212.39 833.336 1153.6 843.848 1089.75 843.848ZM1089.75 696.682C1128.68 696.682 1164.5 690.063 1197.2 676.826C1229.91 663.589 1258.33 644.901 1282.47 620.763C1307.38 595.846 1326.46 566.646 1339.7 533.164C1353.71 499.682 1360.72 462.696 1360.72 422.206C1360.72 381.715 1353.71 344.729 1339.7 311.247C1326.46 277.765 1307.38 248.955 1282.47 224.816C1258.33 199.899 1229.91 180.822 1197.2 167.585C1164.5 154.348 1128.68 147.729 1089.75 147.729C1050.82 147.729 1014.61 154.348 981.127 167.585C948.424 180.822 919.613 199.899 894.696 224.816C870.558 249.733 851.481 278.933 837.465 312.415C824.228 345.119 817.609 381.715 817.609 422.206C817.609 461.917 824.228 498.514 837.465 531.996C851.481 565.478 870.558 594.678 894.696 619.595C919.613 644.512 948.424 663.589 981.127 676.826C1014.61 690.063 1050.82 696.682 1089.75 696.682ZM221.746 1817.85C157.117 1817.85 95.2143 1808.89 36.0365 1790.98C-23.1414 1773.08 -70.6394 1750.1 -106.458 1722.07L-46.8904 1591.26C-13.4082 1616.95 27.4712 1637.98 75.7479 1654.33C124.025 1670.68 173.08 1678.86 222.914 1678.86C262.625 1678.86 294.94 1674.58 319.857 1666.01C344.774 1657.44 362.683 1646.15 373.584 1632.14C385.264 1617.34 391.104 1600.6 391.104 1581.92C391.104 1558.56 382.149 1539.87 364.24 1525.85C347.11 1511.84 324.529 1500.55 296.497 1491.98C268.465 1483.42 237.319 1475.24 203.058 1467.45C168.797 1459.67 134.536 1450.71 100.276 1440.59C66.0147 1429.69 34.4791 1415.67 5.66887 1398.54C-22.3627 1381.41 -45.3331 1358.83 -63.2422 1330.8C-80.3726 1302.77 -88.9378 1266.95 -88.9378 1223.34C-88.9378 1178.18 -76.8687 1136.91 -52.7303 1099.54C-27.8133 1061.38 9.56216 1031.02 59.3961 1008.43C109.23 985.854 172.301 974.563 248.61 974.563C298.444 974.563 347.888 980.793 396.944 993.251C445.999 1005.71 489.214 1023.62 526.59 1046.98L472.862 1177.79C435.487 1155.99 397.333 1140.03 358.4 1129.91C320.246 1119 282.87 1113.55 246.274 1113.55C207.341 1113.55 175.416 1118.23 150.499 1127.57C125.582 1136.91 107.673 1149.37 96.7716 1164.94C85.8705 1179.74 80.4199 1196.48 80.4199 1215.17C80.4199 1238.53 88.9851 1257.22 106.116 1271.23C124.025 1285.25 146.995 1296.54 175.027 1305.1C203.058 1312.89 234.204 1320.68 268.465 1328.46C302.726 1336.25 336.987 1345.59 371.248 1356.49C405.509 1366.62 436.655 1380.24 464.687 1397.37C493.497 1413.73 516.467 1435.92 533.598 1463.95C551.507 1491.2 560.461 1526.24 560.461 1569.07C560.461 1614.23 548.003 1655.5 523.086 1692.87C498.947 1730.25 461.572 1760.62 410.959 1783.98C361.125 1806.56 298.054 1817.85 221.746 1817.85ZM1119.71 1817.85C1056.64 1817.85 998.236 1807.73 944.509 1787.48C890.782 1766.46 844.062 1737.26 804.351 1699.88C765.418 1661.73 735.051 1616.95 713.248 1565.56C691.446 1514.17 680.545 1457.72 680.545 1396.21C680.545 1334.69 691.446 1278.24 713.248 1226.85C735.051 1175.46 765.807 1131.07 805.519 1093.7C845.23 1055.54 891.95 1026.34 945.677 1006.1C999.404 985.075 1057.8 974.563 1120.87 974.563C1189.4 974.563 1251.69 986.633 1307.75 1010.77C1364.59 1034.13 1412.09 1068.78 1450.25 1114.72L1341.62 1217.5C1312.81 1185.58 1280.5 1161.83 1244.68 1146.26C1208.86 1129.91 1170.32 1121.73 1129.05 1121.73C1088.56 1121.73 1051.57 1128.35 1018.09 1141.59C984.61 1154.82 955.41 1173.9 930.493 1198.82C905.576 1222.95 886.11 1251.76 872.094 1285.25C858.857 1318.73 852.238 1355.72 852.238 1396.21C852.238 1436.7 858.857 1473.68 872.094 1507.16C886.11 1540.65 905.576 1569.85 930.493 1594.76C955.41 1618.9 984.61 1637.59 1018.09 1650.83C1051.57 1664.06 1088.56 1670.68 1129.05 1670.68C1170.32 1670.68 1208.86 1662.9 1244.68 1647.32C1280.5 1630.97 1312.81 1606.44 1341.62 1573.74L1450.25 1676.52C1412.09 1722.46 1364.59 1757.5 1307.75 1781.64C1251.69 1805.78 1189.01 1817.85 1119.71 1817.85Z" fill="#193D18"/>
</svg>
