<svg width="422" height="1707" viewBox="0 0 422 1707" fill="none" xmlns="http://www.w3.org/2000/svg">
<path d="M257.854 1700.46C257.854 1698.86 257.3 1697.48 256.122 1696.38C255.014 1695.26 253.628 1694.64 252.036 1694.64C250.442 1694.64 249.058 1695.2 247.95 1696.38C246.842 1697.48 246.218 1698.86 246.218 1700.46C246.218 1702.04 246.772 1703.42 247.95 1704.54C249.058 1705.64 250.442 1706.26 252.036 1706.26C253.628 1706.26 255.014 1705.7 256.122 1704.54C257.23 1703.42 257.854 1702.04 257.854 1700.46Z" fill="#153814"/>
<path d="M175.78 1700.46C175.78 1698.86 175.228 1697.48 174.05 1696.38C172.942 1695.26 171.556 1694.64 169.964 1694.64C168.37 1694.64 166.984 1695.2 165.876 1696.38C164.768 1697.48 164.146 1698.86 164.146 1700.46C164.146 1702.04 164.7 1703.42 165.876 1704.54C166.986 1705.64 168.37 1706.26 169.964 1706.26C171.558 1706.26 172.942 1705.7 174.05 1704.54C175.158 1703.42 175.78 1702.04 175.78 1700.46Z" fill="#153814"/>
<path d="M93.71 1700.46C93.71 1698.86 93.156 1697.48 91.978 1696.38C90.87 1695.26 89.484 1694.64 87.89 1694.64C86.296 1694.64 84.912 1695.2 83.804 1696.38C82.696 1697.48 82.072 1698.86 82.072 1700.46C82.072 1702.04 82.626 1703.42 83.804 1704.54C84.912 1705.64 86.298 1706.26 87.89 1706.26C89.484 1706.26 90.87 1705.7 91.978 1704.54C93.086 1703.42 93.71 1702.04 93.71 1700.46Z" fill="#153814"/>
<path d="M11.6358 1700.46C11.6358 1698.86 11.0818 1697.48 9.90576 1696.38C8.79576 1695.26 7.40976 1694.64 5.81976 1694.64C4.22576 1694.64 2.83976 1695.2 1.73176 1696.38C0.621756 1697.48 -0.000244141 1698.86 -0.000244141 1700.46C-0.000244141 1702.04 0.553756 1703.42 1.73176 1704.54C2.84176 1705.64 4.22576 1706.26 5.81976 1706.26C7.40976 1706.26 8.79576 1705.7 9.90576 1704.54C11.0138 1703.42 11.6358 1702.04 11.6358 1700.46Z" fill="#153814"/>
<path d="M339.926 1618.52C339.926 1616.93 339.372 1615.55 338.196 1614.44C337.088 1613.33 335.702 1612.71 334.108 1612.71C332.514 1612.71 331.13 1613.26 330.022 1614.44C328.914 1615.55 328.29 1616.93 328.29 1618.52C328.29 1620.11 328.844 1621.49 330.022 1622.6C331.13 1623.71 332.516 1624.33 334.108 1624.33C335.702 1624.33 337.088 1623.78 338.196 1622.6C339.304 1621.49 339.926 1620.11 339.926 1618.52Z" fill="#153814"/>
<path d="M257.854 1618.52C257.854 1616.93 257.3 1615.55 256.122 1614.44C255.014 1613.33 253.63 1612.71 252.036 1612.71C250.442 1612.71 249.058 1613.26 247.95 1614.44C246.842 1615.55 246.218 1616.93 246.218 1618.52C246.218 1620.11 246.772 1621.49 247.95 1622.6C249.058 1623.71 250.442 1624.33 252.036 1624.33C253.63 1624.33 255.014 1623.78 256.122 1622.6C257.23 1621.49 257.854 1620.11 257.854 1618.52Z" fill="#153814"/>
<path d="M175.78 1618.52C175.78 1616.93 175.228 1615.55 174.05 1614.44C172.942 1613.33 171.556 1612.71 169.964 1612.71C168.37 1612.71 166.984 1613.26 165.876 1614.44C164.768 1615.55 164.146 1616.93 164.146 1618.52C164.146 1620.11 164.7 1621.49 165.876 1622.6C166.986 1623.71 168.37 1624.33 169.964 1624.33C171.558 1624.33 172.942 1623.78 174.05 1622.6C175.158 1621.49 175.78 1620.11 175.78 1618.52Z" fill="#153814"/>
<path d="M93.71 1618.52C93.71 1616.93 93.156 1615.55 91.978 1614.44C90.87 1613.33 89.484 1612.71 87.89 1612.71C86.296 1612.71 84.912 1613.26 83.804 1614.44C82.696 1615.55 82.072 1616.93 82.072 1618.52C82.072 1620.11 82.626 1621.49 83.804 1622.6C84.912 1623.71 86.298 1624.33 87.89 1624.33C89.484 1624.33 90.87 1623.78 91.978 1622.6C93.086 1621.49 93.71 1620.11 93.71 1618.52Z" fill="#153814"/>
<path d="M422 1536.58C422 1534.99 421.446 1533.61 420.268 1532.5C419.16 1531.4 417.774 1530.77 416.182 1530.77C414.588 1530.77 413.202 1531.33 412.094 1532.5C410.986 1533.61 410.362 1534.99 410.362 1536.58C410.362 1538.18 410.916 1539.56 412.094 1540.66C413.202 1541.77 414.588 1542.39 416.182 1542.39C417.776 1542.39 419.16 1541.84 420.268 1540.66C421.376 1539.56 422 1538.17 422 1536.58Z" fill="#153814"/>
<path d="M339.928 1536.58C339.928 1534.99 339.372 1533.61 338.196 1532.5C337.088 1531.4 335.702 1530.77 334.108 1530.77C332.514 1530.77 331.13 1531.33 330.022 1532.5C328.914 1533.61 328.29 1534.99 328.29 1536.58C328.29 1538.18 328.844 1539.56 330.022 1540.66C331.13 1541.77 332.516 1542.39 334.108 1542.39C335.702 1542.39 337.088 1541.84 338.196 1540.66C339.304 1539.56 339.928 1538.17 339.928 1536.58Z" fill="#153814"/>
<path d="M257.854 1536.58C257.854 1534.99 257.3 1533.61 256.122 1532.5C255.014 1531.4 253.628 1530.77 252.036 1530.77C250.442 1530.77 249.058 1531.33 247.95 1532.5C246.84 1533.61 246.218 1534.99 246.218 1536.58C246.218 1538.18 246.772 1539.56 247.95 1540.66C249.058 1541.77 250.442 1542.39 252.036 1542.39C253.628 1542.39 255.014 1541.84 256.122 1540.66C257.23 1539.56 257.854 1538.17 257.854 1536.58Z" fill="#153814"/>
<path d="M175.78 1536.58C175.78 1534.99 175.228 1533.61 174.05 1532.5C172.942 1531.4 171.556 1530.77 169.964 1530.77C168.37 1530.77 166.984 1531.33 165.876 1532.5C164.768 1533.61 164.146 1534.99 164.146 1536.58C164.146 1538.18 164.7 1539.56 165.876 1540.66C166.986 1541.77 168.37 1542.39 169.964 1542.39C171.558 1542.39 172.942 1541.84 174.05 1540.66C175.158 1539.56 175.78 1538.17 175.78 1536.58Z" fill="#153814"/>
<path d="M422 1454.65C422 1453.06 421.446 1451.68 420.268 1450.57C419.16 1449.47 417.774 1448.84 416.182 1448.84C414.588 1448.84 413.202 1449.39 412.094 1450.57C410.986 1451.68 410.362 1453.06 410.362 1454.65C410.362 1456.24 410.916 1457.62 412.094 1458.73C413.202 1459.84 414.588 1460.46 416.182 1460.46C417.776 1460.46 419.16 1459.91 420.268 1458.73C421.376 1457.62 422 1456.24 422 1454.65Z" fill="#153814"/>
<path d="M339.926 1454.65C339.926 1453.06 339.372 1451.68 338.196 1450.57C337.088 1449.47 335.702 1448.84 334.108 1448.84C332.514 1448.84 331.13 1449.39 330.022 1450.57C328.914 1451.68 328.29 1453.06 328.29 1454.65C328.29 1456.24 328.844 1457.62 330.022 1458.73C331.13 1459.84 332.516 1460.46 334.108 1460.46C335.702 1460.46 337.088 1459.91 338.196 1458.73C339.304 1457.62 339.926 1456.24 339.926 1454.65Z" fill="#153814"/>
<path d="M257.854 1454.65C257.854 1453.06 257.3 1451.68 256.122 1450.57C255.014 1449.47 253.628 1448.84 252.036 1448.84C250.442 1448.84 249.058 1449.39 247.95 1450.57C246.84 1451.68 246.218 1453.06 246.218 1454.65C246.218 1456.24 246.772 1457.62 247.95 1458.73C249.058 1459.84 250.442 1460.46 252.036 1460.46C253.628 1460.46 255.014 1459.91 256.122 1458.73C257.23 1457.62 257.854 1456.24 257.854 1454.65Z" fill="#153814"/>
<path d="M175.78 1454.65C175.78 1453.06 175.228 1451.68 174.05 1450.57C172.942 1449.47 171.556 1448.84 169.964 1448.84C168.37 1448.84 166.984 1449.39 165.876 1450.57C164.768 1451.68 164.146 1453.06 164.146 1454.65C164.146 1456.24 164.7 1457.62 165.876 1458.73C166.986 1459.84 168.37 1460.46 169.964 1460.46C171.558 1460.46 172.942 1459.91 174.05 1458.73C175.158 1457.62 175.78 1456.24 175.78 1454.65Z" fill="#153814"/>
<path d="M93.71 1454.65C93.71 1453.06 93.156 1451.68 91.978 1450.57C90.87 1449.47 89.484 1448.84 87.89 1448.84C86.296 1448.84 84.912 1449.39 83.804 1450.57C82.696 1451.68 82.072 1453.06 82.072 1454.65C82.072 1456.24 82.626 1457.62 83.804 1458.73C84.912 1459.84 86.298 1460.46 87.89 1460.46C89.484 1460.46 90.87 1459.91 91.978 1458.73C93.086 1457.62 93.71 1456.24 93.71 1454.65Z" fill="#153814"/>
<path d="M422 1372.72C422 1371.12 421.446 1369.74 420.268 1368.63C419.16 1367.53 417.774 1366.91 416.182 1366.91C414.588 1366.91 413.204 1367.46 412.094 1368.63C410.986 1369.74 410.364 1371.12 410.364 1372.72C410.364 1374.31 410.918 1375.69 412.094 1376.79C413.204 1377.9 414.588 1378.52 416.182 1378.52C417.776 1378.52 419.16 1377.97 420.268 1376.79C421.376 1375.69 422 1374.31 422 1372.72Z" fill="#153814"/>
<path d="M339.928 1372.72C339.928 1371.12 339.374 1369.74 338.196 1368.63C337.088 1367.53 335.702 1366.91 334.11 1366.91C332.516 1366.91 331.13 1367.46 330.022 1368.63C328.914 1369.74 328.29 1371.12 328.29 1372.72C328.29 1374.31 328.844 1375.69 330.022 1376.79C331.13 1377.9 332.516 1378.52 334.11 1378.52C335.704 1378.52 337.088 1377.97 338.196 1376.79C339.304 1375.69 339.928 1374.31 339.928 1372.72Z" fill="#153814"/>
<path d="M257.854 1372.72C257.854 1371.12 257.3 1369.74 256.124 1368.63C255.016 1367.53 253.63 1366.91 252.036 1366.91C250.442 1366.91 249.058 1367.46 247.95 1368.63C246.842 1369.74 246.218 1371.12 246.218 1372.72C246.218 1374.31 246.772 1375.69 247.95 1376.79C249.058 1377.9 250.444 1378.52 252.036 1378.52C253.63 1378.52 255.016 1377.97 256.124 1376.79C257.232 1375.69 257.854 1374.31 257.854 1372.72Z" fill="#153814"/>
<path d="M175.782 1372.72C175.782 1371.12 175.228 1369.74 174.05 1368.63C172.942 1367.53 171.556 1366.91 169.964 1366.91C168.372 1366.91 166.984 1367.46 165.878 1368.63C164.77 1369.74 164.146 1371.12 164.146 1372.72C164.146 1374.31 164.7 1375.69 165.878 1376.79C166.986 1377.9 168.372 1378.52 169.964 1378.52C171.556 1378.52 172.944 1377.97 174.05 1376.79C175.158 1375.69 175.782 1374.31 175.782 1372.72Z" fill="#153814"/>
<path d="M93.71 1372.72C93.71 1371.12 93.156 1369.74 91.978 1368.63C90.87 1367.53 89.484 1366.91 87.892 1366.91C86.298 1366.91 84.912 1367.46 83.804 1368.63C82.696 1369.74 82.072 1371.12 82.072 1372.72C82.072 1374.31 82.628 1375.69 83.804 1376.79C84.914 1377.9 86.298 1378.52 87.892 1378.52C89.486 1378.52 90.87 1377.97 91.978 1376.79C93.086 1375.69 93.71 1374.31 93.71 1372.72Z" fill="#153814"/>
<path d="M11.6378 1372.72C11.6378 1371.12 11.0818 1369.74 9.90576 1368.63C8.79576 1367.53 7.40976 1366.91 5.81976 1366.91C4.22576 1366.91 2.83976 1367.46 1.73176 1368.63C0.621756 1369.74 -0.000244141 1371.12 -0.000244141 1372.72C-0.000244141 1374.31 0.555756 1375.69 1.73176 1376.79C2.84176 1377.9 4.22576 1378.52 5.81976 1378.52C7.40976 1378.52 8.79576 1377.97 9.90576 1376.79C11.0138 1375.69 11.6378 1374.31 11.6378 1372.72Z" fill="#153814"/>
<path d="M257.854 1290.78C257.854 1289.19 257.3 1287.81 256.124 1286.7C255.016 1285.59 253.63 1284.97 252.036 1284.97C250.442 1284.97 249.058 1285.52 247.95 1286.7C246.842 1287.81 246.218 1289.19 246.218 1290.78C246.218 1292.37 246.772 1293.75 247.95 1294.86C249.058 1295.96 250.444 1296.59 252.036 1296.59C253.63 1296.59 255.016 1296.04 256.124 1294.86C257.232 1293.75 257.854 1292.37 257.854 1290.78Z" fill="#153814"/>
<path d="M175.782 1290.78C175.782 1289.19 175.228 1287.8 174.05 1286.7C172.942 1285.59 171.558 1284.97 169.964 1284.97C168.372 1284.97 166.986 1285.52 165.878 1286.7C164.77 1287.8 164.146 1289.19 164.146 1290.78C164.146 1292.37 164.7 1293.75 165.878 1294.86C166.986 1295.96 168.372 1296.59 169.964 1296.59C171.558 1296.59 172.944 1296.03 174.05 1294.86C175.16 1293.75 175.782 1292.37 175.782 1290.78Z" fill="#153814"/>
<path d="M93.71 1290.78C93.71 1289.19 93.156 1287.8 91.978 1286.7C90.87 1285.59 89.484 1284.97 87.892 1284.97C86.298 1284.97 84.912 1285.52 83.806 1286.7C82.696 1287.8 82.074 1289.19 82.074 1290.78C82.074 1292.37 82.628 1293.75 83.806 1294.86C84.914 1295.96 86.298 1296.59 87.892 1296.59C89.484 1296.59 90.872 1296.03 91.978 1294.86C93.086 1293.75 93.71 1292.37 93.71 1290.78Z" fill="#153814"/>
<path d="M11.6378 1290.78C11.6378 1289.19 11.0818 1287.8 9.90576 1286.7C8.79576 1285.59 7.41176 1284.97 5.81976 1284.97C4.22576 1284.97 2.83976 1285.52 1.73176 1286.7C0.623756 1287.8 -0.000244141 1289.19 -0.000244141 1290.78C-0.000244141 1292.37 0.555756 1293.75 1.73176 1294.86C2.84176 1295.96 4.22576 1296.59 5.81976 1296.59C7.41376 1296.59 8.79576 1296.03 9.90576 1294.86C11.0158 1293.75 11.6378 1292.37 11.6378 1290.78Z" fill="#153814"/>
<path d="M175.78 1208.85C175.78 1207.26 175.228 1205.87 174.05 1204.76C172.942 1203.66 171.556 1203.04 169.964 1203.04C168.37 1203.04 166.984 1203.59 165.876 1204.76C164.768 1205.87 164.146 1207.26 164.146 1208.85C164.146 1210.44 164.7 1211.82 165.876 1212.92C166.986 1214.03 168.37 1214.65 169.964 1214.65C171.558 1214.65 172.944 1214.1 174.05 1212.92C175.158 1211.82 175.78 1210.44 175.78 1208.85Z" fill="#153814"/>
<path d="M93.71 1208.85C93.71 1207.26 93.156 1205.87 91.978 1204.77C90.87 1203.66 89.484 1203.04 87.892 1203.04C86.298 1203.04 84.912 1203.59 83.804 1204.77C82.696 1205.87 82.072 1207.26 82.072 1208.85C82.072 1210.44 82.626 1211.82 83.804 1212.92C84.912 1214.03 86.298 1214.65 87.892 1214.65C89.486 1214.65 90.87 1214.1 91.978 1212.92C93.086 1211.82 93.71 1210.44 93.71 1208.85Z" fill="#153814"/>
<path d="M175.782 1126.91C175.782 1125.32 175.228 1123.94 174.05 1122.83C172.942 1121.73 171.556 1121.1 169.964 1121.1C168.372 1121.1 166.984 1121.66 165.878 1122.83C164.77 1123.94 164.146 1125.32 164.146 1126.91C164.146 1128.5 164.7 1129.89 165.878 1130.99C166.986 1132.1 168.372 1132.72 169.964 1132.72C171.556 1132.72 172.944 1132.17 174.05 1130.99C175.158 1129.89 175.782 1128.5 175.782 1126.91Z" fill="#153814"/>
<path d="M93.71 1126.91C93.71 1125.32 93.156 1123.94 91.978 1122.83C90.87 1121.73 89.484 1121.1 87.892 1121.1C86.298 1121.1 84.912 1121.66 83.804 1122.83C82.696 1123.94 82.072 1125.32 82.072 1126.91C82.072 1128.5 82.628 1129.89 83.804 1130.99C84.912 1132.1 86.298 1132.72 87.892 1132.72C89.486 1132.72 90.87 1132.17 91.978 1130.99C93.086 1129.89 93.71 1128.5 93.71 1126.91Z" fill="#153814"/>
<path d="M11.6378 1126.91C11.6378 1125.32 11.0818 1123.94 9.90576 1122.83C8.79576 1121.73 7.40976 1121.1 5.81976 1121.1C4.22576 1121.1 2.83976 1121.66 1.73176 1122.83C0.621756 1123.94 -0.000244141 1125.32 -0.000244141 1126.91C-0.000244141 1128.5 0.555756 1129.89 1.73176 1130.99C2.84176 1132.1 4.22576 1132.72 5.81976 1132.72C7.40976 1132.72 8.79576 1132.17 9.90576 1130.99C11.0138 1129.89 11.6378 1128.5 11.6378 1126.91Z" fill="#153814"/>
<path d="M175.782 1044.98C175.782 1043.39 175.228 1042 174.05 1040.9C172.942 1039.79 171.556 1039.17 169.964 1039.17C168.37 1039.17 166.984 1039.72 165.878 1040.9C164.768 1042 164.146 1043.39 164.146 1044.98C164.146 1046.57 164.7 1047.95 165.878 1049.06C166.986 1050.16 168.37 1050.78 169.964 1050.78C171.556 1050.78 172.944 1050.23 174.05 1049.06C175.158 1047.95 175.782 1046.57 175.782 1044.98Z" fill="#153814"/>
<path d="M93.71 1044.98C93.71 1043.39 93.156 1042 91.978 1040.9C90.87 1039.79 89.484 1039.17 87.892 1039.17C86.298 1039.17 84.912 1039.72 83.804 1040.9C82.696 1042 82.072 1043.39 82.072 1044.98C82.072 1046.57 82.626 1047.95 83.804 1049.06C84.912 1050.16 86.298 1050.78 87.892 1050.78C89.486 1050.78 90.87 1050.23 91.978 1049.06C93.086 1047.95 93.71 1046.57 93.71 1044.98Z" fill="#153814"/>
<path d="M11.6358 1044.98C11.6358 1043.39 11.0818 1042 9.90576 1040.9C8.79576 1039.79 7.40976 1039.17 5.81976 1039.17C4.22576 1039.17 2.83976 1039.72 1.73176 1040.9C0.621756 1042 -0.000244141 1043.39 -0.000244141 1044.98C-0.000244141 1046.57 0.553756 1047.95 1.73176 1049.06C2.84176 1050.16 4.22576 1050.78 5.81976 1050.78C7.40976 1050.78 8.79576 1050.23 9.90576 1049.06C11.0138 1047.95 11.6358 1046.57 11.6358 1044.98Z" fill="#153814"/>
<path d="M175.782 963.044C175.782 961.454 175.228 960.07 174.05 958.964C172.942 957.858 171.556 957.234 169.964 957.234C168.37 957.234 166.984 957.788 165.878 958.964C164.768 960.07 164.146 961.454 164.146 963.044C164.146 964.636 164.7 966.018 165.878 967.122C166.986 968.23 168.37 968.852 169.964 968.852C171.556 968.852 172.944 968.3 174.05 967.122C175.158 966.018 175.782 964.636 175.782 963.044Z" fill="#153814"/>
<path d="M93.71 963.044C93.71 961.454 93.156 960.07 91.978 958.962C90.87 957.858 89.484 957.234 87.892 957.234C86.298 957.234 84.912 957.788 83.804 958.962C82.696 960.07 82.072 961.454 82.072 963.044C82.072 964.636 82.626 966.018 83.804 967.122C84.912 968.23 86.298 968.852 87.892 968.852C89.486 968.852 90.87 968.3 91.978 967.122C93.086 966.018 93.71 964.636 93.71 963.044Z" fill="#153814"/>
<path d="M11.6358 963.044C11.6358 961.454 11.0818 960.07 9.90576 958.962C8.79576 957.858 7.40976 957.234 5.81976 957.234C4.22576 957.234 2.83976 957.788 1.73176 958.962C0.619756 960.07 -0.000244141 961.454 -0.000244141 963.044C-0.000244141 964.636 0.555756 966.018 1.73176 967.122C2.84176 968.23 4.22576 968.852 5.81976 968.852C7.40976 968.852 8.79576 968.3 9.90576 967.122C11.0138 966.018 11.6358 964.636 11.6358 963.044Z" fill="#153814"/>
<path d="M175.782 881.107C175.782 879.515 175.228 878.133 174.05 877.025C172.942 875.921 171.556 875.297 169.964 875.297C168.37 875.297 166.984 875.851 165.878 877.025C164.768 878.133 164.146 879.515 164.146 881.107C164.146 882.699 164.7 884.081 165.878 885.185C166.986 886.293 168.37 886.913 169.964 886.913C171.556 886.913 172.944 886.363 174.05 885.185C175.158 884.081 175.782 882.697 175.782 881.107Z" fill="#153814"/>
<path d="M93.71 881.107C93.71 879.515 93.156 878.133 91.978 877.025C90.87 875.921 89.484 875.297 87.892 875.297C86.298 875.297 84.912 875.851 83.804 877.025C82.696 878.133 82.072 879.515 82.072 881.107C82.072 882.699 82.626 884.081 83.804 885.185C84.912 886.293 86.298 886.913 87.892 886.913C89.486 886.913 90.87 886.363 91.978 885.185C93.086 884.081 93.71 882.697 93.71 881.107Z" fill="#153814"/>
<path d="M175.782 799.173C175.782 797.581 175.228 796.199 174.05 795.091C172.942 793.987 171.556 793.363 169.964 793.363C168.37 793.363 166.984 793.915 165.878 795.091C164.768 796.199 164.146 797.581 164.146 799.173C164.146 800.765 164.7 802.147 165.878 803.251C166.986 804.359 168.37 804.979 169.964 804.979C171.556 804.979 172.944 804.429 174.05 803.251C175.158 802.147 175.782 800.763 175.782 799.173Z" fill="#153814"/>
<path d="M93.71 799.171C93.71 797.581 93.156 796.199 91.978 795.091C90.87 793.985 89.484 793.361 87.892 793.361C86.298 793.361 84.912 793.915 83.804 795.091C82.696 796.199 82.072 797.581 82.072 799.171C82.072 800.763 82.626 802.145 83.804 803.251C84.912 804.357 86.298 804.979 87.892 804.979C89.486 804.979 90.87 804.427 91.978 803.251C93.086 802.145 93.71 800.763 93.71 799.171Z" fill="#153814"/>
<path d="M11.6358 799.171C11.6358 797.581 11.0818 796.199 9.90576 795.091C8.79576 793.985 7.40976 793.361 5.81976 793.361C4.22576 793.361 2.83976 793.915 1.73176 795.091C0.621756 796.199 -0.000244141 797.581 -0.000244141 799.171C-0.000244141 800.763 0.555756 802.145 1.73176 803.251C2.84176 804.357 4.22576 804.979 5.81976 804.979C7.40976 804.979 8.79576 804.427 9.90576 803.251C11.0138 802.145 11.6358 800.763 11.6358 799.171Z" fill="#153814"/>
<path d="M339.928 717.238C339.928 715.648 339.374 714.264 338.196 713.156C337.088 712.052 335.702 711.428 334.108 711.428C332.514 711.428 331.13 711.982 330.022 713.156C328.914 714.264 328.29 715.648 328.29 717.238C328.29 718.83 328.844 720.212 330.022 721.316C331.13 722.424 332.516 723.046 334.108 723.046C335.702 723.046 337.088 722.494 338.196 721.316C339.304 720.212 339.928 718.83 339.928 717.238Z" fill="#153814"/>
<path d="M257.854 717.238C257.854 715.648 257.3 714.264 256.124 713.156C255.014 712.052 253.63 711.428 252.036 711.428C250.442 711.428 249.058 711.982 247.95 713.156C246.842 714.264 246.218 715.648 246.218 717.238C246.218 718.83 246.772 720.212 247.95 721.316C249.058 722.424 250.444 723.046 252.036 723.046C253.63 723.046 255.014 722.494 256.124 721.316C257.232 720.212 257.854 718.83 257.854 717.238Z" fill="#153814"/>
<path d="M175.782 717.238C175.782 715.648 175.228 714.264 174.05 713.156C172.942 712.052 171.556 711.428 169.964 711.428C168.37 711.428 166.984 711.982 165.878 713.156C164.768 714.264 164.146 715.648 164.146 717.238C164.146 718.83 164.7 720.212 165.878 721.316C166.986 722.424 168.37 723.046 169.964 723.046C171.556 723.046 172.944 722.494 174.05 721.316C175.158 720.212 175.782 718.83 175.782 717.238Z" fill="#153814"/>
<path d="M93.71 717.238C93.71 715.648 93.156 714.264 91.978 713.156C90.87 712.052 89.484 711.428 87.892 711.428C86.298 711.428 84.912 711.982 83.804 713.156C82.696 714.264 82.072 715.648 82.072 717.238C82.072 718.83 82.626 720.212 83.804 721.316C84.912 722.424 86.298 723.046 87.892 723.046C89.486 723.046 90.87 722.494 91.978 721.316C93.086 720.212 93.71 718.83 93.71 717.238Z" fill="#153814"/>
<path d="M339.928 635.304C339.928 633.712 339.374 632.33 338.196 631.222C337.088 630.118 335.702 629.494 334.108 629.494C332.514 629.494 331.13 630.046 330.022 631.222C328.914 632.33 328.29 633.712 328.29 635.304C328.29 636.896 328.844 638.276 330.022 639.382C331.13 640.488 332.516 641.11 334.108 641.11C335.702 641.11 337.088 640.56 338.196 639.382C339.304 638.276 339.928 636.894 339.928 635.304Z" fill="#153814"/>
<path d="M257.856 635.304C257.856 633.712 257.3 632.33 256.124 631.222C255.016 630.118 253.63 629.494 252.036 629.494C250.442 629.494 249.058 630.048 247.95 631.222C246.842 632.33 246.218 633.712 246.218 635.304C246.218 636.896 246.772 638.278 247.95 639.382C249.058 640.49 250.444 641.11 252.036 641.11C253.63 641.11 255.016 640.56 256.124 639.382C257.232 638.278 257.856 636.894 257.856 635.304Z" fill="#153814"/>
<path d="M175.782 635.304C175.782 633.712 175.228 632.33 174.05 631.222C172.942 630.118 171.556 629.494 169.964 629.494C168.37 629.494 166.984 630.046 165.878 631.222C164.77 632.33 164.146 633.712 164.146 635.304C164.146 636.896 164.7 638.276 165.878 639.382C166.986 640.488 168.37 641.11 169.964 641.11C171.556 641.11 172.944 640.56 174.05 639.382C175.158 638.276 175.782 636.894 175.782 635.304Z" fill="#153814"/>
<path d="M93.71 635.304C93.71 633.712 93.156 632.33 91.978 631.222C90.87 630.118 89.484 629.494 87.892 629.494C86.298 629.494 84.912 630.046 83.804 631.222C82.696 632.33 82.072 633.712 82.072 635.304C82.072 636.896 82.626 638.276 83.804 639.382C84.912 640.488 86.298 641.11 87.892 641.11C89.486 641.11 90.87 640.56 91.978 639.382C93.086 638.276 93.71 636.894 93.71 635.304Z" fill="#153814"/>
<path d="M11.6358 635.304C11.6358 633.712 11.0818 632.33 9.90576 631.222C8.79576 630.118 7.40976 629.494 5.81976 629.494C4.22576 629.494 2.83976 630.046 1.73176 631.222C0.621756 632.33 -0.000244141 633.712 -0.000244141 635.304C-0.000244141 636.896 0.553756 638.276 1.73176 639.382C2.83976 640.488 4.22576 641.11 5.81976 641.11C7.40976 641.11 8.79576 640.56 9.90576 639.382C11.0138 638.276 11.6358 636.894 11.6358 635.304Z" fill="#153814"/>
<path d="M339.928 553.369C339.928 551.779 339.374 550.397 338.196 549.289C337.088 548.185 335.702 547.559 334.108 547.559C332.514 547.559 331.13 548.113 330.022 549.289C328.914 550.397 328.29 551.779 328.29 553.369C328.29 554.961 328.844 556.343 330.022 557.449C331.13 558.555 332.516 559.177 334.108 559.177C335.702 559.177 337.088 558.627 338.196 557.449C339.304 556.343 339.928 554.961 339.928 553.369Z" fill="#153814"/>
<path d="M257.854 553.371C257.854 551.779 257.3 550.397 256.124 549.289C255.014 548.185 253.63 547.561 252.036 547.561C250.442 547.561 249.058 548.115 247.95 549.289C246.842 550.397 246.218 551.779 246.218 553.371C246.218 554.963 246.772 556.343 247.95 557.449C249.058 558.557 250.444 559.177 252.036 559.177C253.63 559.177 255.014 558.627 256.124 557.449C257.232 556.343 257.854 554.961 257.854 553.371Z" fill="#153814"/>
<path d="M175.782 553.371C175.782 551.779 175.228 550.397 174.05 549.289C172.942 548.185 171.556 547.561 169.964 547.561C168.37 547.561 166.984 548.113 165.876 549.289C164.768 550.397 164.146 551.779 164.146 553.371C164.146 554.963 164.7 556.343 165.876 557.449C166.986 558.557 168.37 559.177 169.964 559.177C171.558 559.177 172.944 558.627 174.05 557.449C175.158 556.343 175.782 554.961 175.782 553.371Z" fill="#153814"/>
<path d="M93.71 553.371C93.71 551.779 93.156 550.397 91.978 549.289C90.87 548.185 89.484 547.561 87.892 547.561C86.298 547.561 84.912 548.113 83.804 549.289C82.696 550.397 82.072 551.779 82.072 553.371C82.072 554.963 82.628 556.343 83.804 557.449C84.912 558.557 86.298 559.177 87.892 559.177C89.486 559.177 90.87 558.627 91.978 557.449C93.086 556.343 93.71 554.961 93.71 553.371Z" fill="#153814"/>
<path d="M11.6358 553.371C11.6358 551.779 11.0818 550.397 9.90576 549.289C8.79576 548.185 7.40976 547.561 5.81976 547.561C4.22576 547.561 2.83976 548.113 1.73176 549.289C0.621756 550.397 -0.000244141 551.779 -0.000244141 553.371C-0.000244141 554.963 0.555756 556.343 1.73176 557.449C2.84176 558.557 4.22576 559.177 5.81976 559.177C7.40976 559.177 8.79576 558.627 9.90576 557.449C11.0138 556.343 11.6358 554.961 11.6358 553.371Z" fill="#153814"/>
<path d="M93.71 471.433C93.71 469.841 93.156 468.459 91.978 467.351C90.87 466.247 89.484 465.623 87.89 465.623C86.296 465.623 84.912 466.177 83.804 467.351C82.696 468.459 82.072 469.841 82.072 471.433C82.072 473.025 82.626 474.407 83.804 475.511C84.912 476.619 86.298 477.239 87.89 477.239C89.484 477.239 90.87 476.689 91.978 475.511C93.086 474.407 93.71 473.023 93.71 471.433Z" fill="#153814"/>
<path d="M11.6358 471.433C11.6358 469.841 11.0818 468.459 9.90576 467.351C8.79576 466.247 7.41176 465.623 5.81776 465.623C4.22376 465.623 2.83976 466.177 1.73176 467.351C0.623756 468.459 -0.000244141 469.841 -0.000244141 471.433C-0.000244141 473.025 0.553756 474.407 1.73176 475.511C2.83976 476.619 4.22576 477.239 5.81776 477.239C7.41176 477.239 8.79776 476.689 9.90576 475.511C11.0138 474.407 11.6358 473.023 11.6358 471.433Z" fill="#153814"/>
<path d="M11.6358 389.476C11.6358 387.894 11.0818 386.516 9.90576 385.404C8.79576 384.29 7.40976 383.674 5.81976 383.674C4.22576 383.674 2.83976 384.232 1.73176 385.404C0.621756 386.516 -0.000244141 387.894 -0.000244141 389.476C-0.000244141 391.088 0.553756 392.464 1.73176 393.578C2.83976 394.662 4.22576 395.306 5.81976 395.306C7.40976 395.306 8.79576 394.75 9.90576 393.578C11.0138 392.464 11.6358 391.088 11.6358 389.476Z" fill="#153814"/>
<path d="M422 307.55C422 305.96 421.446 304.576 420.268 303.468C419.16 302.364 417.774 301.74 416.182 301.74C414.588 301.74 413.202 302.294 412.094 303.468C410.986 304.576 410.362 305.96 410.362 307.55C410.362 309.14 410.916 310.524 412.094 311.628C413.202 312.736 414.588 313.358 416.182 313.358C417.776 313.358 419.16 312.806 420.268 311.628C421.376 310.524 422 309.14 422 307.55Z" fill="#153814"/>
<path d="M339.926 307.55C339.926 305.96 339.372 304.576 338.196 303.468C337.088 302.364 335.702 301.74 334.108 301.74C332.514 301.74 331.13 302.294 330.022 303.468C328.914 304.576 328.29 305.96 328.29 307.55C328.29 309.14 328.844 310.524 330.022 311.628C331.13 312.736 332.516 313.358 334.108 313.358C335.702 313.358 337.088 312.806 338.196 311.628C339.304 310.524 339.926 309.14 339.926 307.55Z" fill="#153814"/>
<path d="M257.854 307.55C257.854 305.96 257.3 304.576 256.122 303.468C255.014 302.364 253.63 301.74 252.036 301.74C250.444 301.74 249.058 302.294 247.95 303.468C246.842 304.576 246.218 305.96 246.218 307.55C246.218 309.14 246.772 310.524 247.95 311.628C249.058 312.736 250.444 313.358 252.036 313.358C253.63 313.358 255.014 312.806 256.122 311.628C257.23 310.524 257.854 309.14 257.854 307.55Z" fill="#153814"/>
<path d="M175.78 307.55C175.78 305.96 175.228 304.576 174.05 303.468C172.942 302.364 171.556 301.74 169.964 301.74C168.37 301.74 166.984 302.294 165.876 303.468C164.768 304.576 164.146 305.96 164.146 307.55C164.146 309.14 164.7 310.524 165.876 311.628C166.986 312.736 168.37 313.358 169.964 313.358C171.558 313.358 172.942 312.806 174.05 311.628C175.158 310.524 175.78 309.14 175.78 307.55Z" fill="#153814"/>
<path d="M93.71 307.55C93.71 305.96 93.156 304.576 91.978 303.468C90.87 302.364 89.484 301.74 87.89 301.74C86.296 301.74 84.912 302.294 83.804 303.468C82.696 304.576 82.072 305.96 82.072 307.55C82.072 309.14 82.626 310.524 83.804 311.628C84.912 312.736 86.298 313.358 87.89 313.358C89.484 313.358 90.87 312.806 91.978 311.628C93.086 310.524 93.71 309.14 93.71 307.55Z" fill="#153814"/>
<path d="M11.6358 307.55C11.6358 305.96 11.0818 304.576 9.90576 303.468C8.79576 302.364 7.40976 301.74 5.81976 301.74C4.22576 301.74 2.83976 302.294 1.73176 303.468C0.621756 304.576 -0.000244141 305.96 -0.000244141 307.55C-0.000244141 309.14 0.553756 310.524 1.73176 311.628C2.83976 312.736 4.22576 313.358 5.81976 313.358C7.40976 313.358 8.79576 312.806 9.90576 311.628C11.0138 310.524 11.6358 309.14 11.6358 307.55Z" fill="#153814"/>
<path d="M257.854 225.617C257.854 224.025 257.3 222.643 256.122 221.535C255.014 220.431 253.63 219.807 252.036 219.807C250.444 219.807 249.058 220.361 247.95 221.535C246.842 222.643 246.218 224.025 246.218 225.617C246.218 227.209 246.772 228.591 247.95 229.695C249.058 230.803 250.444 231.423 252.036 231.423C253.63 231.423 255.014 230.873 256.122 229.695C257.232 228.591 257.854 227.207 257.854 225.617Z" fill="#153814"/>
<path d="M175.78 225.617C175.78 224.025 175.228 222.643 174.05 221.535C172.942 220.431 171.556 219.807 169.964 219.807C168.37 219.807 166.984 220.361 165.876 221.535C164.768 222.643 164.146 224.025 164.146 225.617C164.146 227.209 164.7 228.591 165.876 229.695C166.986 230.803 168.37 231.423 169.964 231.423C171.558 231.423 172.942 230.873 174.05 229.695C175.158 228.591 175.78 227.207 175.78 225.617Z" fill="#153814"/>
<path d="M93.71 225.617C93.71 224.025 93.156 222.643 91.978 221.535C90.87 220.431 89.484 219.807 87.892 219.807C86.298 219.807 84.912 220.359 83.804 221.535C82.696 222.643 82.072 224.025 82.072 225.617C82.072 227.209 82.626 228.591 83.804 229.695C84.912 230.803 86.298 231.423 87.892 231.423C89.486 231.423 90.87 230.873 91.978 229.695C93.086 228.591 93.71 227.207 93.71 225.617Z" fill="#153814"/>
<path d="M11.6358 225.617C11.6358 224.025 11.0818 222.643 9.90576 221.535C8.79576 220.431 7.40976 219.807 5.81976 219.807C4.22576 219.807 2.83976 220.359 1.73176 221.535C0.619756 222.643 -0.000244141 224.025 -0.000244141 225.617C-0.000244141 227.209 0.553756 228.591 1.73176 229.695C2.83976 230.803 4.22576 231.423 5.81976 231.423C7.40976 231.423 8.79576 230.873 9.90576 229.695C11.0138 228.591 11.6358 227.207 11.6358 225.617Z" fill="#153814"/>
<path d="M339.926 143.679C339.926 142.089 339.372 140.705 338.196 139.599C337.088 138.493 335.702 137.869 334.108 137.869C332.514 137.869 331.13 138.423 330.022 139.599C328.914 140.705 328.29 142.089 328.29 143.679C328.29 145.271 328.844 146.653 330.022 147.757C331.13 148.865 332.516 149.487 334.108 149.487C335.702 149.487 337.088 148.935 338.196 147.757C339.304 146.653 339.926 145.271 339.926 143.679Z" fill="#153814"/>
<path d="M257.854 143.679C257.854 142.089 257.3 140.705 256.122 139.599C255.014 138.493 253.63 137.869 252.036 137.869C250.444 137.869 249.058 138.423 247.95 139.599C246.842 140.705 246.218 142.089 246.218 143.679C246.218 145.271 246.772 146.653 247.95 147.759C249.058 148.865 250.444 149.487 252.036 149.487C253.63 149.487 255.014 148.935 256.122 147.759C257.232 146.653 257.854 145.271 257.854 143.679Z" fill="#153814"/>
<path d="M175.782 143.679C175.782 142.089 175.228 140.705 174.05 139.599C172.942 138.493 171.556 137.869 169.964 137.869C168.37 137.869 166.984 138.423 165.878 139.599C164.768 140.705 164.146 142.089 164.146 143.679C164.146 145.271 164.7 146.653 165.878 147.759C166.986 148.865 168.37 149.487 169.964 149.487C171.556 149.487 172.944 148.935 174.05 147.759C175.158 146.653 175.782 145.271 175.782 143.679Z" fill="#153814"/>
<path d="M93.71 143.679C93.71 142.089 93.156 140.705 91.978 139.599C90.87 138.493 89.484 137.869 87.892 137.869C86.298 137.869 84.912 138.423 83.804 139.599C82.696 140.705 82.072 142.089 82.072 143.679C82.072 145.271 82.626 146.653 83.804 147.759C84.912 148.865 86.298 149.487 87.892 149.487C89.486 149.487 90.87 148.935 91.978 147.759C93.086 146.653 93.71 145.271 93.71 143.679Z" fill="#153814"/>
<path d="M11.6358 143.679C11.6358 142.089 11.0818 140.705 9.90576 139.599C8.79576 138.493 7.40976 137.869 5.81976 137.869C4.22576 137.869 2.83976 138.423 1.73176 139.599C0.621756 140.705 -0.000244141 142.089 -0.000244141 143.679C-0.000244141 145.271 0.553756 146.653 1.73176 147.759C2.84176 148.865 4.22576 149.487 5.81976 149.487C7.40976 149.487 8.79576 148.935 9.90576 147.759C11.0138 146.653 11.6358 145.271 11.6358 143.679Z" fill="#153814"/>
<path d="M339.926 61.7455C339.926 60.1535 339.372 58.7715 338.196 57.6635C337.088 56.5595 335.702 55.9355 334.108 55.9355C332.514 55.9355 331.13 56.4895 330.022 57.6635C328.914 58.7715 328.29 60.1535 328.29 61.7455C328.29 63.3375 328.844 64.7195 330.022 65.8235C331.13 66.9315 332.516 67.5515 334.108 67.5515C335.702 67.5515 337.088 67.0015 338.196 65.8235C339.304 64.7195 339.926 63.3355 339.926 61.7455Z" fill="#153814"/>
<path d="M257.854 61.7455C257.854 60.1535 257.3 58.7715 256.122 57.6635C255.014 56.5595 253.63 55.9355 252.036 55.9355C250.444 55.9355 249.058 56.4895 247.95 57.6635C246.842 58.7715 246.218 60.1535 246.218 61.7455C246.218 63.3375 246.772 64.7195 247.95 65.8235C249.058 66.9315 250.444 67.5515 252.036 67.5515C253.63 67.5515 255.014 67.0015 256.122 65.8235C257.232 64.7195 257.854 63.3355 257.854 61.7455Z" fill="#153814"/>
<path d="M175.78 61.7455C175.78 60.1535 175.228 58.7715 174.05 57.6635C172.942 56.5595 171.556 55.9355 169.964 55.9355C168.37 55.9355 166.984 56.4895 165.876 57.6635C164.768 58.7715 164.146 60.1535 164.146 61.7455C164.146 63.3375 164.7 64.7195 165.876 65.8235C166.986 66.9315 168.37 67.5515 169.964 67.5515C171.558 67.5515 172.942 67.0015 174.05 65.8235C175.158 64.7195 175.78 63.3355 175.78 61.7455Z" fill="#153814"/>
</svg>
