<svg width="770" height="812" viewBox="0 0 770 812" fill="none" xmlns="http://www.w3.org/2000/svg">
<path d="M196.612 376.736C168.455 376.736 142.384 372.217 118.399 363.179C94.4135 353.793 73.5566 340.758 55.8283 324.072C38.4476 307.039 24.8906 287.051 15.1574 264.109C5.4242 241.166 0.5576 215.964 0.5576 188.502C0.5576 161.041 5.4242 135.839 15.1574 112.896C24.8906 89.9538 38.6214 70.1398 56.3497 53.4543C74.078 36.4212 94.9349 23.3857 118.92 14.3477C142.906 4.96213 168.977 0.269337 197.133 0.269337C227.724 0.269337 255.533 5.65736 280.561 16.4334C305.937 26.8618 327.141 42.3307 344.174 62.8399L295.682 108.725C282.82 94.4728 268.394 83.8706 252.404 76.9183C236.414 69.6184 219.207 65.9684 200.783 65.9684C182.708 65.9684 166.196 68.9232 151.248 74.8326C136.301 80.7421 123.265 89.2586 112.142 100.382C101.018 111.158 92.3278 124.02 86.0707 138.967C80.1613 153.915 77.2066 170.427 77.2066 188.502C77.2066 206.578 80.1613 223.09 86.0707 238.038C92.3278 252.985 101.018 266.02 112.142 277.144C123.265 287.92 136.301 296.263 151.248 302.172C166.196 308.082 182.708 311.037 200.783 311.037C219.207 311.037 236.414 307.56 252.404 300.608C268.394 293.308 282.82 282.358 295.682 267.759L344.174 313.644C327.141 334.153 305.937 349.796 280.561 360.572C255.533 371.348 227.55 376.736 196.612 376.736ZM571.942 376.736C543.437 376.736 517.019 372.043 492.686 362.657C468.7 353.272 447.67 340.062 429.594 323.029C411.865 305.996 398.135 286.182 388.401 263.587C378.668 240.645 373.802 215.616 373.802 188.502C373.802 161.389 378.668 136.534 388.401 113.939C398.135 90.9967 411.865 71.0088 429.594 53.9757C447.67 36.9427 468.7 23.7333 492.686 14.3477C517.019 4.96213 543.437 0.269337 571.942 0.269337C600.446 0.269337 626.691 4.96213 650.676 14.3477C674.662 23.7333 695.519 36.9427 713.247 53.9757C731.323 70.6612 745.228 90.4753 754.961 113.418C764.694 136.36 769.561 161.389 769.561 188.502C769.561 215.616 764.694 240.645 754.961 263.587C745.228 286.53 731.323 306.518 713.247 323.551C695.519 340.236 674.662 353.272 650.676 362.657C626.691 372.043 600.446 376.736 571.942 376.736ZM571.942 311.037C589.323 311.037 605.313 308.082 619.913 302.172C634.512 296.263 647.2 287.92 657.976 277.144C669.1 266.02 677.617 252.985 683.526 238.038C689.783 223.09 692.912 206.578 692.912 188.502C692.912 170.427 689.783 153.915 683.526 138.967C677.617 124.02 669.1 111.158 657.976 100.382C647.2 89.2586 634.512 80.7421 619.913 74.8326C605.313 68.9232 589.323 65.9684 571.942 65.9684C554.561 65.9684 538.397 68.9232 523.45 74.8326C508.85 80.7421 495.988 89.2586 484.864 100.382C474.088 111.506 465.572 124.541 459.315 139.489C453.405 154.089 450.451 170.427 450.451 188.502C450.451 206.231 453.405 222.569 459.315 237.516C465.572 252.464 474.088 265.499 484.864 276.623C495.988 287.746 508.85 296.263 523.45 302.172C538.397 308.082 554.561 311.037 571.942 311.037ZM184.44 811.736C155.588 811.736 127.953 807.738 101.534 799.743C75.1154 791.748 53.9109 781.493 37.9207 768.979L64.5132 710.58C79.4606 722.051 97.7103 731.437 119.262 738.737C140.815 746.037 162.714 749.686 184.962 749.686C202.69 749.686 217.116 747.775 228.24 743.951C239.363 740.127 247.358 735.087 252.225 728.83C257.439 722.225 260.046 714.751 260.046 706.408C260.046 695.98 256.049 687.637 248.054 681.38C240.406 675.123 230.325 670.083 217.811 666.259C205.297 662.435 191.392 658.785 176.097 655.309C160.802 651.833 145.507 647.835 130.212 643.317C114.917 638.45 100.839 632.193 87.9771 624.545C75.463 616.898 65.2084 606.817 57.2133 594.303C49.5658 581.789 45.742 565.799 45.742 546.332C45.742 526.17 51.13 507.747 61.9061 491.061C73.0297 474.028 89.7152 460.471 111.963 450.391C134.21 440.31 162.367 435.269 196.433 435.269C218.68 435.269 240.754 438.05 262.653 443.612C284.553 449.174 303.846 457.169 320.531 467.597L296.546 525.997C279.86 516.263 262.827 509.137 245.446 504.618C228.413 499.752 211.728 497.318 195.39 497.318C178.009 497.318 163.757 499.404 152.633 503.576C141.51 507.747 133.515 513.309 128.648 520.261C123.781 526.866 121.348 534.339 121.348 542.682C121.348 553.111 125.172 561.453 132.819 567.71C140.815 573.967 151.069 579.008 163.583 582.832C176.097 586.308 190.002 589.784 205.297 593.26C220.592 596.736 235.887 600.908 251.182 605.774C266.477 610.293 280.382 616.376 292.896 624.024C305.758 631.324 316.012 641.231 323.66 653.745C331.655 665.911 335.652 681.554 335.652 700.673C335.652 720.834 330.091 739.258 318.967 755.944C308.191 772.629 291.505 786.186 268.91 796.614C246.663 806.695 218.506 811.736 184.44 811.736ZM585.315 811.736C557.159 811.736 531.088 807.217 507.102 798.179C483.117 788.793 462.26 775.758 444.532 759.072C427.151 742.039 413.594 722.051 403.861 699.109C394.128 676.166 389.261 650.964 389.261 623.502C389.261 596.041 394.128 570.839 403.861 547.896C413.594 524.954 427.325 505.14 445.053 488.454C462.781 471.421 483.638 458.386 507.624 449.348C531.609 439.962 557.68 435.269 585.837 435.269C616.427 435.269 644.236 440.657 669.264 451.433C694.64 461.862 715.845 477.331 732.878 497.84L684.386 543.725C671.524 529.473 657.098 518.871 641.108 511.918C625.117 504.618 607.91 500.968 589.487 500.968C571.411 500.968 554.899 503.923 539.952 509.833C525.004 515.742 511.969 524.259 500.845 535.382C489.722 546.158 481.031 559.02 474.774 573.967C468.865 588.915 465.91 605.427 465.91 623.502C465.91 641.578 468.865 658.09 474.774 673.038C481.031 687.985 489.722 701.02 500.845 712.144C511.969 722.92 525.004 731.263 539.952 737.172C554.899 743.082 571.411 746.037 589.487 746.037C607.91 746.037 625.117 742.56 641.108 735.608C657.098 728.308 671.524 717.358 684.386 702.759L732.878 748.644C715.845 769.153 694.64 784.796 669.264 795.572C644.236 806.348 616.253 811.736 585.315 811.736Z" fill="white"/>
</svg>
