<svg xmlns="http://www.w3.org/2000/svg" version="1.1" xmlns:xlink="http://www.w3.org/1999/xlink" xmlns:svgjs="http://svgjs.dev/svgjs" viewBox="0 0 800 800"><defs><linearGradient x1="50%" y1="0%" x2="50%" y2="100%" id="ffflurry-grad" gradientTransform="rotate(270)"><stop stop-color="hsl(118, 66%, 58%)" stop-opacity="1" offset="0%"></stop><stop stop-color="hsl(118, 41%, 15%)" stop-opacity="1" offset="45%"></stop><stop stop-color="hsl(300, 99%, 39%)" stop-opacity="1" offset="100%"></stop></linearGradient></defs><rect width="100%" height="100%" fill="hsl(118, 66%, 58%)"></rect><g fill="url(#ffflurry-grad)"><rect width="186" height="2" x="220" y="492" rx="1" transform="rotate(49, 313, 493)" opacity="0.64"></rect><rect width="140" height="2" x="258" y="363" rx="1" transform="rotate(49, 328, 364)" opacity="0.95"></rect><rect width="130" height="2" x="160" y="344" rx="1" transform="rotate(49, 225, 345)" opacity="0.64"></rect><rect width="76" height="2" x="162" y="266" rx="1" transform="rotate(49, 200, 267)" opacity="0.21"></rect><rect width="39" height="2" x="638.5" y="358" rx="1" transform="rotate(49, 658, 359)" opacity="0.60"></rect><rect width="153" height="2" x="690.5" y="701" rx="1" transform="rotate(49, 767, 702)" opacity="0.90"></rect><rect width="140" height="2" x="265" y="54" rx="1" transform="rotate(49, 335, 55)" opacity="0.89"></rect><rect width="54" height="2" x="677" y="39" rx="1" transform="rotate(49, 704, 40)" opacity="0.32"></rect><rect width="71" height="2" x="365.5" y="765" rx="1" transform="rotate(49, 401, 766)" opacity="0.25"></rect><rect width="216" height="2" x="7" y="624" rx="1" transform="rotate(49, 115, 625)" opacity="0.36"></rect><rect width="90" height="2" x="611" y="458" rx="1" transform="rotate(49, 656, 459)" opacity="0.17"></rect><rect width="63" height="2" x="651.5" y="760" rx="1" transform="rotate(49, 683, 761)" opacity="0.30"></rect><rect width="67" height="2" x="-13.5" y="456" rx="1" transform="rotate(49, 20, 457)" opacity="0.88"></rect><rect width="145" height="2" x="602.5" y="693" rx="1" transform="rotate(49, 675, 694)" opacity="0.14"></rect><rect width="75" height="2" x="613.5" y="619" rx="1" transform="rotate(49, 651, 620)" opacity="0.59"></rect><rect width="79" height="2" x="32.5" y="437" rx="1" transform="rotate(49, 72, 438)" opacity="0.66"></rect><rect width="52" height="2" x="736" y="120" rx="1" transform="rotate(49, 762, 121)" opacity="0.51"></rect><rect width="85" height="2" x="401.5" y="248" rx="1" transform="rotate(49, 444, 249)" opacity="0.13"></rect><rect width="121" height="2" x="483.5" y="517" rx="1" transform="rotate(49, 544, 518)" opacity="0.72"></rect><rect width="60" height="2" x="728" y="513" rx="1" transform="rotate(49, 758, 514)" opacity="0.28"></rect><rect width="40" height="2" x="576" y="478" rx="1" transform="rotate(49, 596, 479)" opacity="0.53"></rect><rect width="118" height="2" x="425" y="293" rx="1" transform="rotate(49, 484, 294)" opacity="0.36"></rect><rect width="161" height="2" x="426.5" y="739" rx="1" transform="rotate(49, 507, 740)" opacity="0.58"></rect><rect width="189" height="2" x="162.5" y="431" rx="1" transform="rotate(49, 257, 432)" opacity="0.39"></rect><rect width="73" height="2" x="110.5" y="51" rx="1" transform="rotate(49, 147, 52)" opacity="0.65"></rect><rect width="53" height="2" x="426.5" y="650" rx="1" transform="rotate(49, 453, 651)" opacity="0.99"></rect><rect width="157" height="2" x="672.5" y="595" rx="1" transform="rotate(49, 751, 596)" opacity="0.29"></rect><rect width="149" height="2" x="395.5" y="483" rx="1" transform="rotate(49, 470, 484)" opacity="0.96"></rect><rect width="66" height="2" x="641" y="284" rx="1" transform="rotate(49, 674, 285)" opacity="0.70"></rect><rect width="185" height="2" x="500.5" y="689" rx="1" transform="rotate(49, 593, 690)" opacity="0.95"></rect><rect width="95" height="2" x="154.5" y="757" rx="1" transform="rotate(49, 202, 758)" opacity="0.76"></rect><rect width="141" height="2" x="684.5" y="209" rx="1" transform="rotate(49, 755, 210)" opacity="0.75"></rect><rect width="184" height="2" x="390" y="39" rx="1" transform="rotate(49, 482, 40)" opacity="0.89"></rect><rect width="74" height="2" x="371" y="699" rx="1" transform="rotate(49, 408, 700)" opacity="0.94"></rect><rect width="169" height="2" x="224.5" y="276" rx="1" transform="rotate(49, 309, 277)" opacity="0.59"></rect><rect width="140" height="2" x="325" y="491" rx="1" transform="rotate(49, 395, 492)" opacity="0.37"></rect><rect width="90" height="2" x="526" y="256" rx="1" transform="rotate(49, 571, 257)" opacity="0.27"></rect><rect width="132" height="2" x="258" y="692" rx="1" transform="rotate(49, 324, 693)" opacity="0.49"></rect><rect width="76" height="2" x="217" y="700" rx="1" transform="rotate(49, 255, 701)" opacity="0.17"></rect><rect width="48" height="2" x="703" y="656" rx="1" transform="rotate(49, 727, 657)" opacity="0.27"></rect><rect width="236" height="2" x="465" y="98" rx="1" transform="rotate(49, 583, 99)" opacity="0.40"></rect><rect width="130" height="2" x="503" y="606" rx="1" transform="rotate(49, 568, 607)" opacity="0.95"></rect><rect width="70" height="2" x="328" y="570" rx="1" transform="rotate(49, 363, 571)" opacity="0.48"></rect><rect width="185" height="2" x="40.5" y="218" rx="1" transform="rotate(49, 133, 219)" opacity="0.66"></rect><rect width="72" height="2" x="470" y="607" rx="1" transform="rotate(49, 506, 608)" opacity="0.54"></rect><rect width="192" height="2" x="118" y="522" rx="1" transform="rotate(49, 214, 523)" opacity="0.66"></rect><rect width="259" height="2" x="-73.5" y="313" rx="1" transform="rotate(49, 56, 314)" opacity="0.96"></rect><rect width="114" height="2" x="705" y="274" rx="1" transform="rotate(49, 762, 275)" opacity="0.92"></rect><rect width="93" height="2" x="465.5" y="430" rx="1" transform="rotate(49, 512, 431)" opacity="0.37"></rect><rect width="40" height="2" x="194" y="592" rx="1" transform="rotate(49, 214, 593)" opacity="0.97"></rect><rect width="63" height="2" x="3.5" y="710" rx="1" transform="rotate(49, 35, 711)" opacity="0.12"></rect><rect width="163" height="2" x="586.5" y="139" rx="1" transform="rotate(49, 668, 140)" opacity="0.89"></rect><rect width="110" height="2" x="240" y="589" rx="1" transform="rotate(49, 295, 590)" opacity="0.92"></rect><rect width="208" height="2" x="-62" y="569" rx="1" transform="rotate(49, 42, 570)" opacity="0.35"></rect><rect width="87" height="2" x="113.5" y="407" rx="1" transform="rotate(49, 157, 408)" opacity="0.77"></rect><rect width="115" height="2" x="386.5" y="562" rx="1" transform="rotate(49, 444, 563)" opacity="0.13"></rect><rect width="101" height="2" x="708.5" y="769" rx="1" transform="rotate(49, 759, 770)" opacity="0.80"></rect><rect width="113" height="2" x="600.5" y="213" rx="1" transform="rotate(49, 657, 214)" opacity="0.70"></rect><rect width="94" height="2" x="251" y="765" rx="1" transform="rotate(49, 298, 766)" opacity="0.71"></rect><rect width="95" height="2" x="551.5" y="767" rx="1" transform="rotate(49, 599, 768)" opacity="0.62"></rect><rect width="101" height="2" x="700.5" y="333" rx="1" transform="rotate(49, 751, 334)" opacity="0.21"></rect><rect width="142" height="2" x="684" y="400" rx="1" transform="rotate(49, 755, 401)" opacity="0.60"></rect><rect width="64" height="2" x="687" y="455" rx="1" transform="rotate(49, 719, 456)" opacity="0.60"></rect><rect width="100" height="2" x="333" y="202" rx="1" transform="rotate(49, 383, 203)" opacity="0.99"></rect><rect width="178" height="2" x="309" y="390" rx="1" transform="rotate(49, 398, 391)" opacity="0.55"></rect><rect width="189" height="2" x="34.5" y="512" rx="1" transform="rotate(49, 129, 513)" opacity="0.44"></rect><rect width="206" height="2" x="376" y="140" rx="1" transform="rotate(49, 479, 141)" opacity="0.74"></rect><rect width="204" height="2" x="80" y="669" rx="1" transform="rotate(49, 182, 670)" opacity="0.91"></rect><rect width="50" height="2" x="561" y="383" rx="1" transform="rotate(49, 586, 384)" opacity="0.09"></rect><rect width="83" height="2" x="326.5" y="635" rx="1" transform="rotate(49, 368, 636)" opacity="0.65"></rect><rect width="31" height="2" x="240.5" y="642" rx="1" transform="rotate(49, 256, 643)" opacity="0.44"></rect><rect width="248" height="2" x="-65" y="130" rx="1" transform="rotate(49, 59, 131)" opacity="0.16"></rect><rect width="159" height="2" x="412.5" y="361" rx="1" transform="rotate(49, 492, 362)" opacity="0.52"></rect><rect width="96" height="2" x="228" y="151" rx="1" transform="rotate(49, 276, 152)" opacity="0.25"></rect><rect width="109" height="2" x="54.5" y="750" rx="1" transform="rotate(49, 109, 751)" opacity="0.42"></rect><rect width="152" height="2" x="572" y="547" rx="1" transform="rotate(49, 648, 548)" opacity="0.81"></rect></g></svg>