<svg width="1724" height="1818" viewBox="0 0 1724 1818" fill="none" xmlns="http://www.w3.org/2000/svg">
<path d="M440.011 843.848C376.94 843.848 318.541 833.725 264.813 813.48C211.086 792.457 164.367 763.257 124.655 725.881C85.7225 687.727 55.355 642.955 33.5526 591.563C11.7502 540.172 0.849033 483.719 0.849033 422.206C0.849033 360.692 11.7502 304.239 33.5526 252.848C55.355 201.457 86.1119 157.073 125.823 119.698C165.535 81.5435 212.254 52.3439 265.981 32.0989C319.709 11.0752 378.108 0.56334 441.179 0.56334C509.701 0.56334 571.993 12.6325 628.057 36.7709C684.898 60.1305 732.396 94.7807 770.551 140.721L661.928 243.504C633.118 211.579 600.804 187.83 564.985 172.257C529.167 155.905 490.624 147.729 449.355 147.729C408.865 147.729 371.879 154.348 338.396 167.585C304.914 180.822 275.715 199.899 250.798 224.816C225.881 248.955 206.414 277.765 192.398 311.247C179.161 344.729 172.543 381.715 172.543 422.206C172.543 462.696 179.161 499.682 192.398 533.164C206.414 566.646 225.881 595.846 250.798 620.763C275.715 644.901 304.914 663.589 338.396 676.826C371.879 690.063 408.865 696.682 449.355 696.682C490.624 696.682 529.167 688.895 564.985 673.322C600.804 656.97 633.118 632.443 661.928 599.739L770.551 702.522C732.396 748.462 684.898 783.502 628.057 807.64C571.993 831.779 509.311 843.848 440.011 843.848ZM1280.75 843.848C1216.9 843.848 1157.72 833.336 1103.22 812.312C1049.49 791.289 1002.38 761.7 961.89 723.545C922.179 685.391 891.422 641.008 869.619 590.395C847.817 539.004 836.916 482.941 836.916 422.206C836.916 361.47 847.817 305.796 869.619 255.184C891.422 203.793 922.179 159.02 961.89 120.866C1002.38 82.7116 1049.49 53.1226 1103.22 32.0989C1157.72 11.0752 1216.9 0.56334 1280.75 0.56334C1344.6 0.56334 1403.39 11.0752 1457.12 32.0989C1510.84 53.1226 1557.56 82.7116 1597.27 120.866C1637.76 158.241 1668.91 202.625 1690.71 254.016C1712.51 305.407 1723.42 361.47 1723.42 422.206C1723.42 482.941 1712.51 539.004 1690.71 590.395C1668.91 641.787 1637.76 686.559 1597.27 724.713C1557.56 762.089 1510.84 791.289 1457.12 812.312C1403.39 833.336 1344.6 843.848 1280.75 843.848ZM1280.75 696.682C1319.68 696.682 1355.5 690.063 1388.2 676.826C1420.91 663.589 1449.33 644.901 1473.47 620.763C1498.38 595.846 1517.46 566.646 1530.7 533.164C1544.71 499.682 1551.72 462.696 1551.72 422.206C1551.72 381.715 1544.71 344.729 1530.7 311.247C1517.46 277.765 1498.38 248.955 1473.47 224.816C1449.33 199.899 1420.91 180.822 1388.2 167.585C1355.5 154.348 1319.68 147.729 1280.75 147.729C1241.82 147.729 1205.61 154.348 1172.13 167.585C1139.42 180.822 1110.61 199.899 1085.7 224.816C1061.56 249.733 1042.48 278.933 1028.47 312.415C1015.23 345.119 1008.61 381.715 1008.61 422.206C1008.61 461.917 1015.23 498.514 1028.47 531.996C1042.48 565.478 1061.56 594.678 1085.7 619.595C1110.61 644.512 1139.42 663.589 1172.13 676.826C1205.61 690.063 1241.82 696.682 1280.75 696.682ZM412.746 1817.85C348.117 1817.85 286.214 1808.89 227.036 1790.98C167.859 1773.08 120.361 1750.1 84.5424 1722.07L144.11 1591.26C177.592 1616.95 218.471 1637.98 266.748 1654.33C315.025 1670.68 364.08 1678.86 413.914 1678.86C453.625 1678.86 485.94 1674.58 510.857 1666.01C535.774 1657.44 553.683 1646.15 564.584 1632.14C576.264 1617.34 582.104 1600.6 582.104 1581.92C582.104 1558.56 573.149 1539.87 555.24 1525.85C538.11 1511.84 515.529 1500.55 487.497 1491.98C459.465 1483.42 428.319 1475.24 394.058 1467.45C359.797 1459.67 325.536 1450.71 291.276 1440.59C257.015 1429.69 225.479 1415.67 196.669 1398.54C168.637 1381.41 145.667 1358.83 127.758 1330.8C110.627 1302.77 102.062 1266.95 102.062 1223.34C102.062 1178.18 114.131 1136.91 138.27 1099.54C163.187 1061.38 200.562 1031.02 250.396 1008.43C300.23 985.854 363.301 974.563 439.61 974.563C489.444 974.563 538.888 980.793 587.944 993.251C636.999 1005.71 680.214 1023.62 717.59 1046.98L663.862 1177.79C626.487 1155.99 588.333 1140.03 549.4 1129.91C511.246 1119 473.87 1113.55 437.274 1113.55C398.341 1113.55 366.416 1118.23 341.499 1127.57C316.582 1136.91 298.673 1149.37 287.772 1164.94C276.87 1179.74 271.42 1196.48 271.42 1215.17C271.42 1238.53 279.985 1257.22 297.116 1271.23C315.025 1285.25 337.995 1296.54 366.027 1305.1C394.058 1312.89 425.204 1320.68 459.465 1328.46C493.726 1336.25 527.987 1345.59 562.248 1356.49C596.509 1366.62 627.655 1380.24 655.687 1397.37C684.497 1413.73 707.467 1435.92 724.598 1463.95C742.507 1491.2 751.461 1526.24 751.461 1569.07C751.461 1614.23 739.003 1655.5 714.086 1692.87C689.947 1730.25 652.572 1760.62 601.959 1783.98C552.125 1806.56 489.054 1817.85 412.746 1817.85ZM1310.71 1817.85C1247.64 1817.85 1189.24 1807.73 1135.51 1787.48C1081.78 1766.46 1035.06 1737.26 995.351 1699.88C956.418 1661.73 926.051 1616.95 904.248 1565.56C882.446 1514.17 871.545 1457.72 871.545 1396.21C871.545 1334.69 882.446 1278.24 904.248 1226.85C926.051 1175.46 956.807 1131.07 996.519 1093.7C1036.23 1055.54 1082.95 1026.34 1136.68 1006.1C1190.4 985.075 1248.8 974.563 1311.87 974.563C1380.4 974.563 1442.69 986.633 1498.75 1010.77C1555.59 1034.13 1603.09 1068.78 1641.25 1114.72L1532.62 1217.5C1503.81 1185.58 1471.5 1161.83 1435.68 1146.26C1399.86 1129.91 1361.32 1121.73 1320.05 1121.73C1279.56 1121.73 1242.57 1128.35 1209.09 1141.59C1175.61 1154.82 1146.41 1173.9 1121.49 1198.82C1096.58 1222.95 1077.11 1251.76 1063.09 1285.25C1049.86 1318.73 1043.24 1355.72 1043.24 1396.21C1043.24 1436.7 1049.86 1473.68 1063.09 1507.16C1077.11 1540.65 1096.58 1569.85 1121.49 1594.76C1146.41 1618.9 1175.61 1637.59 1209.09 1650.83C1242.57 1664.06 1279.56 1670.68 1320.05 1670.68C1361.32 1670.68 1399.86 1662.9 1435.68 1647.32C1471.5 1630.97 1503.81 1606.44 1532.62 1573.74L1641.25 1676.52C1603.09 1722.46 1555.59 1757.5 1498.75 1781.64C1442.69 1805.78 1380.01 1817.85 1310.71 1817.85Z" fill="#404040"/>
</svg>
