<svg width="1734" height="2164" viewBox="0 0 1734 2164" fill="none" xmlns="http://www.w3.org/2000/svg">
<path d="M116.294 937.188C36.8242 937.188 -36.7588 924.434 -104.455 898.925C-172.151 872.435 -231.018 835.644 -281.054 788.551C-330.11 740.476 -368.373 684.063 -395.844 619.31C-423.315 554.557 -437.05 483.426 -437.05 405.919C-437.05 328.412 -423.315 257.281 -395.844 192.528C-368.373 127.775 -329.619 71.8522 -279.583 24.7591C-229.546 -23.3152 -170.68 -60.1067 -102.983 -85.6154C-35.2871 -112.105 38.2959 -125.35 117.766 -125.35C204.103 -125.35 282.591 -110.143 353.231 -79.7288C424.852 -50.2956 484.699 -6.63634 532.774 51.249L395.909 180.755C359.608 140.53 318.892 110.606 273.762 90.9838C228.631 70.3805 180.066 60.0789 128.067 60.0789C77.0496 60.0789 30.4471 68.4183 -11.7405 85.0971C-53.9281 101.776 -90.7196 125.813 -122.115 157.208C-153.51 187.623 -178.038 223.924 -195.698 266.111C-212.377 308.299 -220.716 354.901 -220.716 405.919C-220.716 456.937 -212.377 503.539 -195.698 545.727C-178.038 587.914 -153.51 624.706 -122.115 656.101C-90.7196 686.516 -53.9281 710.062 -11.7405 726.741C30.4471 743.42 77.0496 751.759 128.067 751.759C180.066 751.759 228.631 741.948 273.762 722.326C318.892 701.723 359.608 670.818 395.909 629.611L532.774 759.117C484.699 817.003 424.852 861.152 353.231 891.567C282.591 921.981 203.612 937.188 116.294 937.188ZM1175.62 937.188C1095.17 937.188 1020.61 923.943 951.932 897.453C884.236 870.964 824.879 833.682 773.861 785.607C723.825 737.533 685.071 681.61 657.6 617.838C630.129 553.085 616.394 482.445 616.394 405.919C616.394 329.393 630.129 259.244 657.6 195.472C685.071 130.719 723.825 74.305 773.861 26.2307C824.879 -21.8435 884.236 -59.1255 951.932 -85.6154C1020.61 -112.105 1095.17 -125.35 1175.62 -125.35C1256.08 -125.35 1330.15 -112.105 1397.85 -85.6154C1465.54 -59.1255 1524.41 -21.8435 1574.44 26.2307C1625.46 73.3239 1664.71 129.247 1692.18 194C1719.65 258.753 1733.38 329.393 1733.38 405.919C1733.38 482.445 1719.65 553.085 1692.18 617.838C1664.71 682.591 1625.46 739.005 1574.44 787.079C1524.41 834.172 1465.54 870.964 1397.85 897.453C1330.15 923.943 1256.08 937.188 1175.62 937.188ZM1175.62 751.759C1224.68 751.759 1269.81 743.42 1311.02 726.741C1352.22 710.062 1388.03 686.516 1418.45 656.101C1449.84 624.706 1473.88 587.914 1490.56 545.727C1508.22 503.539 1517.05 456.937 1517.05 405.919C1517.05 354.901 1508.22 308.299 1490.56 266.111C1473.88 223.924 1449.84 187.623 1418.45 157.208C1388.03 125.813 1352.22 101.776 1311.02 85.0971C1269.81 68.4183 1224.68 60.0789 1175.62 60.0789C1126.57 60.0789 1080.95 68.4183 1038.76 85.0971C997.554 101.776 961.253 125.813 929.857 157.208C899.443 188.604 875.406 225.395 857.746 267.583C841.067 308.789 832.728 354.901 832.728 405.919C832.728 455.955 841.067 502.067 857.746 544.255C875.406 586.443 899.443 623.234 929.857 654.63C961.253 686.025 997.554 710.062 1038.76 726.741C1080.95 743.42 1126.57 751.759 1175.62 751.759ZM81.9398 2163.19C0.507924 2163.19 -77.49 2151.91 -152.054 2129.34C-226.618 2106.77 -286.466 2077.83 -331.597 2042.51L-256.542 1877.69C-214.354 1910.06 -162.846 1936.55 -102.018 1957.16C-41.1891 1977.76 20.6206 1988.06 83.4114 1988.06C133.448 1988.06 174.164 1982.66 205.559 1971.87C236.955 1961.08 259.52 1946.85 273.256 1929.19C287.972 1910.55 295.33 1889.46 295.33 1865.91C295.33 1836.48 284.048 1812.93 261.482 1795.27C239.898 1777.61 211.446 1763.39 176.126 1752.6C140.806 1741.8 101.562 1731.5 58.3932 1721.69C15.2245 1711.88 -27.9442 1700.6 -71.1129 1687.84C-114.282 1674.11 -154.016 1656.45 -190.317 1634.86C-225.637 1613.28 -254.58 1584.83 -277.145 1549.51C-298.73 1514.19 -309.522 1469.06 -309.522 1414.11C-309.522 1357.21 -294.315 1305.21 -263.9 1258.12C-232.505 1210.04 -185.412 1171.78 -122.621 1143.33C-59.8301 1114.88 19.6395 1100.65 115.788 1100.65C178.579 1100.65 240.879 1108.5 302.689 1124.2C364.498 1139.89 418.95 1162.46 466.043 1191.89L398.347 1356.72C351.254 1329.25 303.179 1309.13 254.124 1296.38C206.05 1282.65 158.957 1275.78 112.845 1275.78C63.7893 1275.78 23.5639 1281.66 -7.83148 1293.44C-39.2269 1305.21 -61.7923 1320.91 -75.5278 1340.53C-89.2633 1359.17 -96.1311 1380.27 -96.1311 1403.81C-96.1311 1433.24 -85.3389 1456.79 -63.7546 1474.45C-41.1891 1492.11 -12.2465 1506.34 23.0734 1517.13C58.3932 1526.94 97.6375 1536.75 140.806 1546.56C183.975 1556.37 227.144 1568.15 270.312 1581.88C313.481 1594.64 352.725 1611.81 388.045 1633.39C424.346 1653.99 453.289 1681.96 474.873 1717.28C497.438 1751.61 508.721 1795.76 508.721 1849.72C508.721 1906.63 493.024 1958.63 461.628 2005.72C431.214 2052.81 384.121 2091.08 320.349 2120.51C257.558 2148.96 178.088 2163.19 81.9398 2163.19ZM1213.37 2163.19C1133.9 2163.19 1060.32 2150.43 992.621 2124.93C924.925 2098.44 866.059 2061.64 816.022 2014.55C766.967 1966.48 728.704 1910.06 701.233 1845.31C673.762 1780.56 660.026 1709.43 660.026 1631.92C660.026 1554.41 673.762 1483.28 701.233 1418.53C728.704 1353.78 767.457 1297.85 817.494 1250.76C867.53 1202.68 926.397 1165.89 994.093 1140.38C1061.79 1113.89 1135.37 1100.65 1214.84 1100.65C1301.18 1100.65 1379.67 1115.86 1450.31 1146.27C1521.93 1175.7 1581.78 1219.36 1629.85 1277.25L1492.99 1406.76C1456.68 1366.53 1415.97 1336.61 1370.84 1316.98C1325.71 1296.38 1277.14 1286.08 1225.14 1286.08C1174.13 1286.08 1127.52 1294.42 1085.34 1311.1C1043.15 1327.78 1006.36 1351.81 974.961 1383.21C943.566 1413.62 919.038 1449.92 901.378 1492.11C884.7 1534.3 876.36 1580.9 876.36 1631.92C876.36 1682.94 884.7 1729.54 901.378 1771.73C919.038 1813.91 943.566 1850.71 974.961 1882.1C1006.36 1912.52 1043.15 1936.06 1085.34 1952.74C1127.52 1969.42 1174.13 1977.76 1225.14 1977.76C1277.14 1977.76 1325.71 1967.95 1370.84 1948.33C1415.97 1927.72 1456.68 1896.82 1492.99 1855.61L1629.85 1985.12C1581.78 2043 1521.93 2087.15 1450.31 2117.57C1379.67 2147.98 1300.69 2163.19 1213.37 2163.19Z" fill="#474747" fill-opacity="0.47"/>
</svg>
