<svg xmlns="http://www.w3.org/2000/svg" version="1.1" xmlns:xlink="http://www.w3.org/1999/xlink" xmlns:svgjs="http://svgjs.dev/svgjs" viewBox="0 0 1422 800"><defs><filter id="llleaves-blur-2" x="-100%" y="-100%" width="400%" height="400%"><feGaussianBlur in="SourceGraphic" stdDeviation="2"></feGaussianBlur></filter><filter id="llleaves-blur-3" x="-100%" y="-100%" width="400%" height="400%"><feGaussianBlur in="SourceGraphic" stdDeviation="4"></feGaussianBlur></filter><filter id="llleaves-blur-4" x="-100%" y="-100%" width="400%" height="400%"><feGaussianBlur in="SourceGraphic" stdDeviation="12"></feGaussianBlur></filter></defs><g fill="hsl(305, 77%, 40%)"><path d="M221 13H271C299 13 321 35 321 63H271C243 63 221 41 221 13Z " transform="matrix(0.22366056601413573,-0.5023498561399798,0.5023498561399798,0.22366056601413573,191.29869207685,165.6377095053974)" opacity="0.85"></path><path d="M1325 131H1375C1403 131 1425 153 1425 181H1375C1347 181 1325 159 1325 131Z " transform="matrix(-0.3692750453533161,-0.19634702449157854,0.19634702449157854,-0.3692750453533161,1852.1230515401235,483.5840657510378)" opacity="0.64"></path><path d="M1163 726H1213C1241 726 1263 748 1263 776H1213C1185 776 1163 754 1163 726Z " transform="matrix(-0.31331983566028837,-0.3133198356602883,0.3133198356602883,-0.31331983566028837,1357.7537640750534,1366.3601572368061)" opacity="0.68"></path><path d="M799 219H849C877 219 899 241 899 269H849C821 269 799 247 799 219Z " transform="matrix(-0.381600425896768,-0.13139556387935394,0.13139556387935394,-0.381600425896768,1140.9182439997935,448.66533765238285)" opacity="0.62"></path><path d="M280 673H330C358 673 380 695 380 723H330C302 723 280 701 280 673Z " transform="matrix(0.01800767026109269,-0.5156722066318726,0.5156722066318726,0.01800767026109269,-35.881731415207696,855.6024743462752)" opacity="0.79"></path><path d="M378 648H428C456 648 478 670 478 698H428C400 698 378 676 378 648Z " transform="matrix(-0.14218084701615338,-0.46505259576107766,0.46505259576107766,-0.14218084701615338,175.8730055757084,967.7302210276125)" opacity="0.75"></path><path d="M549 90H599C627 90 649 112 649 140H599C571 140 549 118 549 90Z " transform="matrix(-0.2635145295403076,-0.37633775011057596,0.37633775011057596,-0.2635145295403076,713.566361931928,370.73048321337035)" opacity="0.71"></path><path d="M0 733H50C78 733 100 755 100 783H50C22 783 0 761 0 733Z " transform="matrix(-0.38354347218791357,-0.10997932088779581,0.10997932088779581,-0.38354347218791357,-14.187151623553547,1054.2249179628284)" filter="url(#llleaves-blur-2)" opacity="0.61"></path><path d="M1242 28H1292C1320 28 1342 50 1342 78H1292C1264 78 1242 56 1242 28Z " transform="matrix(-0.15720274501124787,-0.4565499220621648,0.4565499220621648,-0.15720274501124787,1470.9088006852376,651.1942447899131)" opacity="0.74"></path><path d="M1034 379H1084C1112 379 1134 401 1134 429H1084C1056 429 1034 407 1034 379Z " transform="matrix(-0.2745200071328641,-0.3643003538968653,0.3643003538968653,-0.2745200071328641,1234.402344757691,909.8076665058791)" opacity="0.70"></path><path d="M83 218H133C161 218 183 240 183 268H133C105 268 83 246 83 218Z " transform="matrix(-0.2392307108541091,-0.3981467636226228,0.3981467636226228,-0.2392307108541091,68.06802098329916,354.08658229935736)" opacity="0.71"></path><path d="M242 507H292C320 507 342 529 342 557H292C264 557 242 535 242 507Z " transform="matrix(0.045309450583732695,-0.5178893899814468,0.5178893899814468,0.045309450583732695,3.2524849594203715,659.1190741640368)" opacity="0.80"></path><path d="M653 736H703C731 736 753 758 753 786H703C675 786 653 764 653 736Z " transform="matrix(-0.381757922797994,-0.04012437453229615,0.04012437453229615,-0.381757922797994,940.8411707079125,1079.7252145454777)" filter="url(#llleaves-blur-2)" opacity="0.59"></path><path d="M1130 153H1180C1208 153 1230 175 1230 203H1180C1152 203 1130 181 1130 153Z " transform="matrix(-0.29472517239524904,-0.33904252713625976,0.33904252713625976,-0.29472517239524904,1467.4261335961396,630.5312627071407)" opacity="0.69"></path><path d="M-5 148H45C73 148 95 170 95 198H45C17 198 -5 176 -5 148Z " transform="matrix(-0.38275577596076293,-0.11702018421672224,0.11702018421672224,-0.38275577596076293,41.97951804874138,244.4826575309645)" opacity="0.61"></path><path d="M694 222H744C772 222 794 244 794 272H744C716 272 694 250 694 222Z " transform="matrix(-0.3824459686872799,-0.04695846033435377,0.04695846033435377,-0.3824459686872799,1016.9410610007509,376.4012487545174)" filter="url(#llleaves-blur-2)" opacity="0.59"></path><path d="M349 365H399C427 365 449 387 449 415H399C371 415 349 393 349 365Z " transform="matrix(-0.07801537004553528,-0.4925696607929318,0.4925696607929318,-0.07801537004553528,238.0259649389252,616.9612889741386)" opacity="0.77"></path><path d="M78 107H128C156 107 178 129 178 157H128C100 157 78 135 78 107Z " transform="matrix(-0.20744894557337357,-0.42533337004066174,0.42533337004066174,-0.20744894557337357,98.40946018802447,213.82593218089005)" opacity="0.73"></path><path d="M139 317H189C217 317 239 339 239 367H189C161 367 139 345 139 317Z " transform="matrix(-0.08629258909856244,-0.4893895917224185,0.4893895917224185,-0.08629258909856244,37.938058970561144,464.0066983072455)" opacity="0.76"></path><path d="M592 227H642C670 227 692 249 692 277H642C614 277 592 255 592 227Z " transform="matrix(-0.38514371639217543,-0.08186482410513483,0.08186482410513483,-0.38514371639217543,868.6323302492826,401.61343360632486)" filter="url(#llleaves-blur-2)" opacity="0.60"></path><path d="M960 551H1010C1038 551 1060 573 1060 601H1010C982 601 960 579 960 551Z " transform="matrix(-0.29527672650909537,-0.3396770175637014,0.3396770175637014,-0.29527672650909537,1112.5755316574946,1089.1531822085774)" opacity="0.69"></path><path d="M993 195H1043C1071 195 1093 217 1093 245H1043C1015 245 993 223 993 195Z " transform="matrix(-0.2795930547511461,-0.35786279084803096,0.35786279084803096,-0.2795930547511461,1255.8857421188786,654.7613628997485)" opacity="0.70"></path><path d="M415 540H465C493 540 515 562 515 590H465C437 590 415 568 415 540Z " transform="matrix(-0.20702106035283946,-0.4244560753292457,0.4244560753292457,-0.20702106035283946,321.44711050304653,879.3389741274536)" opacity="0.73"></path><path d="M551 730H601C629 730 651 752 651 780H601C573 780 551 758 551 730Z " transform="matrix(-0.38311932333559057,-0.12448301415915684,0.12448301415915684,-0.38311932333559057,737.2700376345265,1119.0693806280242)" opacity="0.62"></path><path d="M691 29H741C769 29 791 51 791 79H741C713 79 691 57 691 29Z " transform="matrix(-0.13446792498812588,-0.4689453838369066,0.4689453838369066,-0.13446792498812588,815.3176816890083,408.7497973725066)" opacity="0.75"></path><path d="M1073 731H1123C1151 731 1173 753 1173 781H1123C1095 781 1073 759 1073 731Z " transform="matrix(-0.2744189379380003,-0.364166230545196,0.364166230545196,-0.2744189379380003,1155.862797012206,1372.4193939833835)" opacity="0.70"></path><path d="M1311 232H1361C1389 232 1411 254 1411 282H1361C1333 282 1311 260 1311 232Z " transform="matrix(-0.38063135516692914,-0.13853848350916925,0.13853848350916925,-0.38063135516692914,1843.4348841203341,543.3731343338802)" opacity="0.62"></path><path d="M1324 521H1374C1402 521 1424 543 1424 571H1374C1346 571 1324 549 1324 521Z " transform="matrix(-0.38321142173144285,-0.11715948910869596,0.11715948910869596,-0.38321142173144285,1836.5634124056542,916.2105743007162)" opacity="0.61"></path><path d="M345 737H395C423 737 445 759 445 787H395C367 787 345 765 345 737Z " transform="matrix(-0.07801537004553528,-0.4925696607929318,0.4925696607929318,-0.07801537004553528,50.47798964377239,1016.0127279879059)" opacity="0.77"></path><path d="M1137 628H1187C1215 628 1237 650 1237 678H1187C1159 678 1137 656 1137 628Z " transform="matrix(-0.31331983566028837,-0.3133198356602883,0.3133198356602883,-0.31331983566028837,1354.312792242594,1229.5084976149305)" opacity="0.68"></path><path d="M1323 422H1373C1401 422 1423 444 1423 472H1373C1345 472 1323 450 1323 422Z " transform="matrix(-0.38321142173144285,-0.11715948910869596,0.11715948910869596,-0.38321142173144285,1846.778990405684,779.1554840601945)" opacity="0.61"></path><path d="M1196 242H1246C1274 242 1296 264 1296 292H1246C1218 292 1196 270 1196 242Z " transform="matrix(-0.35438044347721376,-0.23903262732777672,0.23903262732777672,-0.35438044347721376,1623.736321076092,659.4542320588259)" opacity="0.66"></path><path d="M1137 416H1187C1215 416 1237 438 1237 466H1187C1159 466 1137 444 1137 416Z " transform="matrix(-0.31331983566028837,-0.3133198356602883,0.3133198356602883,-0.31331983566028837,1420.7365974025752,951.0846924549494)" opacity="0.68"></path><path d="M165 677H215C243 677 265 699 265 727H215C187 727 165 705 165 677Z " transform="matrix(-0.026604306707119097,-0.5076404127607793,0.5076404127607793,-0.026604306707119097,-135.6436438160365,829.8189120519652)" opacity="0.78"></path><path d="M1231 555H1281C1309 555 1331 577 1331 605H1281C1253 605 1231 583 1231 555Z " transform="matrix(-0.36659727951493987,-0.20320819027309187,0.20320819027309187,-0.36659727951493987,1632.750364700245,1052.936113858496)" opacity="0.64"></path><path d="M444 105H494C522 105 544 127 544 155H494C466 155 444 133 444 105Z " transform="matrix(-0.14224732198398543,-0.46527002558367475,0.46527002558367475,-0.14224732198398543,503.7850737342111,378.33554449625353)" opacity="0.75"></path><path d="M76 503H126C154 503 176 525 176 553H126C98 553 76 531 76 503Z " transform="matrix(-0.2392307108541091,-0.3981467636226228,0.3981467636226228,-0.2392307108541091,-54.07842162512708,704.4803075474201)" opacity="0.71"></path><path d="M975 304H1025C1053 304 1075 326 1075 354H1025C997 354 975 332 975 304Z " transform="matrix(-0.29527672650909537,-0.3396770175637014,0.3396770175637014,-0.29527672650909537,1215.9049058933651,774.3149860242863)" opacity="0.69"></path><path d="M162 527H212C240 527 262 549 262 577H212C184 577 162 555 162 527Z " transform="matrix(-0.026604306707119097,-0.5076404127607793,0.5076404127607793,-0.026604306707119097,-62.57739482204096,674.3053448076149)" opacity="0.78"></path><path d="M458 620H508C536 620 558 642 558 670H508C480 670 458 648 458 620Z " transform="matrix(-0.31805606743693965,-0.3071431740831344,0.3071431740831344,-0.31805606743693965,471.46513497434364,1006.1748959310582)" opacity="0.68"></path><path d="M329 500H379C407 500 429 522 429 550H379C351 550 329 528 329 500Z " transform="matrix(-0.01775690010186959,-0.5084910888365576,0.5084910888365576,-0.01775690010186959,118.77204349941582,727.0404952225368)" opacity="0.78"></path><path d="M1070 18H1120C1148 18 1170 40 1170 68H1120C1092 68 1070 46 1070 18Z " transform="matrix(0.157229386696393,-0.5142741511785526,0.5142741511785526,0.157229386696393,921.7892983993621,612.2261856920339)" opacity="0.83"></path><path d="M277 308H327C355 308 377 330 377 358H327C299 358 277 336 277 308Z " transform="matrix(0.01800767026109269,-0.5156722066318726,0.5156722066318726,0.01800767026109269,149.39264701620914,495.6282573716785)" opacity="0.79"></path><path d="M704 576H754C782 576 804 598 804 626H754C726 626 704 604 704 576Z " transform="matrix(-0.3824459686872799,-0.04695846033435377,0.04695846033435377,-0.3824459686872799,1014.1422257292625,866.2567062731581)" filter="url(#llleaves-blur-2)" opacity="0.59"></path><path d="M523 168H573C601 168 623 190 623 218H573C545 218 523 196 523 168Z " transform="matrix(-0.37235087463962635,-0.18160765594274733,0.18160765594274733,-0.37235087463962635,751.3067735715556,368.92490566064214)" opacity="0.64"></path><path d="M1055 572H1105C1133 572 1155 594 1155 622H1105C1077 622 1055 600 1055 572Z " transform="matrix(-0.2744189379380003,-0.364166230545196,0.364166230545196,-0.2744189379380003,1190.8256867860084,1163.2317907014276)" opacity="0.70"></path><path d="M467 235H517C545 235 567 257 567 285H517C489 285 467 263 467 235Z " transform="matrix(-0.31805606743693965,-0.3071431740831344,0.3071431740831344,-0.31805606743693965,601.5777616032829,501.48759853458483)" opacity="0.68"></path><path d="M765 735H815C843 735 865 757 865 785H815C787 785 765 763 765 735Z " transform="matrix(-0.3842575470011636,-0.09580616677121967,0.09580616677121967,-0.3842575470011636,1055.3572140598214,1130.1177616394284)" filter="url(#llleaves-blur-2)" opacity="0.61"></path><path d="M634 313H684C712 313 734 335 734 363H684C656 363 634 341 634 313Z " transform="matrix(-0.381757922797994,-0.04012437453229615,0.04012437453229615,-0.381757922797994,931.5603806019118,494.4792500858125)" filter="url(#llleaves-blur-2)" opacity="0.59"></path><path d="M786 526H836C864 526 886 548 886 576H836C808 576 786 554 786 526Z " transform="matrix(-0.381600425896768,-0.13139556387935394,0.13139556387935394,-0.381600425896768,1082.619000352174,871.1085260722591)" opacity="0.62"></path></g><g fill="none" stroke-width="3" stroke="hsl(305, 77%, 40%)"><path d="M393 21H443C471 21 493 43 493 71H443C415 71 393 49 393 21Z " transform="matrix(0.12930510793633107,-0.5186144615198317,0.5186144615198317,0.12930510793633107,361.8615719542931,269.7981714882142)" opacity="0.82"></path><path d="M208 363H258C286 363 308 385 308 413H258C230 413 208 391 208 363Z " transform="matrix(0.018009778987664884,-0.5157325926600984,0.5157325926600984,0.018009778987664884,53.24923106906428,514.0712146590914)" opacity="0.79"></path><path d="M58 308H108C136 308 158 330 158 358H108C80 358 58 336 58 308Z " transform="matrix(-0.31420638582719274,-0.3142063858271926,0.3142063858271926,-0.31420638582719274,37.30356318888168,471.565016149792)" opacity="0.68"></path><path d="M1250 734H1300C1328 734 1350 756 1350 784H1300C1272 784 1250 762 1250 734Z " transform="matrix(-0.36659727951493987,-0.20320819027309187,0.20320819027309187,-0.36659727951493987,1622.3414469521451,1301.4179825068588)" opacity="0.64"></path><path d="M313 585H363C391 585 413 607 413 635H363C335 635 313 613 313 585Z " transform="matrix(-0.01775690010186959,-0.5084910888365576,0.5084910888365576,-0.01775690010186959,59.26619054667856,805.4139743098108)" opacity="0.78"></path><path d="M871 487H921C949 487 971 509 971 537H921C893 537 871 515 871 487Z " transform="matrix(-0.35140478793004376,-0.2460562814716009,0.2460562814716009,-0.35140478793004376,1118.6629935701108,918.5370866555268)" opacity="0.66"></path><path d="M937 648H987C1015 648 1037 670 1037 698H987C959 698 937 676 937 648Z " transform="matrix(-0.3141401519145953,-0.3141401519145952,0.3141401519145952,-0.3141401519145953,1085.640007701183,1194.4726521782281)" opacity="0.68"></path><path d="M601 452H651C679 452 701 474 701 502H651C623 502 601 480 601 452Z " transform="matrix(-0.38514371639217543,-0.08186482410513483,0.08186482410513483,-0.38514371639217543,862.6790382731568,714.0075532115104)" filter="url(#llleaves-blur-2)" opacity="0.60"></path><path d="M64 653H114C142 653 164 675 164 703H114C86 703 64 681 64 653Z " transform="matrix(-0.31420638582719274,-0.3142063858271926,0.3142063858271926,-0.31420638582719274,-63.212401606536616,926.8514575751365)" opacity="0.68"></path><path d="M-15 38H35C63 38 85 60 85 88H35C7 88 -15 66 -15 38Z " transform="matrix(-0.3830536547302077,-0.12446167713584379,0.12446167713584379,-0.3830536547302077,40.565792255999106,91.48853894775762)" opacity="0.62"></path><path d="M200 245H250C278 245 300 267 300 295H250C222 295 200 273 200 245Z " transform="matrix(0.018009778987664884,-0.5157325926600984,0.5157325926600984,0.018009778987664884,106.24975523485722,394.07050783835507)" opacity="0.79"></path><path d="M613 545H663C691 545 713 567 713 595H663C635 595 613 573 613 545Z " transform="matrix(-0.38359330364447924,-0.053910523080443036,0.053910523080443036,-0.38359330364447924,886.5933621604372,824.3908598796868)" filter="url(#llleaves-blur-2)" opacity="0.59"></path><path d="M850 312H900C928 312 950 334 950 362H900C872 362 850 340 850 312Z " transform="matrix(-0.36412272030944914,-0.21022635058871936,0.21022635058871936,-0.36412272030944914,1156.8641681301058,648.9130722741318)" opacity="0.65"></path><path d="M134 22H184C212 22 234 44 234 72H184C156 72 134 50 134 22Z " transform="matrix(0.03620135958242713,-0.5177035614275113,0.5177035614275113,0.03620135958242713,153.00688244974037,140.55599140228802)" opacity="0.80"></path><path d="M152 166H202C230 166 252 188 252 216H202C174 216 152 194 152 166Z " transform="matrix(-0.08629258909856244,-0.4893895917224185,0.4893895917224185,-0.08629258909856244,125.95769097892769,306.338582045754)" opacity="0.76"></path><path d="M395 183H445C473 183 495 205 495 233H445C417 233 395 211 395 183Z " transform="matrix(-0.20702106035283946,-0.4244560753292457,0.4244560753292457,-0.20702106035283946,448.8375081885305,439.9433340749049)" opacity="0.73"></path><path d="M969 735H1019C1047 735 1069 757 1069 785H1019C991 785 969 763 969 735Z " transform="matrix(-0.29527672650909537,-0.3396770175637014,0.3396770175637014,-0.29527672650909537,1061.7324509643552,1330.5411930443242)" opacity="0.69"></path><path d="M1052 480H1102C1130 480 1152 502 1152 530H1102C1074 530 1052 508 1052 480Z " transform="matrix(-0.2744189379380003,-0.364166230545196,0.364166230545196,-0.2744189379380003,1220.5057231823523,1044.8927497194961)" opacity="0.70"></path><path d="M599 19H649C677 19 699 41 699 69H649C621 69 599 47 599 19Z " transform="matrix(-0.17929159971553923,-0.44376228138390766,0.44376228138390766,-0.17929159971553923,745.834707834493,339.8905510056398)" opacity="0.74"></path><path d="M743 126H793C821 126 843 148 843 176H793C765 176 743 154 743 126Z " transform="matrix(-0.36637563284518854,-0.20308532951782432,0.20308532951782432,-0.36637563284518854,1052.8699920890429,367.3693868672582)" opacity="0.64"></path><path d="M301 28H351C379 28 401 50 401 78H351C323 78 301 56 301 28Z " transform="matrix(0.24204332393357283,-0.4962623568896264,0.4962623568896264,0.24204332393357283,239.74088838416571,214.35979109977947)" opacity="0.85"></path><path d="M1332 722H1382C1410 722 1432 744 1432 772H1382C1354 772 1332 750 1332 722Z " transform="matrix(-0.38321142173144285,-0.11715948910869596,0.11715948910869596,-0.38321142173144285,1824.080046468658,1195.1733459816055)" opacity="0.61"></path><path d="M1155 39H1205C1233 39 1255 61 1255 89H1205C1177 89 1155 67 1155 39Z " transform="matrix(-0.017755405394493152,-0.5084482860175421,0.5084482860175421,-0.017755405394493152,1193.8545731952415,677.8165305963857)" opacity="0.78"></path><path d="M449 361H499C527 361 549 383 549 411H499C471 411 449 389 449 361Z " transform="matrix(-0.26878469196774973,-0.3699503905238241,0.3699503905238241,-0.26878469196774973,490.322710549711,674.3561359709396)" opacity="0.70"></path><path d="M225 740H275C303 740 325 762 325 790H275C247 790 225 768 225 740Z " transform="matrix(0.045309450583732695,-0.5178893899814468,0.5178893899814468,0.045309450583732695,-133.64548224633336,872.7578525483424)" opacity="0.80"></path><path d="M939 114H989C1017 114 1039 136 1039 164H989C961 164 939 142 939 114Z " transform="matrix(-0.06970462965269245,-0.4959742113407742,0.4959742113407742,-0.06970462965269245,988.9974633501452,639.2074385377499)" opacity="0.77"></path><path d="M701 479H751C779 479 801 501 801 529H751C723 529 701 507 701 479Z " transform="matrix(-0.3824459686872799,-0.04695846033435377,0.04695846033435377,-0.3824459686872799,1014.5498584756328,732.0185719294888)" filter="url(#llleaves-blur-2)" opacity="0.59"></path><path d="M522 298H572C600 298 622 320 622 348H572C544 348 522 326 522 298Z " transform="matrix(-0.37235087463962635,-0.18160765594274733,0.18160765594274733,-0.37235087463962635,726.3254274243588,547.1489117078509)" opacity="0.64"></path><path d="M251 150H301C329 150 351 172 351 200H301C273 200 251 178 251 150Z " transform="matrix(0.10097688193463815,-0.5194810234770042,0.5194810234770042,0.10097688193463815,179.6967794291982,313.6928337280166)" opacity="0.81"></path><path d="M1230 452H1280C1308 452 1330 474 1330 502H1280C1252 502 1230 480 1230 452Z " transform="matrix(-0.36659727951493987,-0.20320819027309187,0.20320819027309187,-0.36659727951493987,1652.3142110188583,911.9733858781839)" opacity="0.64"></path><path d="M793 412H843C871 412 893 434 893 462H843C815 462 793 440 793 412Z " transform="matrix(-0.381600425896768,-0.13139556387935394,0.13139556387935394,-0.381600425896768,1107.2692976156977,714.525846467183)" opacity="0.62"></path><path d="M493 17H543C571 17 593 39 593 67H543C515 67 493 45 493 17Z " transform="matrix(-0.0946944014200121,-0.4871604631152262,0.4871604631152262,-0.0946944014200121,573.9583205202271,310.50529633120834)" opacity="0.76"></path><path d="M865 722H915C943 722 965 744 965 772H915C887 772 865 750 865 722Z " transform="matrix(-0.36412272030944914,-0.21022635058871936,0.21022635058871936,-0.36412272030944914,1091.1332051933725,1211.3567828598368)" opacity="0.65"></path><path d="M1046 110H1096C1124 110 1146 132 1146 160H1096C1068 160 1046 138 1046 110Z " transform="matrix(-0.03535841608857938,-0.5056489078487252,0.5056489078487252,-0.03535841608857938,1066.490221473505,693.964589174161)" opacity="0.78"></path><path d="M639 129H689C717 129 739 151 739 179H689C661 179 639 157 639 129Z " transform="matrix(-0.37932138426300344,-0.1532557872623485,0.1532557872623485,-0.37932138426300344,926.7510425188076,318.00873060026066)" opacity="0.63"></path><path d="M1324 326H1374C1402 326 1424 348 1424 376H1374C1346 376 1324 354 1324 326Z " transform="matrix(-0.38321142173144285,-0.11715948910869596,0.11715948910869596,-0.38321142173144285,1859.4095127818503,646.4843470630847)" opacity="0.61"></path><path d="M-7 458H43C71 458 93 480 93 508H43C15 508 -7 486 -7 458Z " transform="matrix(-0.38354347218791357,-0.10997932088779581,0.10997932088779581,-0.38354347218791357,6.372357315274904,672.9806078649374)" filter="url(#llleaves-blur-2)" opacity="0.61"></path><path d="M218 604H268C296 604 318 626 318 654H268C240 654 218 632 218 604Z " transform="matrix(0.045309450583732695,-0.5178893899814468,0.5178893899814468,0.045309450583732695,-69.8953590547705,739.2947120978599)" opacity="0.80"></path><path d="M784 27H834C862 27 884 49 884 77H834C806 77 784 55 784 27Z " transform="matrix(-9.419873193996345e-17,-0.512794012693011,0.512794012693011,-9.419873193996345e-17,807.3347113399635,479.67020658597113)" opacity="0.79"></path><path d="M687 389H737C765 389 787 411 787 439H737C709 439 687 417 687 389Z " transform="matrix(-0.38178192466682986,-0.03340159034745586,0.03340159034745586,-0.38178192466682986,1004.5450200756069,596.6746888981426)" filter="url(#llleaves-blur-2)" opacity="0.59"></path><path d="M867 591H917C945 591 967 613 967 641H917C889 641 867 619 867 591Z " transform="matrix(-0.36412272030944914,-0.21022635058871936,0.21022635058871936,-0.36412272030944914,1121.4011025611137,1033.0771592004764)" opacity="0.65"></path><path d="M1326 620H1376C1404 620 1426 642 1426 670H1376C1348 670 1326 648 1326 620Z " transform="matrix(-0.38321142173144285,-0.11715948910869596,0.11715948910869596,-0.38321142173144285,1827.7310458273562,1053.3828240303462)" opacity="0.61"></path><path d="M1234 647H1284C1312 647 1334 669 1334 697H1284C1256 697 1234 675 1234 647Z " transform="matrix(-0.36659727951493987,-0.20320819027309187,0.20320819027309187,-0.36659727951493987,1618.155003033665,1179.2726881446897)" opacity="0.64"></path><path d="M163 438H213C241 438 263 460 263 488H213C185 488 163 466 163 438Z " transform="matrix(-0.026604306707119097,-0.5076404127607793,0.5076404127607793,-0.026604306707119097,-16.37079377962445,583.4452019234421)" opacity="0.78"></path><path d="M974 22H1024C1052 22 1074 44 1074 72H1024C996 72 974 50 974 22Z " transform="matrix(0.20432543319158647,-0.5057231935110854,0.5057231935110854,0.20432543319158647,791.0017663167944,555.2572547953469)" opacity="0.84"></path><path d="M794 638H844C872 638 894 660 894 688H844C816 688 794 666 794 638Z " transform="matrix(-0.381600425896768,-0.13139556387935394,0.13139556387935394,-0.381600425896768,1078.9555006048604,1026.898938283732)" opacity="0.62"></path><path d="M1143 520H1193C1221 520 1243 542 1243 570H1193C1165 570 1143 548 1143 520Z " transform="matrix(-0.31331983566028837,-0.3133198356602883,0.3133198356602883,-0.31331983566028837,1396.031253507867,1089.549874377581)" opacity="0.68"></path><path d="M-10 249H40C68 249 90 271 90 299H40C12 299 -10 277 -10 249Z " transform="matrix(-0.38354347218791357,-0.10997932088779581,0.10997932088779581,-0.38354347218791357,25.207404964260487,383.49008421500014)" filter="url(#llleaves-blur-2)" opacity="0.61"></path><path d="M620 643H670C698 643 720 665 720 693H670C642 693 620 671 620 643Z " transform="matrix(-0.38359330364447924,-0.053910523080443036,0.053910523080443036,-0.38359330364447924,890.9952840240651,960.360377298409)" filter="url(#llleaves-blur-2)" opacity="0.59"></path><path d="M844 128H894C922 128 944 150 944 178H894C866 178 844 156 844 128Z " transform="matrix(-0.2846007724928099,-0.35145268469905033,0.35145268469905033,-0.2846007724928099,1094.6608298496171,510.74261831235094)" opacity="0.69"></path><path d="M114 592H164C192 592 214 614 214 642H164C136 642 114 620 114 592Z " transform="matrix(-0.16491655576454542,-0.45310451305731664,0.45310451305731664,-0.16491655576454542,-88.51916941097895,793.0626550481245)" opacity="0.74"></path></g></svg>