<svg xmlns="http://www.w3.org/2000/svg" version="1.1" xmlns:xlink="http://www.w3.org/1999/xlink" xmlns:svgjs="http://svgjs.dev/svgjs" viewBox="0 0 1422 800"><defs><filter id="llleaves-blur-2" x="-100%" y="-100%" width="400%" height="400%"><feGaussianBlur in="SourceGraphic" stdDeviation="2"></feGaussianBlur></filter><filter id="llleaves-blur-3" x="-100%" y="-100%" width="400%" height="400%"><feGaussianBlur in="SourceGraphic" stdDeviation="4"></feGaussianBlur></filter><filter id="llleaves-blur-4" x="-100%" y="-100%" width="400%" height="400%"><feGaussianBlur in="SourceGraphic" stdDeviation="12"></feGaussianBlur></filter></defs><g fill="hsl(305, 77%, 40%)"><path d="M517 283H567C595 283 617 305 617 333H567C539 333 517 311 517 283Z " transform="matrix(-0.2256714083095168,0.21044199275855652,-0.21044199275855652,-0.2256714083095168,759.7718222811313,258.1861838652296)" filter="url(#llleaves-blur-2)" opacity="0.47"></path><path d="M993 293H1043C1071 293 1093 315 1093 343H1043C1015 343 993 321 993 293Z " transform="matrix(-0.3637770827062094,0.03823451208501498,-0.03823451208501498,-0.3637770827062094,1434.5780721056112,393.802516195904)" filter="url(#llleaves-blur-2)" opacity="0.56"></path><path d="M305 421H355C383 421 405 443 405 471H355C327 471 305 449 305 421Z " transform="matrix(-0.1467057068012979,0.24415929777313092,-0.24415929777313092,-0.1467057068012979,515.9755727212771,424.7541945239174)" filter="url(#llleaves-blur-3)" opacity="0.44"></path><path d="M1192 17H1242C1270 17 1292 39 1292 67H1242C1214 67 1192 45 1192 17Z " transform="matrix(-0.3592657849876792,-0.2244941782284468,0.2244941782284468,-0.3592657849876792,1678.7793494691032,335.91093232921344)" opacity="0.65"></path><path d="M615 645H665C693 645 715 667 715 695H665C637 695 615 673 615 645Z " transform="matrix(-0.22611112543178694,0.21085203560870647,-0.21085203560870647,-0.22611112543178694,956.6347622699716,681.2778503595074)" filter="url(#llleaves-blur-2)" opacity="0.47"></path><path d="M568 457H618C646 457 668 479 668 507H618C590 507 568 485 568 457Z " transform="matrix(-0.22592973517582401,0.21068288645854266,-0.21068288645854266,-0.22592973517582401,859.1737276116768,460.6961085233678)" filter="url(#llleaves-blur-2)" opacity="0.47"></path><path d="M1237 245H1287C1315 245 1337 267 1337 295H1287C1259 295 1237 273 1237 245Z " transform="matrix(-0.3377859265771836,-0.2735336499801844,0.2735336499801844,-0.3377859265771836,1647.8764020101855,713.2400077003371)" opacity="0.67"></path><path d="M1326 305H1376C1404 305 1426 327 1426 355H1376C1348 355 1326 333 1326 305Z " transform="matrix(-0.28973643213716965,-0.3452944339049003,0.3452944339049003,-0.28973643213716965,1660.7301674321284,900.7381636584088)" opacity="0.69"></path><path d="M566 730H616C644 730 666 752 666 780H616C588 780 566 758 566 730Z " transform="matrix(-0.22592973517582401,0.21068288645854266,-0.21068288645854266,-0.22592973517582401,914.2382961445071,795.7962919992849)" filter="url(#llleaves-blur-2)" opacity="0.47"></path><path d="M496 376H546C574 376 596 398 596 426H546C518 426 496 404 496 376Z " transform="matrix(-0.22143483632972547,0.2138371357948575,-0.2138371357948575,-0.22143483632972547,752.652112089768,373.0402932242277)" filter="url(#llleaves-blur-2)" opacity="0.47"></path><path d="M1332 509H1382C1410 509 1432 531 1432 559H1382C1354 559 1332 537 1332 509Z " transform="matrix(-0.28973643213716965,-0.3452944339049003,0.3452944339049003,-0.28973643213716965,1598.0285215083518,1165.916162417821)" opacity="0.69"></path><path d="M1152 396H1202C1230 396 1252 418 1252 446H1202C1174 446 1152 424 1152 396Z " transform="matrix(-0.377908573831025,-0.16041267242095808,0.16041267242095808,-0.377908573831025,1588.7123706556686,772.915541832853)" opacity="0.63"></path><path d="M287 532H337C365 532 387 554 387 582H337C309 582 287 560 287 532Z " transform="matrix(-0.1467057068012979,0.24415929777313092,-0.24415929777313092,-0.1467057068012979,522.4365520516714,556.4333953387778)" filter="url(#llleaves-blur-3)" opacity="0.44"></path><path d="M1156 187H1206C1234 187 1256 209 1256 237H1206C1178 237 1156 215 1156 187Z " transform="matrix(-0.377908573831025,-0.16041267242095808,0.16041267242095808,-0.377908573831025,1627.7502534869732,485.5743005918527)" opacity="0.63"></path><path d="M110 441H160C188 441 210 463 210 491H160C132 491 110 469 110 441Z " transform="matrix(-0.04844542218260013,0.24923009124487266,-0.24923009124487266,-0.04844542218260013,283.89249006932664,448.69875213791204)" filter="url(#llleaves-blur-3)" opacity="0.39"></path><path d="M665 174H715C743 174 765 196 765 224H715C687 224 665 202 665 174Z " transform="matrix(-0.22674111876284825,0.21143951389408724,-0.21143951389408724,-0.22674111876284825,919.1963631803599,92.94223019953442)" filter="url(#llleaves-blur-2)" opacity="0.47"></path><path d="M90 336H140C168 336 190 358 190 386H140C112 386 90 364 90 336Z " transform="matrix(-0.034798775771957745,0.2476061555038255,-0.2476061555038255,-0.034798775771957745,234.25765074495507,338.89749628314115)" filter="url(#llleaves-blur-3)" opacity="0.38"></path><path d="M665 484H715C743 484 765 506 765 534H715C687 534 665 512 665 484Z " transform="matrix(-0.22674111876284825,0.21143951389408724,-0.21143951389408724,-0.22674111876284825,984.7426124875268,473.23197701601737)" filter="url(#llleaves-blur-2)" opacity="0.47"></path><path d="M421 648H471C499 648 521 670 521 698H471C443 698 421 676 421 648Z " transform="matrix(-0.20210535257786366,0.22446073388694185,-0.22446073388694185,-0.20210535257786366,717.2536949700857,703.2958966241526)" filter="url(#llleaves-blur-2)" opacity="0.46"></path><path d="M412 290H462C490 290 512 312 512 340H462C434 340 412 318 412 290Z " transform="matrix(-0.20210535257786366,0.22446073388694185,-0.22446073388694185,-0.20210535257786366,626.0778040653597,274.9623270062599)" filter="url(#llleaves-blur-2)" opacity="0.46"></path><path d="M756 736H806C834 736 856 758 856 786H806C778 786 756 764 756 736Z " transform="matrix(-0.24510440091116217,0.198481630323687,-0.198481630323687,-0.24510440091116217,1154.5986678107224,787.5482550525027)" filter="url(#llleaves-blur-2)" opacity="0.48"></path><path d="M1099 731H1149C1177 731 1199 753 1199 781H1149C1121 781 1099 759 1099 731Z " transform="matrix(-0.38409376408426354,-0.08164164985264757,0.08164164985264757,-0.38409376408426354,1528.6026476442175,1140.1811413283954)" filter="url(#llleaves-blur-2)" opacity="0.60"></path><path d="M1329 110H1379C1407 110 1429 132 1429 160H1379C1351 160 1329 138 1329 110Z " transform="matrix(-0.2686989596173881,-0.36983239006678686,0.36983239006678686,-0.2686989596173881,1699.6084926533617,681.2732254504465)" opacity="0.70"></path><path d="M753 407H803C831 407 853 429 853 457H803C775 457 753 435 753 407Z " transform="matrix(-0.24510440091116217,0.198481630323687,-0.198481630323687,-0.24510440091116217,1085.5628982314959,378.5043520437014)" filter="url(#llleaves-blur-2)" opacity="0.48"></path><path d="M1014 537H1064C1092 537 1114 559 1114 587H1064C1036 587 1014 565 1014 537Z " transform="matrix(-0.3637770827062094,0.03823451208501498,-0.03823451208501498,-0.3637770827062094,1472.5466117911851,725.7611996224338)" filter="url(#llleaves-blur-2)" opacity="0.56"></path><path d="M854 527H904C932 527 954 549 954 577H904C876 577 854 555 854 527Z " transform="matrix(-0.2813551853574985,0.16905525084052062,-0.16905525084052062,-0.2813551853574985,1251.663586027146,554.4821155575086)" filter="url(#llleaves-blur-2)" opacity="0.50"></path><path d="M203 626H253C281 626 303 648 303 676H253C225 676 203 654 203 626Z " transform="matrix(-0.09181194299443335,0.2522512402134607,-0.2522512402134607,-0.09181194299443335,440.44397895655453,646.9500111153706)" filter="url(#llleaves-blur-3)" opacity="0.41"></path><path d="M981 639H1031C1059 639 1081 661 1081 689H1031C1003 689 981 667 981 639Z " transform="matrix(-0.34936249495294214,0.07425929070365783,-0.07425929070365783,-0.34936249495294214,1440.5009013237122,819.4153679332825)" filter="url(#llleaves-blur-2)" opacity="0.55"></path><path d="M186 17H236C264 17 286 39 286 67H236C208 67 186 45 186 17Z " transform="matrix(-0.3435028914945436,0.08564488990719236,-0.08564488990719236,-0.3435028914945436,320.66376776881435,36.214927424673434)" filter="url(#llleaves-blur-2)" opacity="0.54"></path><path d="M1151 298H1201C1229 298 1251 320 1251 348H1201C1173 348 1151 326 1151 298Z " transform="matrix(-0.377908573831025,-0.16041267242095808,0.16041267242095808,-0.377908573831025,1603.0549039790913,637.7200889249917)" opacity="0.63"></path><path d="M331 115H381C409 115 431 137 431 165H381C353 165 331 143 331 115Z " transform="matrix(-0.24087447016795324,0.2021176790779524,-0.2021176790779524,-0.24087447016795324,501.0696482049035,96.71559009481359)" filter="url(#llleaves-blur-2)" opacity="0.48"></path><path d="M189 339H239C267 339 289 361 289 389H239C211 389 189 367 189 339Z " transform="matrix(-0.09181194299443335,0.2522512402134607,-0.2522512402134607,-0.09181194299443335,352.7625058133692,337.13150083895664)" filter="url(#llleaves-blur-3)" opacity="0.41"></path><path d="M1053 20H1103C1131 20 1153 42 1153 70H1103C1075 70 1053 48 1053 20Z " transform="matrix(-0.3590200486744227,0.05045697731559669,-0.05045697731559669,-0.3590200486744227,1501.2696776670898,5.5018562112458795)" filter="url(#llleaves-blur-2)" opacity="0.56"></path><path d="M23 253H73C101 253 123 275 123 303H73C45 303 23 281 23 253Z " transform="matrix(-0.021316804972720635,0.24365219576595976,-0.24365219576595976,-0.021316804972720635,142.29143718594543,266.13946149150127)" filter="url(#llleaves-blur-3)" opacity="0.37"></path><path d="M1310 20H1360C1388 20 1410 42 1410 70H1360C1332 70 1310 48 1310 20Z " transform="matrix(-0.22042609074335226,-0.41456118251385476,0.41456118251385476,-0.22042609074335226,1641.1242301978355,618.7223823022932)" opacity="0.72"></path><path d="M1176 581H1226C1254 581 1276 603 1276 631H1226C1198 631 1176 609 1176 581Z " transform="matrix(-0.3665623043197142,-0.20318880320580193,0.20318880320580193,-0.3665623043197142,1552.2729703532536,1077.24622914806)" opacity="0.64"></path><path d="M1261 735H1311C1339 735 1361 757 1361 785H1311C1283 785 1261 763 1261 735Z " transform="matrix(-0.3226782026424062,-0.3009022919318292,0.3009022919318292,-0.3226782026424062,1505.3453817960044,1399.7183387308569)" opacity="0.68"></path><path d="M853 87H903C931 87 953 109 953 137H903C875 137 853 115 853 87Z " transform="matrix(-0.19153045070754868,0.22825710272190938,-0.22825710272190938,-0.19153045070754868,1101.5167924937703,-72.6647532786387)" filter="url(#llleaves-blur-3)" opacity="0.46"></path><path d="M785 163H835C863 163 885 185 885 213H835C807 213 785 191 785 163Z " transform="matrix(-0.25457258343067024,0.19183420128931297,-0.19183420128931297,-0.25457258343067024,1083.6329370070005,75.67808760838969)" filter="url(#llleaves-blur-2)" opacity="0.49"></path><path d="M482 22H532C560 22 582 44 582 72H532C504 72 482 50 482 22Z " transform="matrix(-0.28493880941531163,0.16450949831850162,-0.16450949831850162,-0.28493880941531163,691.3193930299153,-27.12692906292321)" filter="url(#llleaves-blur-2)" opacity="0.50"></path><path d="M293 16H343C371 16 393 38 393 66H343C315 66 293 44 293 16Z " transform="matrix(-0.34638427712701286,0.07996911149464915,-0.07996911149464915,-0.34638427712701286,465.088540625846,27.77235011954287)" filter="url(#llleaves-blur-2)" opacity="0.54"></path><path d="M1333 614H1383C1411 614 1433 636 1433 664H1383C1355 664 1333 642 1333 614Z " transform="matrix(-0.28973643213716965,-0.3452944339049003,0.3452944339049003,-0.28973643213716965,1563.0623423804743,1301.6837822261284)" opacity="0.69"></path><path d="M586 355H636C664 355 686 377 686 405H636C608 405 586 383 586 355Z " transform="matrix(-0.22603182560596777,0.210778087324802,-0.210778087324802,-0.22603182560596777,859.8519142688202,331.83723019169366)" filter="url(#llleaves-blur-2)" opacity="0.47"></path><path d="M1160 658H1210C1238 658 1260 680 1260 708H1210C1182 708 1160 686 1160 658Z " transform="matrix(-0.377908573831025,-0.16041267242095808,0.16041267242095808,-0.377908573831025,1557.707519072026,1135.2108895559493)" opacity="0.63"></path><path d="M622 100H672C700 100 722 122 722 150H672C644 150 622 128 622 100Z " transform="matrix(-0.2063812723814477,0.2213168188369458,-0.2213168188369458,-0.2063812723814477,838.352817394951,2.07275678925339)" filter="url(#llleaves-blur-2)" opacity="0.46"></path><path d="M467 466H517C545 466 567 488 567 516H517C489 516 467 494 467 466Z " transform="matrix(-0.2167747929514614,0.21677479295146146,-0.21677479295146146,-0.2167747929514614,735.508991295073,485.363855383262)" filter="url(#llleaves-blur-2)" opacity="0.47"></path><path d="M-13 181H37C65 181 87 203 87 231H37C9 231 -13 209 -13 181Z " transform="matrix(-0.016963001178494332,0.24258221856585846,-0.24258221856585846,-0.016963001178494332,87.59956806817112,200.51883615583307)" filter="url(#llleaves-blur-3)" opacity="0.37"></path><path d="M141 236H191C219 236 241 258 241 286H191C163 286 141 264 141 236Z " transform="matrix(-0.062496182619313265,0.2506584976683158,-0.2506584976683158,-0.062496182619313265,268.35863877171926,229.43573060899243)" filter="url(#llleaves-blur-3)" opacity="0.39"></path><path d="M798 659H848C876 659 898 681 898 709H848C820 709 798 687 798 659Z " transform="matrix(-0.25457258343067024,0.19183420128931297,-0.19183420128931297,-0.25457258343067024,1195.0921444310984,695.452244373241)" filter="url(#llleaves-blur-2)" opacity="0.49"></path><path d="M979 195H1029C1057 195 1079 217 1079 245H1029C1001 245 979 223 979 195Z " transform="matrix(-0.34936249495294214,0.07425929070365783,-0.07425929070365783,-0.34936249495294214,1404.831051261382,220.44693875558337)" filter="url(#llleaves-blur-2)" opacity="0.55"></path><path d="M1236 122H1286C1314 122 1336 144 1336 172H1286C1258 172 1236 150 1236 122Z " transform="matrix(-0.33001959244410095,-0.28688165493117324,0.28688165493117324,-0.33001959244410095,1668.2335926082314,564.4426883307717)" opacity="0.67"></path><path d="M1255 553H1305C1333 553 1355 575 1355 603H1305C1277 603 1255 581 1255 553Z " transform="matrix(-0.3226782026424062,-0.3009022919318292,0.3009022919318292,-0.3226782026424062,1552.173529711743,1157.1854920983478)" opacity="0.68"></path><path d="M91 31H141C169 31 191 53 191 81H141C113 81 91 59 91 31Z " transform="matrix(-0.33944109025712105,0.09095296601233552,-0.09095296601233552,-0.33944109025712105,193.95455982294484,62.18433284665947)" filter="url(#llleaves-blur-2)" opacity="0.54"></path><path d="M190 521H240C268 521 290 543 290 571H240C212 571 190 549 190 521Z " transform="matrix(-0.09181194299443335,0.2522512402134607,-0.2522512402134607,-0.09181194299443335,399.7640434752135,535.58902322373)" filter="url(#llleaves-blur-3)" opacity="0.41"></path><path d="M691 570H741C769 570 791 592 791 620H741C713 620 691 598 691 570Z " transform="matrix(-0.23121403502580315,0.20818605223565567,-0.20818605223565567,-0.23121403502580315,1036.200301034335,578.306486133732)" filter="url(#llleaves-blur-2)" opacity="0.48"></path><path d="M883 634H933C961 634 983 656 983 684H933C905 684 883 662 883 634Z " transform="matrix(-0.29789929568151635,0.1517872725361984,-0.1517872725361984,-0.29789929568151635,1310.9678554722095,713.6981105778463)" filter="url(#llleaves-blur-2)" opacity="0.51"></path><path d="M799 15H849C877 15 899 37 899 65H849C821 65 799 43 799 15Z " transform="matrix(-0.09659219996428772,0.25163128386168293,-0.25163128386168293,-0.09659219996428772,941.0720291241474,-169.7712719999973)" filter="url(#llleaves-blur-3)" opacity="0.41"></path><path d="M1323 205H1373C1401 205 1423 227 1423 255H1373C1345 255 1323 233 1323 205Z " transform="matrix(-0.28973643213716965,-0.3452944339049003,0.3452944339049003,-0.28973643213716965,1691.390401526207,770.7286371429772)" opacity="0.69"></path><path d="M-2 13H48C76 13 98 35 98 63H48C20 63 -2 41 -2 13Z " transform="matrix(-0.3365836487353803,0.09651380819673391,-0.09651380819673391,-0.3365836487353803,67.82353985077414,46.15751585850123)" filter="url(#llleaves-blur-2)" opacity="0.54"></path><path d="M685 17H735C763 17 785 39 785 67H735C707 67 685 45 685 17Z " transform="matrix(-0.11650050057631595,0.24983612972873745,-0.24983612972873745,-0.11650050057631595,831.1209853721992,-136.73653432641674)" filter="url(#llleaves-blur-3)" opacity="0.42"></path><path d="M629 274H679C707 274 729 296 729 324H679C651 324 629 302 629 274Z " transform="matrix(-0.22611112543178694,0.21085203560870647,-0.21085203560870647,-0.22611112543178694,895.5742128151866,223.4386943257926)" filter="url(#llleaves-blur-2)" opacity="0.47"></path><path d="M400 382H450C478 382 500 404 500 432H450C422 432 400 410 400 382Z " transform="matrix(-0.20210535257786366,0.22446073388694185,-0.22446073388694185,-0.20210535257786366,632.302927352024,388.24954825006665)" filter="url(#llleaves-blur-2)" opacity="0.46"></path><path d="M934 560H984C1012 560 1034 582 1034 610H984C956 610 934 588 934 560Z " transform="matrix(-0.3336906837646329,0.10201948014376767,-0.10201948014376767,-0.3336906837646329,1372.0330287085026,679.8218815408428)" filter="url(#llleaves-blur-2)" opacity="0.53"></path><path d="M424 117H474C502 117 524 139 524 167H474C446 167 424 145 424 117Z " transform="matrix(-0.2545200159814878,0.191794588875078,-0.191794588875078,-0.2545200159814878,621.8773191954863,87.23120714258431)" filter="url(#llleaves-blur-2)" opacity="0.49"></path><path d="M241 176H291C319 176 341 198 341 226H291C263 226 241 204 241 176Z " transform="matrix(-0.1113985814604577,0.2502053105209525,-0.2502053105209525,-0.1113985814604577,373.70825461970463,150.5813695119548)" filter="url(#llleaves-blur-3)" opacity="0.42"></path><path d="M245 261H295C323 261 345 283 345 311H295C267 311 245 289 245 261Z " transform="matrix(-0.1113985814604577,0.2502053105209525,-0.2502053105209525,-0.1113985814604577,399.42130033982744,244.0494276940099)" filter="url(#llleaves-blur-3)" opacity="0.42"></path><path d="M242 88H292C320 88 342 110 342 138H292C264 138 242 116 242 88Z " transform="matrix(-0.259033107365783,0.1881985686626201,-0.1881985686626201,-0.259033107365783,388.9041056096846,87.3167590828484)" filter="url(#llleaves-blur-2)" opacity="0.49"></path><path d="M1 520H51C79 520 101 542 101 570H51C23 570 1 548 1 520Z " transform="matrix(-0.016963001178494332,0.24258221856585846,-0.24258221856585846,-0.016963001178494332,184.07242217849605,541.8731424954207)" filter="url(#llleaves-blur-3)" opacity="0.37"></path><path d="M580 19H630C658 19 680 41 680 69H630C602 69 580 47 580 19Z " transform="matrix(-0.1822246666933345,0.23323693731330633,-0.23323693731330633,-0.1822246666933345,755.0639652585862,-94.92138517287626)" filter="url(#llleaves-blur-3)" opacity="0.45"></path><path d="M1072 241H1122C1150 241 1172 263 1172 291H1122C1094 291 1072 269 1072 241Z " transform="matrix(-0.3815248067764163,-0.04009987305112005,0.04009987305112005,-0.3815248067764163,1539.4042669715411,412.47765616588345)" filter="url(#llleaves-blur-2)" opacity="0.59"></path><path d="M845 432H895C923 432 945 454 945 482H895C867 482 845 460 845 432Z " transform="matrix(-0.2813551853574985,0.16905525084052062,-0.16905525084052062,-0.2813551853574985,1224.071140529079,434.27487020611085)" filter="url(#llleaves-blur-2)" opacity="0.50"></path><path d="M925 14H975C1003 14 1025 36 1025 64H975C947 64 925 42 925 14Z " transform="matrix(-0.18171065851458412,0.23257903684603598,-0.23257903684603598,-0.18171065851458412,1161.238474488715,-180.6778452428163)" filter="url(#llleaves-blur-3)" opacity="0.45"></path><path d="M1253 650H1303C1331 650 1353 672 1353 700H1303C1275 700 1253 678 1253 650Z " transform="matrix(-0.3377859265771836,-0.2735336499801844,0.2735336499801844,-0.3377859265771836,1558.4998485934457,1259.419846363779)" opacity="0.67"></path><path d="M-2 623H48C76 623 98 645 98 673H48C20 673 -2 651 -2 623Z " transform="matrix(-0.016963001178494332,0.24258221856585846,-0.24258221856585846,-0.016963001178494332,206.00750168724403,647.3480782725031)" filter="url(#llleaves-blur-3)" opacity="0.37"></path><path d="M1004 431H1054C1082 431 1104 453 1104 481H1054C1026 481 1004 459 1004 431Z " transform="matrix(-0.3637770827062094,0.03823451208501498,-0.03823451208501498,-0.3637770827062094,1454.8559826831117,581.5831739764257)" filter="url(#llleaves-blur-2)" opacity="0.56"></path><path d="M1329 406H1379C1407 406 1429 428 1429 456H1379C1351 456 1329 434 1329 406Z " transform="matrix(-0.28973643213716965,-0.3452944339049003,0.3452944339049003,-0.28973643213716965,1629.724638904145,1032.0374266059775)" opacity="0.69"></path><path d="M-9 333H41C69 333 91 355 91 383H41C13 383 -9 361 -9 333Z " transform="matrix(-0.016963001178494332,0.24258221856585846,-0.24258221856585846,-0.016963001178494332,128.5399172948956,354.12688346070075)" filter="url(#llleaves-blur-3)" opacity="0.37"></path><path d="M593 554H643C671 554 693 576 693 604H643C615 604 593 582 593 554Z " transform="matrix(-0.22603182560596777,0.210778087324802,-0.210778087324802,-0.22603182560596777,910.3789764256976,574.3421168760077)" filter="url(#llleaves-blur-2)" opacity="0.47"></path><path d="M1134 85H1184C1212 85 1234 107 1234 135H1184C1156 135 1134 113 1134 85Z " transform="matrix(-0.3842063268513704,-0.08870101969917274,0.08870101969917274,-0.3842063268513704,1629.1431788251139,257.2847032774713)" filter="url(#llleaves-blur-2)" opacity="0.60"></path><path d="M361 729H411C439 729 461 751 461 779H411C383 779 361 757 361 729Z " transform="matrix(-0.17731930567662008,0.23531066637148518,-0.23531066637148518,-0.17731930567662008,661.3024770771908,790.9860726014911)" filter="url(#llleaves-blur-3)" opacity="0.45"></path><path d="M468 732H518C546 732 568 754 568 782H518C490 782 468 760 468 732Z " transform="matrix(-0.2167747929514614,0.21677479295146146,-0.21677479295146146,-0.2167747929514614,794.3878610131133,808.8091755153993)" filter="url(#llleaves-blur-2)" opacity="0.47"></path><path d="M811 254H861C889 254 911 276 911 304H861C833 304 811 282 811 254Z " transform="matrix(-0.26780961881869747,0.18063986878553528,-0.18063986878553528,-0.26780961881869747,1141.982605194063,198.18795662607073)" filter="url(#llleaves-blur-2)" opacity="0.49"></path><path d="M498 551H548C576 551 598 573 598 601H548C520 601 498 579 498 551Z " transform="matrix(-0.22143483632972547,0.2138371357948575,-0.2138371357948575,-0.22143483632972547,792.5164805265274,586.36371531034)" filter="url(#llleaves-blur-2)" opacity="0.47"></path><path d="M849 732H899C927 732 949 754 949 782H899C871 782 849 760 849 732Z " transform="matrix(-0.2813551853574985,0.16905525084052062,-0.16905525084052062,-0.2813551853574985,1279.9131365226654,818.0052048099983)" filter="url(#llleaves-blur-2)" opacity="0.50"></path><path d="M313 633H363C391 633 413 655 413 683H363C335 683 313 661 313 633Z " transform="matrix(-0.1621543223963566,0.24040366926046963,-0.24040366926046963,-0.1621543223963566,580.0476334032666,677.4310121952522)" filter="url(#llleaves-blur-3)" opacity="0.44"></path><path d="M1171 491H1221C1249 491 1271 513 1271 541H1221C1193 541 1171 519 1171 491Z " transform="matrix(-0.3665623043197142,-0.20318880320580193,0.20318880320580193,-0.3665623043197142,1563.727151120177,953.2396777432567)" opacity="0.64"></path><path d="M966 94H1016C1044 94 1066 116 1066 144H1016C988 144 966 122 966 94Z " transform="matrix(-0.3132249636701618,0.1329561088861522,-0.1329561088861522,-0.3132249636701618,1350.0583400463365,21.1903640484186)" filter="url(#llleaves-blur-2)" opacity="0.52"></path><path d="M458 203H508C536 203 558 225 558 253H508C480 253 458 231 458 203Z " transform="matrix(-0.2167747929514614,0.21677479295146146,-0.21677479295146146,-0.2167747929514614,667.5462476122757,167.3030579735908)" filter="url(#llleaves-blur-2)" opacity="0.47"></path><path d="M660 395H710C738 395 760 417 760 445H710C682 445 660 423 660 395Z " transform="matrix(-0.22630360542615047,0.21103152610723014,-0.21103152610723014,-0.22630360542615047,959.3088008176035,365.2151307428498)" filter="url(#llleaves-blur-2)" opacity="0.47"></path><path d="M761 494H811C839 494 861 516 861 544H811C783 544 761 522 761 494Z " transform="matrix(-0.24510440091116217,0.198481630323687,-0.198481630323687,-0.24510440091116217,1112.791635276946,485.240581880383)" filter="url(#llleaves-blur-2)" opacity="0.48"></path><path d="M1336 720H1386C1414 720 1436 742 1436 770H1386C1358 770 1336 748 1336 720Z " transform="matrix(-0.28973643213716965,-0.3452944339049003,0.3452944339049003,-0.28973643213716965,1530.3303416829665,1439.4317273343831)" opacity="0.69"></path><path d="M932 368H982C1010 368 1032 390 1032 418H982C954 418 932 396 932 368Z " transform="matrix(-0.3336906837646329,0.10201948014376767,-0.10201948014376767,-0.3336906837646329,1349.77790715337,423.95730921832086)" filter="url(#llleaves-blur-2)" opacity="0.53"></path><path d="M1183 735H1233C1261 735 1283 757 1283 785H1233C1205 785 1183 763 1183 735Z " transform="matrix(-0.3665623043197142,-0.20318880320580193,0.20318880320580193,-0.3665623043197142,1530.5478307897981,1289.1191456357365)" opacity="0.64"></path><path d="M96 650H146C174 650 196 672 196 700H146C118 700 96 678 96 650Z " transform="matrix(-0.034798775771957745,0.2476061555038255,-0.2476061555038255,-0.034798775771957745,318.21477622778804,662.338674942513)" filter="url(#llleaves-blur-3)" opacity="0.38"></path><path d="M932 726H982C1010 726 1032 748 1032 776H982C954 776 932 754 932 726Z " transform="matrix(-0.3336906837646329,0.10201948014376767,-0.10201948014376767,-0.3336906837646329,1386.3008810448391,901.4185740060594)" filter="url(#llleaves-blur-2)" opacity="0.53"></path><path d="M309 325H359C387 325 409 347 409 375H359C331 375 309 353 309 325Z " transform="matrix(-0.1621543223963566,0.24040366926046963,-0.24040366926046963,-0.1621543223963566,501.3546859814564,320.4490955742162)" filter="url(#llleaves-blur-3)" opacity="0.44"></path><path d="M661 733H711C739 733 761 755 761 783H711C683 783 661 761 661 733Z " transform="matrix(-0.22630360542615047,0.21103152610723014,-0.21103152610723014,-0.22630360542615047,1031.8637602472734,779.4947178507814)" filter="url(#llleaves-blur-2)" opacity="0.47"></path><path d="M11 728H61C89 728 111 750 111 778H61C33 778 11 756 11 728Z " transform="matrix(-0.021316804972720635,0.24365219576595976,-0.24365219576595976,-0.021316804972720635,245.77042851510365,754.1887702027351)" filter="url(#llleaves-blur-3)" opacity="0.37"></path><path d="M5 425H55C83 425 105 447 105 475H55C27 475 5 453 5 425Z " transform="matrix(-0.016963001178494332,0.24258221856585846,-0.24258221856585846,-0.016963001178494332,165.0949634194535,444.29132850920024)" filter="url(#llleaves-blur-3)" opacity="0.37"></path><path d="M903 270H953C981 270 1003 292 1003 320H953C925 320 903 298 903 270Z " transform="matrix(-0.3164260662221048,0.12784442929158246,-0.12784442929158246,-0.3164260662221048,1292.2681477506826,266.50994842064284)" filter="url(#llleaves-blur-2)" opacity="0.52"></path><path d="M141 731H191C219 731 241 753 241 781H191C163 781 141 759 141 731Z " transform="matrix(-0.062496182619313265,0.2506584976683158,-0.2506584976683158,-0.062496182619313265,392.4345951175356,755.3713410055525)" filter="url(#llleaves-blur-3)" opacity="0.39"></path><path d="M830 342H880C908 342 930 364 930 392H880C852 392 830 370 830 342Z " transform="matrix(-0.26780961881869747,0.18063986878553528,-0.18063986878553528,-0.26780961881869747,1181.9672964047452,306.3230455751909)" filter="url(#llleaves-blur-2)" opacity="0.49"></path><path d="M1060 354H1110C1138 354 1160 376 1160 404H1110C1082 404 1060 382 1060 354Z " transform="matrix(-0.3815248067764163,-0.04009987305112005,0.04009987305112005,-0.3815248067764163,1518.2946836354477,568.1087608550051)" filter="url(#llleaves-blur-2)" opacity="0.59"></path><path d="M885 173H935C963 173 985 195 985 223H935C907 223 885 201 885 173Z " transform="matrix(-0.29789929568151635,0.1517872725361984,-0.1517872725361984,-0.29789929568151635,1243.589721424385,115.06296072359474)" filter="url(#llleaves-blur-2)" opacity="0.51"></path><path d="M1249 452H1299C1327 452 1349 474 1349 502H1299C1271 502 1249 480 1249 452Z " transform="matrix(-0.3377859265771836,-0.2735336499801844,0.2735336499801844,-0.3377859265771836,1607.3083675832136,993.4440983015761)" opacity="0.67"></path></g></svg>