<svg xmlns="http://www.w3.org/2000/svg" version="1.1" xmlns:xlink="http://www.w3.org/1999/xlink" xmlns:svgjs="http://svgjs.dev/svgjs" viewBox="0 0 1422 800"><defs><filter id="llleaves-blur-2" x="-100%" y="-100%" width="400%" height="400%"><feGaussianBlur in="SourceGraphic" stdDeviation="2"></feGaussianBlur></filter><filter id="llleaves-blur-3" x="-100%" y="-100%" width="400%" height="400%"><feGaussianBlur in="SourceGraphic" stdDeviation="4"></feGaussianBlur></filter><filter id="llleaves-blur-4" x="-100%" y="-100%" width="400%" height="400%"><feGaussianBlur in="SourceGraphic" stdDeviation="12"></feGaussianBlur></filter></defs><g fill="none" stroke-width="3" stroke="hsl(305, 77%, 40%)"><path d="M1172 19H1222C1250 19 1272 41 1272 69H1222C1194 69 1172 47 1172 19Z " transform="matrix(-0.04859099823983089,0.24997901513472828,-0.24997901513472828,-0.04859099823983089,1292.3772765150013,-259.3363525720854)" filter="url(#llleaves-blur-3)" opacity="0.39"></path><path d="M928 29H978C1006 29 1028 51 1028 79H978C950 79 928 57 928 29Z " transform="matrix(0.1266373256353189,0.08223924084980186,-0.08223924084980186,0.1266373256353189,858.5896145345474,-33.26839313541343)" filter="url(#llleaves-blur-4)" opacity="0.23"></path><path d="M916 248H966C994 248 1016 270 1016 298H966C938 298 916 276 916 248Z " transform="matrix(-0.08201408344139022,0.2524133944240843,-0.2524133944240843,-0.08201408344139022,1114.1344612821579,51.5585057658341)" filter="url(#llleaves-blur-3)" opacity="0.41"></path><path d="M999 200H1049C1077 200 1099 222 1099 250H1049C1021 250 999 228 999 200Z " transform="matrix(-0.058060302437528924,0.2514867992617983,-0.2514867992617983,-0.058060302437528924,1166.4897870908724,-25.746084377182427)" filter="url(#llleaves-blur-3)" opacity="0.39"></path><path d="M302 298H352C380 298 402 320 402 348H352C324 348 302 326 302 298Z " transform="matrix(-0.2330789870529877,-0.4037046477524628,0.4037046477524628,-0.2330789870529877,303.6472022186062,540.388548826982)" opacity="0.72"></path><path d="M841 12H891C919 12 941 34 941 62H891C863 62 841 40 841 12Z " transform="matrix(0.12535929368589643,0.08777752242350956,-0.08777752242350956,0.12535929368589643,782.5526376555362,-45.84806634572517)" filter="url(#llleaves-blur-4)" opacity="0.23"></path><path d="M77 482H127C155 482 177 504 177 532H127C99 532 77 510 77 482Z " transform="matrix(-0.06958029515331093,-0.4950895254084271,0.4950895254084271,-0.06958029515331093,-115.17369189760205,605.1535793695989)" opacity="0.77"></path><path d="M518 338H568C596 338 618 360 618 388H568C540 388 518 366 518 338Z " transform="matrix(-0.38339252902548615,-0.1245717840689268,0.1245717840689268,-0.38339252902548615,740.5473988694557,572.9282613874019)" opacity="0.62"></path><path d="M615 646H665C693 646 715 668 715 696H665C637 696 615 674 615 646Z " transform="matrix(-0.36549217701399345,0.031976422096134896,-0.031976422096134896,-0.36549217701399345,929.5084769408122,894.9809300824597)" filter="url(#llleaves-blur-2)" opacity="0.56"></path><path d="M908 364H958C986 364 1008 386 1008 414H958C930 414 908 392 908 364Z " transform="matrix(-0.08201408344139022,0.2524133944240843,-0.2524133944240843,-0.08201408344139022,1134.7583023678205,179.09144660042801)" filter="url(#llleaves-blur-3)" opacity="0.41"></path><path d="M334 112H384C412 112 434 134 434 162H384C356 162 334 140 334 112Z " transform="matrix(-0.34431883008705777,-0.25946284893875804,0.25946284893875804,-0.34431883008705777,480.67202044882026,283.80541371441)" opacity="0.66"></path><path d="M690 199H740C768 199 790 221 790 249H740C712 249 690 227 690 199Z " transform="matrix(-0.3165340309075899,0.1278880498559825,-0.1278880498559825,-0.3165340309075899,1002.8821060393566,200.26646602987307)" filter="url(#llleaves-blur-2)" opacity="0.52"></path><path d="M928 137H978C1006 137 1028 159 1028 187H978C950 187 928 165 928 137Z " transform="matrix(0.004116865154593637,0.23585504674568178,-0.23585504674568178,0.004116865154593637,1012.1822234516078,-69.33316787232096)" filter="url(#llleaves-blur-3)" opacity="0.36"></path><path d="M1082 454H1132C1160 454 1182 476 1182 504H1132C1104 504 1082 482 1082 454Z " transform="matrix(-0.08195129559432826,0.25222015330084707,-0.25222015330084707,-0.08195129559432826,1345.5823200438854,232.74145705312435)" filter="url(#llleaves-blur-3)" opacity="0.41"></path><path d="M190 635H240C268 635 290 657 290 685H240C212 685 190 663 190 635Z " transform="matrix(-0.16477289752427662,-0.45270981528605947,0.45270981528605947,-0.16477289752427662,-19.242982682972865,877.4004680346768)" opacity="0.74"></path><path d="M1268 533H1318C1346 533 1368 555 1368 583H1318C1290 583 1268 561 1268 533Z " transform="matrix(-0.2677411265423071,0.18059367016177205,-0.18059367016177205,-0.2677411265423071,1771.6540727330296,469.3770913373918)" filter="url(#llleaves-blur-2)" opacity="0.49"></path><path d="M160 141H210C238 141 260 163 260 191H210C182 191 160 169 160 141Z " transform="matrix(-0.21410729486743965,-0.42020922621212586,0.42020922621212586,-0.21410729486743965,185.20780037094943,289.78574845254144)" opacity="0.72"></path><path d="M-7 524H43C71 524 93 546 93 574H43C15 574 -7 552 -7 524Z " transform="matrix(-0.03535435514347864,-0.5055908336281528,0.5055908336281528,-0.03535435514347864,-233.04913039068634,590.1499468197803)" opacity="0.78"></path><path d="M368 212H418C446 212 468 234 468 262H418C390 262 368 240 368 212Z " transform="matrix(-0.299922555770919,-0.3330977439187389,0.3330977439187389,-0.299922555770919,464.42346300350295,447.3165026757407)" opacity="0.69"></path><path d="M655 104H705C733 104 755 126 755 154H705C677 154 655 132 655 104Z " transform="matrix(-0.19689142672402277,0.22649767695598605,-0.22649767695598605,-0.19689142672402277,873.0266561677581,-5.281868206571204)" filter="url(#llleaves-blur-2)" opacity="0.46"></path><path d="M94 27H144C172 27 194 49 194 77H144C116 77 94 55 94 27Z " transform="matrix(-0.3850032794596802,-0.10316131781455498,0.10316131781455498,-0.3850032794596802,194.0760837158371,86.87540029719929)" filter="url(#llleaves-blur-2)" opacity="0.61"></path><path d="M242 724H292C320 724 342 746 342 774H292C264 774 242 752 242 724Z " transform="matrix(-0.18622487072026972,-0.4387183022615698,0.4387183022615698,-0.18622487072026972,17.777653856402935,1016.5881724298606)" opacity="0.73"></path><path d="M386 23H436C464 23 486 45 486 73H436C408 73 386 51 386 23Z " transform="matrix(-0.36445511616690696,0.03830577627338613,-0.03830577627338613,-0.36445511616690696,596.7411079098939,48.79252712081518)" filter="url(#llleaves-blur-2)" opacity="0.56"></path><path d="M1095 560H1145C1173 560 1195 582 1195 610H1145C1117 610 1095 588 1095 560Z " transform="matrix(-0.08195129559432826,0.25222015330084707,-0.25222015330084707,-0.08195129559432826,1386.3830231365016,344.1494323932121)" filter="url(#llleaves-blur-3)" opacity="0.41"></path><path d="M1334 141H1384C1412 141 1434 163 1434 191H1384C1356 191 1334 169 1334 141Z " transform="matrix(-0.33075562090352034,0.10746901587129817,-0.10746901587129817,-0.33075562090352034,1859.6056359651075,72.1683151041077)" filter="url(#llleaves-blur-2)" opacity="0.53"></path><path d="M1161 208H1211C1239 208 1261 230 1261 258H1211C1183 258 1161 236 1161 208Z " transform="matrix(-0.12634701195017373,0.24796997299259585,-0.24796997299259585,-0.12634701195017373,1421.7832351789352,-37.852783509643075)" filter="url(#llleaves-blur-3)" opacity="0.43"></path><path d="M1193 580H1243C1271 580 1293 602 1293 630H1243C1215 630 1193 608 1193 580Z " transform="matrix(-0.15647735900259252,0.2409540027583286,-0.2409540027583286,-0.15647735900259252,1583.2785289090114,400.16297676796603)" filter="url(#llleaves-blur-3)" opacity="0.44"></path><path d="M302 625H352C380 625 402 647 402 675H352C324 675 302 653 302 625Z " transform="matrix(-0.2330789870529877,-0.4037046477524628,0.4037046477524628,-0.2330789870529877,171.63578240355085,943.605377593309)" opacity="0.72"></path><path d="M830 655H880C908 655 930 677 930 705H880C852 705 830 683 830 655Z " transform="matrix(-0.15146612430636897,0.24239646870750625,-0.24239646870750625,-0.15146612430636897,1178.119788110709,569.6880720657254)" filter="url(#llleaves-blur-3)" opacity="0.44"></path><path d="M730 326H780C808 326 830 348 830 376H780C752 376 730 354 730 326Z " transform="matrix(-0.24972735463225967,0.19510839271973024,-0.19510839271973024,-0.24972735463225967,1043.270382457788,286.4697551545336)" filter="url(#llleaves-blur-2)" opacity="0.49"></path><path d="M415 302H465C493 302 515 324 515 352H465C437 352 415 330 415 302Z " transform="matrix(-0.32250672317065227,-0.30074238473745574,0.30074238473745574,-0.32250672317065227,516.6228664652052,572.3049073797202)" opacity="0.68"></path><path d="M88 226H138C166 226 188 248 188 276H138C110 276 88 254 88 226Z " transform="matrix(-0.06958029515331093,-0.4950895254084271,0.4950895254084271,-0.06958029515331093,23.334609853641695,336.787008589844)" opacity="0.77"></path><path d="M1329 358H1379C1407 358 1429 380 1429 408H1379C1351 408 1329 386 1329 358Z " transform="matrix(-0.34028549584579737,0.09117922380790566,-0.09117922380790566,-0.34028549584579737,1883.1753414897826,387.5931952778385)" filter="url(#llleaves-blur-2)" opacity="0.54"></path><path d="M990 413H1040C1068 413 1090 435 1090 463H1040C1012 463 990 441 990 413Z " transform="matrix(-0.058060302437528924,0.2514867992617983,-0.2514867992617983,-0.058060302437528924,1210.5339326116978,201.88414123536742)" filter="url(#llleaves-blur-3)" opacity="0.39"></path><path d="M845 94H895C923 94 945 116 945 144H895C867 144 845 122 845 94Z " transform="matrix(0.04904783154329523,0.21244949901573676,-0.21244949901573676,0.04904783154329523,876.3836811516235,-76.97899357273653)" filter="url(#llleaves-blur-3)" opacity="0.33"></path><path d="M1092 33H1142C1170 33 1192 55 1192 83H1142C1114 83 1092 61 1092 33Z " transform="matrix(0.07645211950861482,0.1892256359115841,-0.1892256359115841,0.07645211950861482,1065.6667664040338,-162.52989914252868)" filter="url(#llleaves-blur-3)" opacity="0.31"></path><path d="M1012 12H1062C1090 12 1112 34 1112 62H1062C1034 62 1012 40 1012 12Z " transform="matrix(0.12046669654198945,0.11633333658868936,-0.11633333658868936,0.12046669654198945,938.3687017261886,-91.0032712292417)" filter="url(#llleaves-blur-4)" opacity="0.25"></path><path d="M967 573H1017C1045 573 1067 595 1067 623H1017C989 623 967 601 967 573Z " transform="matrix(-0.06265560086294654,0.2512978893203379,-0.2512978893203379,-0.06265560086294654,1230.9968838911786,379.89809587725836)" filter="url(#llleaves-blur-3)" opacity="0.40"></path><path d="M845 188H895C923 188 945 210 945 238H895C867 238 845 216 845 188Z " transform="matrix(-0.12172449944871336,0.24957220883401385,-0.24957220883401385,-0.12172449944871336,1057.1023074882435,15.560191476133525)" filter="url(#llleaves-blur-3)" opacity="0.42"></path><path d="M778 730H828C856 730 878 752 878 780H828C800 780 778 758 778 730Z " transform="matrix(-0.21609323101844702,0.21609323101844705,-0.21609323101844705,-0.21609323101844702,1170.0755847022015,739.2251941356534)" filter="url(#llleaves-blur-2)" opacity="0.47"></path><path d="M577 28H627C655 28 677 50 677 78H627C599 78 577 56 577 28Z " transform="matrix(-0.08672590486433349,0.25187031628327605,-0.25187031628327605,-0.08672590486433349,694.7262691129507,-100.3262153518044)" filter="url(#llleaves-blur-3)" opacity="0.41"></path><path d="M1325 721H1375C1403 721 1425 743 1425 771H1375C1347 771 1325 749 1325 721Z " transform="matrix(-0.34028549584579737,0.09117922380790566,-0.09117922380790566,-0.34028549584579737,1910.9122577486687,874.4815471650945)" filter="url(#llleaves-blur-2)" opacity="0.54"></path><path d="M85 669H135C163 669 185 691 185 719H135C107 719 85 697 85 669Z " transform="matrix(-0.06958029515331093,-0.4950895254084271,0.4950895254084271,-0.06958029515331093,-199.19879078775148,809.1258107665354)" opacity="0.77"></path><path d="M-4 416H46C74 416 96 438 96 466H46C18 466 -4 444 -4 416Z " transform="matrix(-0.03535435514347864,-0.5055908336281528,0.5055908336281528,-0.03535435514347864,-175.33925729341533,479.8484489651691)" opacity="0.78"></path><path d="M539 444H589C617 444 639 466 639 494H589C561 494 539 472 539 444Z " transform="matrix(-0.38339252902548615,-0.1245717840689268,0.1245717840689268,-0.38339252902548615,756.3940328676847,722.1838769295508)" opacity="0.62"></path><path d="M196 241H246C274 241 296 263 296 291H246C218 291 196 269 196 241Z " transform="matrix(-0.16477289752427662,-0.45270981528605947,0.45270981528605947,-0.16477289752427662,166.1133219248802,421.19620530182823)" opacity="0.74"></path><path d="M1085 147H1135C1163 147 1185 169 1185 197H1135C1107 197 1085 175 1085 147Z " transform="matrix(-0.021425264609598378,0.2448918950882109,-0.2448918950882109,-0.021425264609598378,1201.4390812870665,-102.26715541226844)" filter="url(#llleaves-blur-3)" opacity="0.38"></path><path d="M184 23H234C262 23 284 45 284 73H234C206 73 184 51 184 23Z " transform="matrix(-0.38418698207079904,-0.09578857295806112,0.09578857295806112,-0.38418698207079904,319.30190230258,88.85550121158465)" filter="url(#llleaves-blur-2)" opacity="0.61"></path><path d="M238 101H288C316 101 338 123 338 151H288C260 151 238 129 238 101Z " transform="matrix(-0.3044899876908112,-0.32652553531542633,0.32652553531542633,-0.3044899876908112,334.5508990052099,258.40509261988495)" opacity="0.69"></path><path d="M674 731H724C752 731 774 753 774 781H724C696 781 674 759 674 731Z " transform="matrix(-0.3165340309075899,0.1278880498559825,-0.1278880498559825,-0.3165340309075899,1049.8540040682178,902.7087792704065)" filter="url(#llleaves-blur-2)" opacity="0.52"></path><path d="M801 486H851C879 486 901 508 901 536H851C823 536 801 514 801 486Z " transform="matrix(-0.1817342274783945,0.23260920374404453,-0.23260920374404453,-0.1817342274783945,1124.5191306973204,405.91575785527766)" filter="url(#llleaves-blur-3)" opacity="0.45"></path><path d="M1335 598H1385C1413 598 1435 620 1435 648H1385C1357 648 1335 626 1335 598Z " transform="matrix(-0.34028549584579737,0.09117922380790566,-0.09117922380790566,-0.34028549584579737,1913.1000681787546,708.7146389379824)" filter="url(#llleaves-blur-2)" opacity="0.54"></path><path d="M780 575H830C858 575 880 597 880 625H830C802 625 780 603 780 575Z " transform="matrix(-0.1817342274783945,0.23260920374404453,-0.23260920374404453,-0.1817342274783945,1120.4049310534942,515.9748973794797)" filter="url(#llleaves-blur-3)" opacity="0.45"></path><path d="M667 16H717C745 16 767 38 767 66H717C689 66 667 44 667 16Z " transform="matrix(0.052219190538175184,0.20943973377518826,-0.20943973377518826,0.052219190538175184,688.1458694689111,-111.30927592887514)" filter="url(#llleaves-blur-3)" opacity="0.33"></path><path d="M645 277H695C723 277 745 299 745 327H695C667 327 645 305 645 277Z " transform="matrix(-0.3436102500742593,0.08567165740746095,-0.08567165740746095,-0.3436102500742593,959.6819643386633,346.22849362424097)" filter="url(#llleaves-blur-2)" opacity="0.54"></path><path d="M271 193H321C349 193 371 215 371 243H321C293 243 271 221 271 193Z " transform="matrix(-0.21402310323205484,-0.42004399082404403,0.42004399082404403,-0.21402310323205484,298.131826137848,399.4911575591061)" opacity="0.72"></path><path d="M1255 12H1305C1333 12 1355 34 1355 62H1305C1277 62 1255 40 1255 12Z " transform="matrix(-0.2357707236964862,0.2049523632746894,-0.2049523632746894,-0.2357707236964862,1620.264031865078,-221.7393172966997)" filter="url(#llleaves-blur-2)" opacity="0.48"></path><path d="M630 465H680C708 465 730 487 730 515H680C652 515 630 493 630 465Z " transform="matrix(-0.36549217701399345,0.031976422096134896,-0.031976422096134896,-0.36549217701399345,944.2031271966217,647.347199711485)" filter="url(#llleaves-blur-2)" opacity="0.56"></path><path d="M357 389H407C435 389 457 411 457 439H407C379 439 357 417 357 389Z " transform="matrix(-0.2799642745578195,-0.35833793053328694,0.35833793053328694,-0.2799642745578195,372.59355650425175,675.748747393985)" opacity="0.70"></path><path d="M461 732H511C539 732 561 754 561 782H511C483 782 461 760 461 732Z " transform="matrix(-0.3594393902382925,-0.2246026588288856,0.2246026588288856,-0.3594393902382925,524.649315678301,1143.8675770719478)" opacity="0.65"></path><path d="M275 423H325C353 423 375 445 375 473H325C297 473 275 451 275 423Z " transform="matrix(-0.21402310323205484,-0.42004399082404403,0.42004399082404403,-0.21402310323205484,206.3778006612461,680.3966472657748)" opacity="0.72"></path><path d="M1152 302H1202C1230 302 1252 324 1252 352H1202C1174 352 1152 330 1152 302Z " transform="matrix(-0.12634701195017373,0.24796997299259585,-0.24796997299259585,-0.12634701195017373,1434.9552895326876,70.25556537060658)" filter="url(#llleaves-blur-3)" opacity="0.43"></path><path d="M403 659H453C481 659 503 681 503 709H453C425 709 403 687 403 659Z " transform="matrix(-0.32250672317065227,-0.30074238473745574,0.30074238473745574,-0.32250672317065227,393.38775443588577,1040.8308989347936)" opacity="0.68"></path><path d="M756 129H806C834 129 856 151 856 179H806C778 179 756 157 756 129Z " transform="matrix(-0.11167045262826977,0.25081594316162276,-0.25081594316162276,-0.11167045262826977,934.6320400652753,-30.960400483514405)" filter="url(#llleaves-blur-3)" opacity="0.42"></path><path d="M1073 252H1123C1151 252 1173 274 1173 302H1123C1095 302 1073 280 1073 252Z " transform="matrix(-0.06759541005860203,0.25226950469715503,-0.25226950469715503,-0.06759541005860203,1268.788298296922,12.425274811327654)" filter="url(#llleaves-blur-3)" opacity="0.40"></path><path d="M1257 92H1307C1335 92 1357 114 1357 142H1307C1279 142 1257 120 1257 92Z " transform="matrix(-0.22155290238183262,0.21395115085606317,-0.21395115085606317,-0.22155290238183262,1621.601928063215,-136.7124645902001)" filter="url(#llleaves-blur-2)" opacity="0.47"></path><path d="M1335 472H1385C1413 472 1435 494 1435 522H1385C1357 522 1335 500 1335 472Z " transform="matrix(-0.34028549584579737,0.09117922380790566,-0.09117922380790566,-0.34028549584579737,1901.6114859789584,539.838666461412)" filter="url(#llleaves-blur-2)" opacity="0.54"></path><path d="M698 532H748C776 532 798 554 798 582H748C720 582 698 560 698 532Z " transform="matrix(-0.2848446967355949,0.16445516233753302,-0.16445516233753302,-0.2848446967355949,1052.665358580231,592.6460346532517)" filter="url(#llleaves-blur-2)" opacity="0.50"></path><path d="M1068 354H1118C1146 354 1168 376 1168 404H1118C1090 404 1068 382 1068 354Z " transform="matrix(-0.06759541005860203,0.25226950469715503,-0.25226950469715503,-0.06759541005860203,1289.1818107257388,122.5813541607908)" filter="url(#llleaves-blur-3)" opacity="0.40"></path><path d="M332 508H382C410 508 432 530 432 558H382C354 558 332 536 332 508Z " transform="matrix(-0.25759491260248424,-0.3819001631118933,0.3819001631118933,-0.25759491260248424,276.8484696755098,816.1839507258671)" opacity="0.71"></path><path d="M1148 654H1198C1226 654 1248 676 1248 704H1198C1170 704 1148 682 1148 654Z " transform="matrix(-0.12634701195017373,0.24796997299259585,-0.24796997299259585,-0.12634701195017373,1517.7353319782806,467.7215934690381)" filter="url(#llleaves-blur-3)" opacity="0.43"></path><path d="M1156 397H1206C1234 397 1256 419 1256 447H1206C1178 447 1156 425 1156 397Z " transform="matrix(-0.12634701195017373,0.24796997299259585,-0.24796997299259585,-0.12634701195017373,1463.0178250147849,176.26665161390272)" filter="url(#llleaves-blur-3)" opacity="0.43"></path><path d="M344 731H394C422 731 444 753 444 781H394C366 781 344 759 344 731Z " transform="matrix(-0.2799642745578195,-0.35833793053328694,0.35833793053328694,-0.2799642745578195,233.40244869261596,1108.8381361958266)" opacity="0.70"></path><path d="M769 237H819C847 237 869 259 869 287H819C791 287 769 265 769 237Z " transform="matrix(-0.21609323101844702,0.21609323101844705,-0.21609323101844705,-0.21609323101844702,1052.5967827309412,141.636070322725)" filter="url(#llleaves-blur-2)" opacity="0.47"></path><path d="M753 29H803C831 29 853 51 853 79H803C775 79 753 57 753 29Z " transform="matrix(0.11494324890728656,0.1322270821662833,-0.1322270821662833,0.11494324890728656,717.8408335644282,-58.38528242051896)" filter="url(#llleaves-blur-4)" opacity="0.27"></path><path d="M1251 436H1301C1329 436 1351 458 1351 486H1301C1273 486 1251 464 1251 436Z " transform="matrix(-0.22655162547020088,0.2112628085399717,-0.2112628085399717,-0.22655162547020088,1693.1358194736583,290.58738543125946)" filter="url(#llleaves-blur-2)" opacity="0.47"></path><path d="M215 347H265C293 347 315 369 315 397H265C237 397 215 375 215 347Z " transform="matrix(-0.16477289752427662,-0.45270981528605947,0.45270981528605947,-0.16477289752427662,140.25676655751914,553.2636189298366)" opacity="0.74"></path><path d="M421 478H471C499 478 521 500 521 528H471C443 528 421 506 421 478Z " transform="matrix(-0.32250672317065227,-0.30074238473745574,0.30074238473745574,-0.32250672317065227,471.627247090437,806.8705449661798)" opacity="0.68"></path><path d="M1001 731H1051C1079 731 1101 753 1101 781H1051C1023 781 1001 759 1001 731Z " transform="matrix(-0.058060302437528924,0.2514867992617983,-0.2514867992617983,-0.058060302437528924,1302.1453981037623,535.5809626186219)" filter="url(#llleaves-blur-3)" opacity="0.39"></path><path d="M157 540H207C235 540 257 562 257 590H207C179 590 157 568 157 540Z " transform="matrix(-0.14233696736050278,-0.4655632423981915,0.4655632423981915,-0.14233696736050278,-26.57947971135411,741.7919777351096)" opacity="0.75"></path><path d="M74 125H124C152 125 174 147 174 175H124C96 175 74 153 74 125Z " transform="matrix(-0.1573474202922859,-0.45697008958708624,0.45697008958708624,-0.1573474202922859,74.96556667818052,230.2664041526416)" opacity="0.74"></path><path d="M111 399H161C189 399 211 421 211 449H161C133 449 111 427 111 399Z " transform="matrix(-0.09465936778579856,-0.48698023069163887,0.48698023069163887,-0.09465936778579856,-30.239459599741338,542.5393890825325)" opacity="0.76"></path><path d="M1010 507H1060C1088 507 1110 529 1110 557H1060C1032 557 1010 535 1010 507Z " transform="matrix(-0.058060302437528924,0.2514867992617983,-0.2514867992617983,-0.058060302437528924,1255.3348977910573,296.31207367925924)" filter="url(#llleaves-blur-3)" opacity="0.39"></path><path d="M906 471H956C984 471 1006 493 1006 521H956C928 521 906 499 906 471Z " transform="matrix(-0.08201408344139022,0.2524133944240843,-0.2524133944240843,-0.08201408344139022,1159.6025074043148,295.371780317505)" filter="url(#llleaves-blur-3)" opacity="0.41"></path><path d="M473 214H523C551 214 573 236 573 264H523C495 264 473 242 473 214Z " transform="matrix(-0.3594393902382925,-0.2246026588288856,0.2246026588288856,-0.3594393902382925,657.3067656345233,442.373204834459)" opacity="0.65"></path><path d="M1237 350H1287C1315 350 1337 372 1337 400H1287C1259 400 1237 378 1237 350Z " transform="matrix(-0.22655162547020088,0.2112628085399717,-0.2112628085399717,-0.22655162547020088,1657.795495182638,188.0616249603818)" filter="url(#llleaves-blur-2)" opacity="0.47"></path><path d="M565 730H615C643 730 665 752 665 780H615C587 780 565 758 565 730Z " transform="matrix(-0.38438884023158754,-0.07471762159330503,0.07471762159330503,-0.38438884023158754,794.9873324394811,1091.1649116547312)" filter="url(#llleaves-blur-2)" opacity="0.60"></path><path d="M135 307H185C213 307 235 329 235 357H185C157 357 135 335 135 307Z " transform="matrix(-0.1189452390804376,-0.4770632970386816,0.4770632970386816,-0.1189452390804376,48.619854613038655,459.7465293268613)" opacity="0.76"></path><path d="M1106 732H1156C1184 732 1206 754 1206 782H1156C1128 782 1106 760 1106 732Z " transform="matrix(-0.10148754413454296,0.25119048627291335,-0.25119048627291335,-0.10148754413454296,1463.470799128127,543.4498687783612)" filter="url(#llleaves-blur-3)" opacity="0.41"></path><path d="M502 535H552C580 535 602 557 602 585H552C524 585 502 563 502 535Z " transform="matrix(-0.3751311106772077,-0.17492650972097223,0.17492650972097223,-0.3751311106772077,661.1135276500742,866.632855345213)" opacity="0.64"></path><path d="M717 423H767C795 423 817 445 817 473H767C739 473 717 451 717 423Z " transform="matrix(-0.2848446967355949,0.16445516233753302,-0.16445516233753302,-0.2848446967355949,1059.151795123416,449.4733146246587)" filter="url(#llleaves-blur-2)" opacity="0.50"></path><path d="M987 306H1037C1065 306 1087 328 1087 356H1037C1009 356 987 334 987 306Z " transform="matrix(-0.058060302437528924,0.2514867992617983,-0.2514867992617983,-0.058060302437528924,1180.4506641833727,89.42614927233723)" filter="url(#llleaves-blur-3)" opacity="0.39"></path><path d="M482 23H532C560 23 582 45 582 73H532C504 73 482 51 482 23Z " transform="matrix(-0.28961890926426015,0.16053838287705766,-0.16053838287705766,-0.28961890926426015,693.7831021066852,-23.504712045910182)" filter="url(#llleaves-blur-2)" opacity="0.51"></path><path d="M-9 108H41C69 108 91 130 91 158H41C13 158 -9 136 -9 108Z " transform="matrix(-0.22034126611626928,-0.41440165059278666,0.41440165059278666,-0.22034126611626928,-5.08142761807359,179.29585606776809)" opacity="0.72"></path><path d="M-3 204H47C75 204 97 226 97 254H47C19 254 -3 232 -3 204Z " transform="matrix(-0.03535435514347864,-0.5055908336281528,0.5055908336281528,-0.03535435514347864,-67.11864620910349,260.8589165083798)" opacity="0.78"></path><path d="M874 565H924C952 565 974 587 974 615H924C896 615 874 593 874 565Z " transform="matrix(-0.1014572884035773,0.2511156007109598,-0.2511156007109598,-0.1014572884035773,1165.9047389043717,417.8289851011838)" filter="url(#llleaves-blur-3)" opacity="0.41"></path><path d="M1010 99H1060C1088 99 1110 121 1110 149H1060C1032 149 1010 127 1010 99Z " transform="matrix(0.06510434684143114,0.2003705764724203,-0.2003705764724203,0.06510434684143114,1015.8353438306631,-96.46575006910297)" filter="url(#llleaves-blur-3)" opacity="0.32"></path><path d="M890 735H940C968 735 990 757 990 785H940C912 785 890 763 890 735Z " transform="matrix(-0.1014572884035773,0.2511156007109598,-0.2511156007109598,-0.1014572884035773,1226.217707639692,601.0588745184166)" filter="url(#llleaves-blur-3)" opacity="0.41"></path><path d="M53 334H103C131 334 153 356 153 384H103C75 384 53 362 53 334Z " transform="matrix(-0.052588471957161015,-0.5003458882910946,0.5003458882910946,-0.052588471957161015,-71.20756128491536,429.41488792660357)" opacity="0.77"></path><path d="M935 655H985C1013 655 1035 677 1035 705H985C957 705 935 683 935 655Z " transform="matrix(-0.07206211748343895,0.2513104693655056,-0.2513104693655056,-0.07206211748343895,1226.8723048897311,481.46142756371546)" filter="url(#llleaves-blur-3)" opacity="0.40"></path><path d="M594 180H644C672 180 694 202 694 230H644C616 230 594 208 594 180Z " transform="matrix(-0.37892329301899474,-0.019858528305742525,0.019858528305742525,-0.37892329301899474,883.9556024015553,295.46816729779215)" filter="url(#llleaves-blur-2)" opacity="0.58"></path><path d="M836 300H886C914 300 936 322 936 350H886C858 350 836 328 836 300Z " transform="matrix(-0.15146612430636897,0.24239646870750625,-0.24239646870750625,-0.15146612430636897,1098.9778384653823,159.46321912471936)" filter="url(#llleaves-blur-3)" opacity="0.44"></path><path d="M620 367H670C698 367 720 389 720 417H670C642 417 620 395 620 367Z " transform="matrix(-0.36549217701399345,0.031976422096134896,-0.031976422096134896,-0.36549217701399345,927.4145160610603,513.848730585075)" filter="url(#llleaves-blur-2)" opacity="0.56"></path><path d="M1258 648H1308C1336 648 1358 670 1358 698H1308C1280 698 1258 676 1258 648Z " transform="matrix(-0.2677411265423071,0.18059367016177205,-0.18059367016177205,-0.2677411265423071,1779.7449335362103,616.9732575913748)" filter="url(#llleaves-blur-2)" opacity="0.49"></path><path d="M429 120H479C507 120 529 142 529 170H479C451 170 429 148 429 120Z " transform="matrix(-0.38398713788120536,-0.10288904349920697,0.10288904349920697,-0.38398713788120536,648.0109277377123,249.9619868288949)" filter="url(#llleaves-blur-2)" opacity="0.61"></path><path d="M-7 630H43C71 630 93 652 93 680H43C15 680 -7 658 -7 630Z " transform="matrix(-0.03535435514347864,-0.5055908336281528,0.5055908336281528,-0.03535435514347864,-286.64175875527053,699.8975084649891)" opacity="0.78"></path><path d="M406 574H456C484 574 506 596 506 624H456C428 624 406 602 406 574Z " transform="matrix(-0.32250672317065227,-0.30074238473745574,0.30074238473745574,-0.32250672317065227,422.91837730808146,929.3200546195006)" opacity="0.68"></path><path d="M1244 269H1294C1322 269 1344 291 1344 319H1294C1266 319 1244 297 1244 269Z " transform="matrix(-0.22655162547020088,0.2112628085399717,-0.2112628085399717,-0.22655162547020088,1649.2690690691913,87.23210363751568)" filter="url(#llleaves-blur-2)" opacity="0.47"></path><path d="M80 581H130C158 581 180 603 180 631H130C102 631 80 609 80 581Z " transform="matrix(-0.06958029515331093,-0.4950895254084271,0.4950895254084271,-0.06958029515331093,-160.9788140275764,712.527297166002)" opacity="0.77"></path><path d="M247 537H297C325 537 347 559 347 587H297C269 587 247 565 247 537Z " transform="matrix(-0.21402310323205484,-0.42004399082404403,0.42004399082404403,-0.21402310323205484,124.50013881680755,807.0340492911561)" opacity="0.72"></path><path d="M552 261H602C630 261 652 283 652 311H602C574 311 552 289 552 261Z " transform="matrix(-0.38438884023158754,-0.07471762159330503,0.07471762159330503,-0.38438884023158754,812.0328420437305,440.9152165054037)" filter="url(#llleaves-blur-2)" opacity="0.60"></path><path d="M452 397H502C530 397 552 419 552 447H502C474 447 452 425 452 397Z " transform="matrix(-0.34110089776837016,-0.26649722861496455,0.26649722861496455,-0.34110089776837016,560.7708202042068,699.7261876229645)" opacity="0.66"></path><path d="M1251 181H1301C1329 181 1351 203 1351 231H1301C1273 231 1251 209 1251 181Z " transform="matrix(-0.22655162547020088,0.2112628085399717,-0.2112628085399717,-0.22655162547020088,1639.2638032959658,-22.183279063641777)" filter="url(#llleaves-blur-2)" opacity="0.47"></path></g></svg>