<svg xmlns="http://www.w3.org/2000/svg" version="1.1" xmlns:xlink="http://www.w3.org/1999/xlink" xmlns:svgjs="http://svgjs.dev/svgjs" viewBox="0 0 1422 800" width="1422" height="800"><g transform="scale(1) rotate(0) translate(0 0) skewX(0) skewY(0)" transform-origin="711 400"><rect width="2844" height="1600" x="-711" y="-400" fill="url(#rrreplicate-pattern1)"></rect><rect width="2844" height="1600" x="-711" y="-400" fill="url(#rrreplicate-pattern2)"></rect><rect width="2844" height="1600" x="-711" y="-400" fill="url(#rrreplicate-pattern3)"></rect></g><defs><pattern id="rrreplicate-pattern1" width="260" height="260" patternUnits="userSpaceOnUse" patternTransform="rotate(30)" stroke-width="4" fill="none" stroke="#C401C4" stroke-opacity="0.48">
      <line x1="32.5" y1="0" x2="32.5" y2="260"></line><line x1="97.5" y1="0" x2="97.5" y2="260"></line><line x1="162.5" y1="0" x2="162.5" y2="260"></line><line x1="227.5" y1="0" x2="227.5" y2="260"></line>
      </pattern><pattern id="rrreplicate-pattern2" width="260" height="260" patternUnits="userSpaceOnUse" patternTransform="rotate(30)" stroke-opacity="0.67" stroke-width="2.2" fill="none" stroke="#50DA4C">
      <line x1="65" y1="0" x2="65" y2="260"></line><line x1="195" y1="0" x2="195" y2="260"></line>
      </pattern><pattern id="rrreplicate-pattern3" width="260" height="260" patternUnits="userSpaceOnUse" patternTransform="rotate(115)" stroke-opacity="1" stroke-width="1.2" fill="none" stroke="#183717">
      <line x1="32.5" y1="0" x2="32.5" y2="260"></line><line x1="97.5" y1="0" x2="97.5" y2="260"></line><line x1="162.5" y1="0" x2="162.5" y2="260"></line><line x1="227.5" y1="0" x2="227.5" y2="260"></line>
      </pattern></defs></svg>