<svg xmlns="http://www.w3.org/2000/svg" version="1.1" xmlns:xlink="http://www.w3.org/1999/xlink" xmlns:svgjs="http://svgjs.dev/svgjs" viewBox="0 0 800 800"><defs><linearGradient gradientTransform="rotate(270)" x1="50%" y1="0%" x2="50%" y2="100%" id="sssquiggly-grad"><stop stop-color="#C401C4" stop-opacity="1" offset="0%"></stop><stop stop-color="#183717" stop-opacity="1" offset="100%"></stop></linearGradient></defs><g stroke-width="2" stroke="url(#sssquiggly-grad)" fill="none" stroke-linecap="round" transform="matrix(1,0,0,1,0,-585.62864112854)"><path d="M10,10C21.805555555555557,15.833333333333334,40.97222222222223,43.208333333333336,66.66666666666667,38C92.36111111111111,32.791666666666664,105.55555555555557,-13.958333333333334,133.33333333333334,-15C161.11111111111111,-16.041666666666668,172.22222222222223,31.333333333333332,200,33C227.77777777777777,34.666666666666664,238.8888888888889,-8.041666666666666,266.6666666666667,-7C294.44444444444446,-5.958333333333333,305.5555555555556,39.458333333333336,333.33333333333337,38C361.11111111111114,36.541666666666664,372.22222222222223,-11.5,400,-14C427.77777777777777,-16.5,438.8888888888889,25.166666666666668,466.6666666666667,26C494.44444444444446,26.833333333333332,505.5555555555556,-11.875,533.3333333333334,-10C561.1111111111111,-8.125,572.2222222222222,35,600,35C627.7777777777778,35,638.8888888888889,-15.416666666666666,666.6666666666667,-10C694.4444444444446,-4.583333333333334,707.6388888888889,56.833333333333336,733.3333333333334,61C759.0277777777778,65.16666666666667,778.1944444444445,20.625,790,10"></path><path d="M10,10C21.805555555555557,15.833333333333334,40.97222222222223,43.208333333333336,66.66666666666667,38C92.36111111111111,32.791666666666664,105.55555555555557,-13.958333333333334,133.33333333333334,-15C161.11111111111111,-16.041666666666668,172.22222222222223,31.333333333333332,200,33C227.77777777777777,34.666666666666664,238.8888888888889,-8.041666666666666,266.6666666666667,-7C294.44444444444446,-5.958333333333333,305.5555555555556,39.458333333333336,333.33333333333337,38C361.11111111111114,36.541666666666664,372.22222222222223,-11.5,400,-14C427.77777777777777,-16.5,438.8888888888889,25.166666666666668,466.6666666666667,26C494.44444444444446,26.833333333333332,505.5555555555556,-11.875,533.3333333333334,-10C561.1111111111111,-8.125,572.2222222222222,35,600,35C627.7777777777778,35,638.8888888888889,-15.416666666666666,666.6666666666667,-10C694.4444444444446,-4.583333333333334,707.6388888888889,56.833333333333336,733.3333333333334,61C759.0277777777778,65.16666666666667,778.1944444444445,20.625,790,10" transform="matrix(1,0,0,1,0,1925)"></path><path d="M10,10C21.805555555555557,15.833333333333334,40.97222222222223,43.208333333333336,66.66666666666667,38C92.36111111111111,32.791666666666664,105.55555555555557,-13.958333333333334,133.33333333333334,-15C161.11111111111111,-16.041666666666668,172.22222222222223,31.333333333333332,200,33C227.77777777777777,34.666666666666664,238.8888888888889,-8.041666666666666,266.6666666666667,-7C294.44444444444446,-5.958333333333333,305.5555555555556,39.458333333333336,333.33333333333337,38C361.11111111111114,36.541666666666664,372.22222222222223,-11.5,400,-14C427.77777777777777,-16.5,438.8888888888889,25.166666666666668,466.6666666666667,26C494.44444444444446,26.833333333333332,505.5555555555556,-11.875,533.3333333333334,-10C561.1111111111111,-8.125,572.2222222222222,35,600,35C627.7777777777778,35,638.8888888888889,-15.416666666666666,666.6666666666667,-10C694.4444444444446,-4.583333333333334,707.6388888888889,56.833333333333336,733.3333333333334,61C759.0277777777778,65.16666666666667,778.1944444444445,20.625,790,10" transform="matrix(1,0,0,1,0,1890)"></path><path d="M10,10C21.805555555555557,15.833333333333334,40.97222222222223,43.208333333333336,66.66666666666667,38C92.36111111111111,32.791666666666664,105.55555555555557,-13.958333333333334,133.33333333333334,-15C161.11111111111111,-16.041666666666668,172.22222222222223,31.333333333333332,200,33C227.77777777777777,34.666666666666664,238.8888888888889,-8.041666666666666,266.6666666666667,-7C294.44444444444446,-5.958333333333333,305.5555555555556,39.458333333333336,333.33333333333337,38C361.11111111111114,36.541666666666664,372.22222222222223,-11.5,400,-14C427.77777777777777,-16.5,438.8888888888889,25.166666666666668,466.6666666666667,26C494.44444444444446,26.833333333333332,505.5555555555556,-11.875,533.3333333333334,-10C561.1111111111111,-8.125,572.2222222222222,35,600,35C627.7777777777778,35,638.8888888888889,-15.416666666666666,666.6666666666667,-10C694.4444444444446,-4.583333333333334,707.6388888888889,56.833333333333336,733.3333333333334,61C759.0277777777778,65.16666666666667,778.1944444444445,20.625,790,10" transform="matrix(1,0,0,1,0,1855)"></path><path d="M10,10C21.805555555555557,15.833333333333334,40.97222222222223,43.208333333333336,66.66666666666667,38C92.36111111111111,32.791666666666664,105.55555555555557,-13.958333333333334,133.33333333333334,-15C161.11111111111111,-16.041666666666668,172.22222222222223,31.333333333333332,200,33C227.77777777777777,34.666666666666664,238.8888888888889,-8.041666666666666,266.6666666666667,-7C294.44444444444446,-5.958333333333333,305.5555555555556,39.458333333333336,333.33333333333337,38C361.11111111111114,36.541666666666664,372.22222222222223,-11.5,400,-14C427.77777777777777,-16.5,438.8888888888889,25.166666666666668,466.6666666666667,26C494.44444444444446,26.833333333333332,505.5555555555556,-11.875,533.3333333333334,-10C561.1111111111111,-8.125,572.2222222222222,35,600,35C627.7777777777778,35,638.8888888888889,-15.416666666666666,666.6666666666667,-10C694.4444444444446,-4.583333333333334,707.6388888888889,56.833333333333336,733.3333333333334,61C759.0277777777778,65.16666666666667,778.1944444444445,20.625,790,10" transform="matrix(1,0,0,1,0,1820)"></path><path d="M10,10C21.805555555555557,15.833333333333334,40.97222222222223,43.208333333333336,66.66666666666667,38C92.36111111111111,32.791666666666664,105.55555555555557,-13.958333333333334,133.33333333333334,-15C161.11111111111111,-16.041666666666668,172.22222222222223,31.333333333333332,200,33C227.77777777777777,34.666666666666664,238.8888888888889,-8.041666666666666,266.6666666666667,-7C294.44444444444446,-5.958333333333333,305.5555555555556,39.458333333333336,333.33333333333337,38C361.11111111111114,36.541666666666664,372.22222222222223,-11.5,400,-14C427.77777777777777,-16.5,438.8888888888889,25.166666666666668,466.6666666666667,26C494.44444444444446,26.833333333333332,505.5555555555556,-11.875,533.3333333333334,-10C561.1111111111111,-8.125,572.2222222222222,35,600,35C627.7777777777778,35,638.8888888888889,-15.416666666666666,666.6666666666667,-10C694.4444444444446,-4.583333333333334,707.6388888888889,56.833333333333336,733.3333333333334,61C759.0277777777778,65.16666666666667,778.1944444444445,20.625,790,10" transform="matrix(1,0,0,1,0,1785)"></path><path d="M10,10C21.805555555555557,15.833333333333334,40.97222222222223,43.208333333333336,66.66666666666667,38C92.36111111111111,32.791666666666664,105.55555555555557,-13.958333333333334,133.33333333333334,-15C161.11111111111111,-16.041666666666668,172.22222222222223,31.333333333333332,200,33C227.77777777777777,34.666666666666664,238.8888888888889,-8.041666666666666,266.6666666666667,-7C294.44444444444446,-5.958333333333333,305.5555555555556,39.458333333333336,333.33333333333337,38C361.11111111111114,36.541666666666664,372.22222222222223,-11.5,400,-14C427.77777777777777,-16.5,438.8888888888889,25.166666666666668,466.6666666666667,26C494.44444444444446,26.833333333333332,505.5555555555556,-11.875,533.3333333333334,-10C561.1111111111111,-8.125,572.2222222222222,35,600,35C627.7777777777778,35,638.8888888888889,-15.416666666666666,666.6666666666667,-10C694.4444444444446,-4.583333333333334,707.6388888888889,56.833333333333336,733.3333333333334,61C759.0277777777778,65.16666666666667,778.1944444444445,20.625,790,10" transform="matrix(1,0,0,1,0,1750)"></path><path d="M10,10C21.805555555555557,15.833333333333334,40.97222222222223,43.208333333333336,66.66666666666667,38C92.36111111111111,32.791666666666664,105.55555555555557,-13.958333333333334,133.33333333333334,-15C161.11111111111111,-16.041666666666668,172.22222222222223,31.333333333333332,200,33C227.77777777777777,34.666666666666664,238.8888888888889,-8.041666666666666,266.6666666666667,-7C294.44444444444446,-5.958333333333333,305.5555555555556,39.458333333333336,333.33333333333337,38C361.11111111111114,36.541666666666664,372.22222222222223,-11.5,400,-14C427.77777777777777,-16.5,438.8888888888889,25.166666666666668,466.6666666666667,26C494.44444444444446,26.833333333333332,505.5555555555556,-11.875,533.3333333333334,-10C561.1111111111111,-8.125,572.2222222222222,35,600,35C627.7777777777778,35,638.8888888888889,-15.416666666666666,666.6666666666667,-10C694.4444444444446,-4.583333333333334,707.6388888888889,56.833333333333336,733.3333333333334,61C759.0277777777778,65.16666666666667,778.1944444444445,20.625,790,10" transform="matrix(1,0,0,1,0,1715)"></path><path d="M10,10C21.805555555555557,15.833333333333334,40.97222222222223,43.208333333333336,66.66666666666667,38C92.36111111111111,32.791666666666664,105.55555555555557,-13.958333333333334,133.33333333333334,-15C161.11111111111111,-16.041666666666668,172.22222222222223,31.333333333333332,200,33C227.77777777777777,34.666666666666664,238.8888888888889,-8.041666666666666,266.6666666666667,-7C294.44444444444446,-5.958333333333333,305.5555555555556,39.458333333333336,333.33333333333337,38C361.11111111111114,36.541666666666664,372.22222222222223,-11.5,400,-14C427.77777777777777,-16.5,438.8888888888889,25.166666666666668,466.6666666666667,26C494.44444444444446,26.833333333333332,505.5555555555556,-11.875,533.3333333333334,-10C561.1111111111111,-8.125,572.2222222222222,35,600,35C627.7777777777778,35,638.8888888888889,-15.416666666666666,666.6666666666667,-10C694.4444444444446,-4.583333333333334,707.6388888888889,56.833333333333336,733.3333333333334,61C759.0277777777778,65.16666666666667,778.1944444444445,20.625,790,10" transform="matrix(1,0,0,1,0,1680)"></path><path d="M10,10C21.805555555555557,15.833333333333334,40.97222222222223,43.208333333333336,66.66666666666667,38C92.36111111111111,32.791666666666664,105.55555555555557,-13.958333333333334,133.33333333333334,-15C161.11111111111111,-16.041666666666668,172.22222222222223,31.333333333333332,200,33C227.77777777777777,34.666666666666664,238.8888888888889,-8.041666666666666,266.6666666666667,-7C294.44444444444446,-5.958333333333333,305.5555555555556,39.458333333333336,333.33333333333337,38C361.11111111111114,36.541666666666664,372.22222222222223,-11.5,400,-14C427.77777777777777,-16.5,438.8888888888889,25.166666666666668,466.6666666666667,26C494.44444444444446,26.833333333333332,505.5555555555556,-11.875,533.3333333333334,-10C561.1111111111111,-8.125,572.2222222222222,35,600,35C627.7777777777778,35,638.8888888888889,-15.416666666666666,666.6666666666667,-10C694.4444444444446,-4.583333333333334,707.6388888888889,56.833333333333336,733.3333333333334,61C759.0277777777778,65.16666666666667,778.1944444444445,20.625,790,10" transform="matrix(1,0,0,1,0,1645)"></path><path d="M10,10C21.805555555555557,15.833333333333334,40.97222222222223,43.208333333333336,66.66666666666667,38C92.36111111111111,32.791666666666664,105.55555555555557,-13.958333333333334,133.33333333333334,-15C161.11111111111111,-16.041666666666668,172.22222222222223,31.333333333333332,200,33C227.77777777777777,34.666666666666664,238.8888888888889,-8.041666666666666,266.6666666666667,-7C294.44444444444446,-5.958333333333333,305.5555555555556,39.458333333333336,333.33333333333337,38C361.11111111111114,36.541666666666664,372.22222222222223,-11.5,400,-14C427.77777777777777,-16.5,438.8888888888889,25.166666666666668,466.6666666666667,26C494.44444444444446,26.833333333333332,505.5555555555556,-11.875,533.3333333333334,-10C561.1111111111111,-8.125,572.2222222222222,35,600,35C627.7777777777778,35,638.8888888888889,-15.416666666666666,666.6666666666667,-10C694.4444444444446,-4.583333333333334,707.6388888888889,56.833333333333336,733.3333333333334,61C759.0277777777778,65.16666666666667,778.1944444444445,20.625,790,10" transform="matrix(1,0,0,1,0,1610)"></path><path d="M10,10C21.805555555555557,15.833333333333334,40.97222222222223,43.208333333333336,66.66666666666667,38C92.36111111111111,32.791666666666664,105.55555555555557,-13.958333333333334,133.33333333333334,-15C161.11111111111111,-16.041666666666668,172.22222222222223,31.333333333333332,200,33C227.77777777777777,34.666666666666664,238.8888888888889,-8.041666666666666,266.6666666666667,-7C294.44444444444446,-5.958333333333333,305.5555555555556,39.458333333333336,333.33333333333337,38C361.11111111111114,36.541666666666664,372.22222222222223,-11.5,400,-14C427.77777777777777,-16.5,438.8888888888889,25.166666666666668,466.6666666666667,26C494.44444444444446,26.833333333333332,505.5555555555556,-11.875,533.3333333333334,-10C561.1111111111111,-8.125,572.2222222222222,35,600,35C627.7777777777778,35,638.8888888888889,-15.416666666666666,666.6666666666667,-10C694.4444444444446,-4.583333333333334,707.6388888888889,56.833333333333336,733.3333333333334,61C759.0277777777778,65.16666666666667,778.1944444444445,20.625,790,10" transform="matrix(1,0,0,1,0,1575)"></path><path d="M10,10C21.805555555555557,15.833333333333334,40.97222222222223,43.208333333333336,66.66666666666667,38C92.36111111111111,32.791666666666664,105.55555555555557,-13.958333333333334,133.33333333333334,-15C161.11111111111111,-16.041666666666668,172.22222222222223,31.333333333333332,200,33C227.77777777777777,34.666666666666664,238.8888888888889,-8.041666666666666,266.6666666666667,-7C294.44444444444446,-5.958333333333333,305.5555555555556,39.458333333333336,333.33333333333337,38C361.11111111111114,36.541666666666664,372.22222222222223,-11.5,400,-14C427.77777777777777,-16.5,438.8888888888889,25.166666666666668,466.6666666666667,26C494.44444444444446,26.833333333333332,505.5555555555556,-11.875,533.3333333333334,-10C561.1111111111111,-8.125,572.2222222222222,35,600,35C627.7777777777778,35,638.8888888888889,-15.416666666666666,666.6666666666667,-10C694.4444444444446,-4.583333333333334,707.6388888888889,56.833333333333336,733.3333333333334,61C759.0277777777778,65.16666666666667,778.1944444444445,20.625,790,10" transform="matrix(1,0,0,1,0,1540)"></path><path d="M10,10C21.805555555555557,15.833333333333334,40.97222222222223,43.208333333333336,66.66666666666667,38C92.36111111111111,32.791666666666664,105.55555555555557,-13.958333333333334,133.33333333333334,-15C161.11111111111111,-16.041666666666668,172.22222222222223,31.333333333333332,200,33C227.77777777777777,34.666666666666664,238.8888888888889,-8.041666666666666,266.6666666666667,-7C294.44444444444446,-5.958333333333333,305.5555555555556,39.458333333333336,333.33333333333337,38C361.11111111111114,36.541666666666664,372.22222222222223,-11.5,400,-14C427.77777777777777,-16.5,438.8888888888889,25.166666666666668,466.6666666666667,26C494.44444444444446,26.833333333333332,505.5555555555556,-11.875,533.3333333333334,-10C561.1111111111111,-8.125,572.2222222222222,35,600,35C627.7777777777778,35,638.8888888888889,-15.416666666666666,666.6666666666667,-10C694.4444444444446,-4.583333333333334,707.6388888888889,56.833333333333336,733.3333333333334,61C759.0277777777778,65.16666666666667,778.1944444444445,20.625,790,10" transform="matrix(1,0,0,1,0,1505)"></path><path d="M10,10C21.805555555555557,15.833333333333334,40.97222222222223,43.208333333333336,66.66666666666667,38C92.36111111111111,32.791666666666664,105.55555555555557,-13.958333333333334,133.33333333333334,-15C161.11111111111111,-16.041666666666668,172.22222222222223,31.333333333333332,200,33C227.77777777777777,34.666666666666664,238.8888888888889,-8.041666666666666,266.6666666666667,-7C294.44444444444446,-5.958333333333333,305.5555555555556,39.458333333333336,333.33333333333337,38C361.11111111111114,36.541666666666664,372.22222222222223,-11.5,400,-14C427.77777777777777,-16.5,438.8888888888889,25.166666666666668,466.6666666666667,26C494.44444444444446,26.833333333333332,505.5555555555556,-11.875,533.3333333333334,-10C561.1111111111111,-8.125,572.2222222222222,35,600,35C627.7777777777778,35,638.8888888888889,-15.416666666666666,666.6666666666667,-10C694.4444444444446,-4.583333333333334,707.6388888888889,56.833333333333336,733.3333333333334,61C759.0277777777778,65.16666666666667,778.1944444444445,20.625,790,10" transform="matrix(1,0,0,1,0,1470)"></path><path d="M10,10C21.805555555555557,15.833333333333334,40.97222222222223,43.208333333333336,66.66666666666667,38C92.36111111111111,32.791666666666664,105.55555555555557,-13.958333333333334,133.33333333333334,-15C161.11111111111111,-16.041666666666668,172.22222222222223,31.333333333333332,200,33C227.77777777777777,34.666666666666664,238.8888888888889,-8.041666666666666,266.6666666666667,-7C294.44444444444446,-5.958333333333333,305.5555555555556,39.458333333333336,333.33333333333337,38C361.11111111111114,36.541666666666664,372.22222222222223,-11.5,400,-14C427.77777777777777,-16.5,438.8888888888889,25.166666666666668,466.6666666666667,26C494.44444444444446,26.833333333333332,505.5555555555556,-11.875,533.3333333333334,-10C561.1111111111111,-8.125,572.2222222222222,35,600,35C627.7777777777778,35,638.8888888888889,-15.416666666666666,666.6666666666667,-10C694.4444444444446,-4.583333333333334,707.6388888888889,56.833333333333336,733.3333333333334,61C759.0277777777778,65.16666666666667,778.1944444444445,20.625,790,10" transform="matrix(1,0,0,1,0,1435)"></path><path d="M10,10C21.805555555555557,15.833333333333334,40.97222222222223,43.208333333333336,66.66666666666667,38C92.36111111111111,32.791666666666664,105.55555555555557,-13.958333333333334,133.33333333333334,-15C161.11111111111111,-16.041666666666668,172.22222222222223,31.333333333333332,200,33C227.77777777777777,34.666666666666664,238.8888888888889,-8.041666666666666,266.6666666666667,-7C294.44444444444446,-5.958333333333333,305.5555555555556,39.458333333333336,333.33333333333337,38C361.11111111111114,36.541666666666664,372.22222222222223,-11.5,400,-14C427.77777777777777,-16.5,438.8888888888889,25.166666666666668,466.6666666666667,26C494.44444444444446,26.833333333333332,505.5555555555556,-11.875,533.3333333333334,-10C561.1111111111111,-8.125,572.2222222222222,35,600,35C627.7777777777778,35,638.8888888888889,-15.416666666666666,666.6666666666667,-10C694.4444444444446,-4.583333333333334,707.6388888888889,56.833333333333336,733.3333333333334,61C759.0277777777778,65.16666666666667,778.1944444444445,20.625,790,10" transform="matrix(1,0,0,1,0,1400)"></path><path d="M10,10C21.805555555555557,15.833333333333334,40.97222222222223,43.208333333333336,66.66666666666667,38C92.36111111111111,32.791666666666664,105.55555555555557,-13.958333333333334,133.33333333333334,-15C161.11111111111111,-16.041666666666668,172.22222222222223,31.333333333333332,200,33C227.77777777777777,34.666666666666664,238.8888888888889,-8.041666666666666,266.6666666666667,-7C294.44444444444446,-5.958333333333333,305.5555555555556,39.458333333333336,333.33333333333337,38C361.11111111111114,36.541666666666664,372.22222222222223,-11.5,400,-14C427.77777777777777,-16.5,438.8888888888889,25.166666666666668,466.6666666666667,26C494.44444444444446,26.833333333333332,505.5555555555556,-11.875,533.3333333333334,-10C561.1111111111111,-8.125,572.2222222222222,35,600,35C627.7777777777778,35,638.8888888888889,-15.416666666666666,666.6666666666667,-10C694.4444444444446,-4.583333333333334,707.6388888888889,56.833333333333336,733.3333333333334,61C759.0277777777778,65.16666666666667,778.1944444444445,20.625,790,10" transform="matrix(1,0,0,1,0,1365)"></path><path d="M10,10C21.805555555555557,15.833333333333334,40.97222222222223,43.208333333333336,66.66666666666667,38C92.36111111111111,32.791666666666664,105.55555555555557,-13.958333333333334,133.33333333333334,-15C161.11111111111111,-16.041666666666668,172.22222222222223,31.333333333333332,200,33C227.77777777777777,34.666666666666664,238.8888888888889,-8.041666666666666,266.6666666666667,-7C294.44444444444446,-5.958333333333333,305.5555555555556,39.458333333333336,333.33333333333337,38C361.11111111111114,36.541666666666664,372.22222222222223,-11.5,400,-14C427.77777777777777,-16.5,438.8888888888889,25.166666666666668,466.6666666666667,26C494.44444444444446,26.833333333333332,505.5555555555556,-11.875,533.3333333333334,-10C561.1111111111111,-8.125,572.2222222222222,35,600,35C627.7777777777778,35,638.8888888888889,-15.416666666666666,666.6666666666667,-10C694.4444444444446,-4.583333333333334,707.6388888888889,56.833333333333336,733.3333333333334,61C759.0277777777778,65.16666666666667,778.1944444444445,20.625,790,10" transform="matrix(1,0,0,1,0,1330)"></path><path d="M10,10C21.805555555555557,15.833333333333334,40.97222222222223,43.208333333333336,66.66666666666667,38C92.36111111111111,32.791666666666664,105.55555555555557,-13.958333333333334,133.33333333333334,-15C161.11111111111111,-16.041666666666668,172.22222222222223,31.333333333333332,200,33C227.77777777777777,34.666666666666664,238.8888888888889,-8.041666666666666,266.6666666666667,-7C294.44444444444446,-5.958333333333333,305.5555555555556,39.458333333333336,333.33333333333337,38C361.11111111111114,36.541666666666664,372.22222222222223,-11.5,400,-14C427.77777777777777,-16.5,438.8888888888889,25.166666666666668,466.6666666666667,26C494.44444444444446,26.833333333333332,505.5555555555556,-11.875,533.3333333333334,-10C561.1111111111111,-8.125,572.2222222222222,35,600,35C627.7777777777778,35,638.8888888888889,-15.416666666666666,666.6666666666667,-10C694.4444444444446,-4.583333333333334,707.6388888888889,56.833333333333336,733.3333333333334,61C759.0277777777778,65.16666666666667,778.1944444444445,20.625,790,10" transform="matrix(1,0,0,1,0,1295)"></path><path d="M10,10C21.805555555555557,15.833333333333334,40.97222222222223,43.208333333333336,66.66666666666667,38C92.36111111111111,32.791666666666664,105.55555555555557,-13.958333333333334,133.33333333333334,-15C161.11111111111111,-16.041666666666668,172.22222222222223,31.333333333333332,200,33C227.77777777777777,34.666666666666664,238.8888888888889,-8.041666666666666,266.6666666666667,-7C294.44444444444446,-5.958333333333333,305.5555555555556,39.458333333333336,333.33333333333337,38C361.11111111111114,36.541666666666664,372.22222222222223,-11.5,400,-14C427.77777777777777,-16.5,438.8888888888889,25.166666666666668,466.6666666666667,26C494.44444444444446,26.833333333333332,505.5555555555556,-11.875,533.3333333333334,-10C561.1111111111111,-8.125,572.2222222222222,35,600,35C627.7777777777778,35,638.8888888888889,-15.416666666666666,666.6666666666667,-10C694.4444444444446,-4.583333333333334,707.6388888888889,56.833333333333336,733.3333333333334,61C759.0277777777778,65.16666666666667,778.1944444444445,20.625,790,10" transform="matrix(1,0,0,1,0,1260)"></path><path d="M10,10C21.805555555555557,15.833333333333334,40.97222222222223,43.208333333333336,66.66666666666667,38C92.36111111111111,32.791666666666664,105.55555555555557,-13.958333333333334,133.33333333333334,-15C161.11111111111111,-16.041666666666668,172.22222222222223,31.333333333333332,200,33C227.77777777777777,34.666666666666664,238.8888888888889,-8.041666666666666,266.6666666666667,-7C294.44444444444446,-5.958333333333333,305.5555555555556,39.458333333333336,333.33333333333337,38C361.11111111111114,36.541666666666664,372.22222222222223,-11.5,400,-14C427.77777777777777,-16.5,438.8888888888889,25.166666666666668,466.6666666666667,26C494.44444444444446,26.833333333333332,505.5555555555556,-11.875,533.3333333333334,-10C561.1111111111111,-8.125,572.2222222222222,35,600,35C627.7777777777778,35,638.8888888888889,-15.416666666666666,666.6666666666667,-10C694.4444444444446,-4.583333333333334,707.6388888888889,56.833333333333336,733.3333333333334,61C759.0277777777778,65.16666666666667,778.1944444444445,20.625,790,10" transform="matrix(1,0,0,1,0,1225)"></path><path d="M10,10C21.805555555555557,15.833333333333334,40.97222222222223,43.208333333333336,66.66666666666667,38C92.36111111111111,32.791666666666664,105.55555555555557,-13.958333333333334,133.33333333333334,-15C161.11111111111111,-16.041666666666668,172.22222222222223,31.333333333333332,200,33C227.77777777777777,34.666666666666664,238.8888888888889,-8.041666666666666,266.6666666666667,-7C294.44444444444446,-5.958333333333333,305.5555555555556,39.458333333333336,333.33333333333337,38C361.11111111111114,36.541666666666664,372.22222222222223,-11.5,400,-14C427.77777777777777,-16.5,438.8888888888889,25.166666666666668,466.6666666666667,26C494.44444444444446,26.833333333333332,505.5555555555556,-11.875,533.3333333333334,-10C561.1111111111111,-8.125,572.2222222222222,35,600,35C627.7777777777778,35,638.8888888888889,-15.416666666666666,666.6666666666667,-10C694.4444444444446,-4.583333333333334,707.6388888888889,56.833333333333336,733.3333333333334,61C759.0277777777778,65.16666666666667,778.1944444444445,20.625,790,10" transform="matrix(1,0,0,1,0,1190)"></path><path d="M10,10C21.805555555555557,15.833333333333334,40.97222222222223,43.208333333333336,66.66666666666667,38C92.36111111111111,32.791666666666664,105.55555555555557,-13.958333333333334,133.33333333333334,-15C161.11111111111111,-16.041666666666668,172.22222222222223,31.333333333333332,200,33C227.77777777777777,34.666666666666664,238.8888888888889,-8.041666666666666,266.6666666666667,-7C294.44444444444446,-5.958333333333333,305.5555555555556,39.458333333333336,333.33333333333337,38C361.11111111111114,36.541666666666664,372.22222222222223,-11.5,400,-14C427.77777777777777,-16.5,438.8888888888889,25.166666666666668,466.6666666666667,26C494.44444444444446,26.833333333333332,505.5555555555556,-11.875,533.3333333333334,-10C561.1111111111111,-8.125,572.2222222222222,35,600,35C627.7777777777778,35,638.8888888888889,-15.416666666666666,666.6666666666667,-10C694.4444444444446,-4.583333333333334,707.6388888888889,56.833333333333336,733.3333333333334,61C759.0277777777778,65.16666666666667,778.1944444444445,20.625,790,10" transform="matrix(1,0,0,1,0,1155)"></path><path d="M10,10C21.805555555555557,15.833333333333334,40.97222222222223,43.208333333333336,66.66666666666667,38C92.36111111111111,32.791666666666664,105.55555555555557,-13.958333333333334,133.33333333333334,-15C161.11111111111111,-16.041666666666668,172.22222222222223,31.333333333333332,200,33C227.77777777777777,34.666666666666664,238.8888888888889,-8.041666666666666,266.6666666666667,-7C294.44444444444446,-5.958333333333333,305.5555555555556,39.458333333333336,333.33333333333337,38C361.11111111111114,36.541666666666664,372.22222222222223,-11.5,400,-14C427.77777777777777,-16.5,438.8888888888889,25.166666666666668,466.6666666666667,26C494.44444444444446,26.833333333333332,505.5555555555556,-11.875,533.3333333333334,-10C561.1111111111111,-8.125,572.2222222222222,35,600,35C627.7777777777778,35,638.8888888888889,-15.416666666666666,666.6666666666667,-10C694.4444444444446,-4.583333333333334,707.6388888888889,56.833333333333336,733.3333333333334,61C759.0277777777778,65.16666666666667,778.1944444444445,20.625,790,10" transform="matrix(1,0,0,1,0,1120)"></path><path d="M10,10C21.805555555555557,15.833333333333334,40.97222222222223,43.208333333333336,66.66666666666667,38C92.36111111111111,32.791666666666664,105.55555555555557,-13.958333333333334,133.33333333333334,-15C161.11111111111111,-16.041666666666668,172.22222222222223,31.333333333333332,200,33C227.77777777777777,34.666666666666664,238.8888888888889,-8.041666666666666,266.6666666666667,-7C294.44444444444446,-5.958333333333333,305.5555555555556,39.458333333333336,333.33333333333337,38C361.11111111111114,36.541666666666664,372.22222222222223,-11.5,400,-14C427.77777777777777,-16.5,438.8888888888889,25.166666666666668,466.6666666666667,26C494.44444444444446,26.833333333333332,505.5555555555556,-11.875,533.3333333333334,-10C561.1111111111111,-8.125,572.2222222222222,35,600,35C627.7777777777778,35,638.8888888888889,-15.416666666666666,666.6666666666667,-10C694.4444444444446,-4.583333333333334,707.6388888888889,56.833333333333336,733.3333333333334,61C759.0277777777778,65.16666666666667,778.1944444444445,20.625,790,10" transform="matrix(1,0,0,1,0,1085)"></path><path d="M10,10C21.805555555555557,15.833333333333334,40.97222222222223,43.208333333333336,66.66666666666667,38C92.36111111111111,32.791666666666664,105.55555555555557,-13.958333333333334,133.33333333333334,-15C161.11111111111111,-16.041666666666668,172.22222222222223,31.333333333333332,200,33C227.77777777777777,34.666666666666664,238.8888888888889,-8.041666666666666,266.6666666666667,-7C294.44444444444446,-5.958333333333333,305.5555555555556,39.458333333333336,333.33333333333337,38C361.11111111111114,36.541666666666664,372.22222222222223,-11.5,400,-14C427.77777777777777,-16.5,438.8888888888889,25.166666666666668,466.6666666666667,26C494.44444444444446,26.833333333333332,505.5555555555556,-11.875,533.3333333333334,-10C561.1111111111111,-8.125,572.2222222222222,35,600,35C627.7777777777778,35,638.8888888888889,-15.416666666666666,666.6666666666667,-10C694.4444444444446,-4.583333333333334,707.6388888888889,56.833333333333336,733.3333333333334,61C759.0277777777778,65.16666666666667,778.1944444444445,20.625,790,10" transform="matrix(1,0,0,1,0,1050)"></path><path d="M10,10C21.805555555555557,15.833333333333334,40.97222222222223,43.208333333333336,66.66666666666667,38C92.36111111111111,32.791666666666664,105.55555555555557,-13.958333333333334,133.33333333333334,-15C161.11111111111111,-16.041666666666668,172.22222222222223,31.333333333333332,200,33C227.77777777777777,34.666666666666664,238.8888888888889,-8.041666666666666,266.6666666666667,-7C294.44444444444446,-5.958333333333333,305.5555555555556,39.458333333333336,333.33333333333337,38C361.11111111111114,36.541666666666664,372.22222222222223,-11.5,400,-14C427.77777777777777,-16.5,438.8888888888889,25.166666666666668,466.6666666666667,26C494.44444444444446,26.833333333333332,505.5555555555556,-11.875,533.3333333333334,-10C561.1111111111111,-8.125,572.2222222222222,35,600,35C627.7777777777778,35,638.8888888888889,-15.416666666666666,666.6666666666667,-10C694.4444444444446,-4.583333333333334,707.6388888888889,56.833333333333336,733.3333333333334,61C759.0277777777778,65.16666666666667,778.1944444444445,20.625,790,10" transform="matrix(1,0,0,1,0,1015)"></path><path d="M10,10C21.805555555555557,15.833333333333334,40.97222222222223,43.208333333333336,66.66666666666667,38C92.36111111111111,32.791666666666664,105.55555555555557,-13.958333333333334,133.33333333333334,-15C161.11111111111111,-16.041666666666668,172.22222222222223,31.333333333333332,200,33C227.77777777777777,34.666666666666664,238.8888888888889,-8.041666666666666,266.6666666666667,-7C294.44444444444446,-5.958333333333333,305.5555555555556,39.458333333333336,333.33333333333337,38C361.11111111111114,36.541666666666664,372.22222222222223,-11.5,400,-14C427.77777777777777,-16.5,438.8888888888889,25.166666666666668,466.6666666666667,26C494.44444444444446,26.833333333333332,505.5555555555556,-11.875,533.3333333333334,-10C561.1111111111111,-8.125,572.2222222222222,35,600,35C627.7777777777778,35,638.8888888888889,-15.416666666666666,666.6666666666667,-10C694.4444444444446,-4.583333333333334,707.6388888888889,56.833333333333336,733.3333333333334,61C759.0277777777778,65.16666666666667,778.1944444444445,20.625,790,10" transform="matrix(1,0,0,1,0,980)"></path><path d="M10,10C21.805555555555557,15.833333333333334,40.97222222222223,43.208333333333336,66.66666666666667,38C92.36111111111111,32.791666666666664,105.55555555555557,-13.958333333333334,133.33333333333334,-15C161.11111111111111,-16.041666666666668,172.22222222222223,31.333333333333332,200,33C227.77777777777777,34.666666666666664,238.8888888888889,-8.041666666666666,266.6666666666667,-7C294.44444444444446,-5.958333333333333,305.5555555555556,39.458333333333336,333.33333333333337,38C361.11111111111114,36.541666666666664,372.22222222222223,-11.5,400,-14C427.77777777777777,-16.5,438.8888888888889,25.166666666666668,466.6666666666667,26C494.44444444444446,26.833333333333332,505.5555555555556,-11.875,533.3333333333334,-10C561.1111111111111,-8.125,572.2222222222222,35,600,35C627.7777777777778,35,638.8888888888889,-15.416666666666666,666.6666666666667,-10C694.4444444444446,-4.583333333333334,707.6388888888889,56.833333333333336,733.3333333333334,61C759.0277777777778,65.16666666666667,778.1944444444445,20.625,790,10" transform="matrix(1,0,0,1,0,945)"></path><path d="M10,10C21.805555555555557,15.833333333333334,40.97222222222223,43.208333333333336,66.66666666666667,38C92.36111111111111,32.791666666666664,105.55555555555557,-13.958333333333334,133.33333333333334,-15C161.11111111111111,-16.041666666666668,172.22222222222223,31.333333333333332,200,33C227.77777777777777,34.666666666666664,238.8888888888889,-8.041666666666666,266.6666666666667,-7C294.44444444444446,-5.958333333333333,305.5555555555556,39.458333333333336,333.33333333333337,38C361.11111111111114,36.541666666666664,372.22222222222223,-11.5,400,-14C427.77777777777777,-16.5,438.8888888888889,25.166666666666668,466.6666666666667,26C494.44444444444446,26.833333333333332,505.5555555555556,-11.875,533.3333333333334,-10C561.1111111111111,-8.125,572.2222222222222,35,600,35C627.7777777777778,35,638.8888888888889,-15.416666666666666,666.6666666666667,-10C694.4444444444446,-4.583333333333334,707.6388888888889,56.833333333333336,733.3333333333334,61C759.0277777777778,65.16666666666667,778.1944444444445,20.625,790,10" transform="matrix(1,0,0,1,0,910)"></path><path d="M10,10C21.805555555555557,15.833333333333334,40.97222222222223,43.208333333333336,66.66666666666667,38C92.36111111111111,32.791666666666664,105.55555555555557,-13.958333333333334,133.33333333333334,-15C161.11111111111111,-16.041666666666668,172.22222222222223,31.333333333333332,200,33C227.77777777777777,34.666666666666664,238.8888888888889,-8.041666666666666,266.6666666666667,-7C294.44444444444446,-5.958333333333333,305.5555555555556,39.458333333333336,333.33333333333337,38C361.11111111111114,36.541666666666664,372.22222222222223,-11.5,400,-14C427.77777777777777,-16.5,438.8888888888889,25.166666666666668,466.6666666666667,26C494.44444444444446,26.833333333333332,505.5555555555556,-11.875,533.3333333333334,-10C561.1111111111111,-8.125,572.2222222222222,35,600,35C627.7777777777778,35,638.8888888888889,-15.416666666666666,666.6666666666667,-10C694.4444444444446,-4.583333333333334,707.6388888888889,56.833333333333336,733.3333333333334,61C759.0277777777778,65.16666666666667,778.1944444444445,20.625,790,10" transform="matrix(1,0,0,1,0,875)"></path><path d="M10,10C21.805555555555557,15.833333333333334,40.97222222222223,43.208333333333336,66.66666666666667,38C92.36111111111111,32.791666666666664,105.55555555555557,-13.958333333333334,133.33333333333334,-15C161.11111111111111,-16.041666666666668,172.22222222222223,31.333333333333332,200,33C227.77777777777777,34.666666666666664,238.8888888888889,-8.041666666666666,266.6666666666667,-7C294.44444444444446,-5.958333333333333,305.5555555555556,39.458333333333336,333.33333333333337,38C361.11111111111114,36.541666666666664,372.22222222222223,-11.5,400,-14C427.77777777777777,-16.5,438.8888888888889,25.166666666666668,466.6666666666667,26C494.44444444444446,26.833333333333332,505.5555555555556,-11.875,533.3333333333334,-10C561.1111111111111,-8.125,572.2222222222222,35,600,35C627.7777777777778,35,638.8888888888889,-15.416666666666666,666.6666666666667,-10C694.4444444444446,-4.583333333333334,707.6388888888889,56.833333333333336,733.3333333333334,61C759.0277777777778,65.16666666666667,778.1944444444445,20.625,790,10" transform="matrix(1,0,0,1,0,840)"></path><path d="M10,10C21.805555555555557,15.833333333333334,40.97222222222223,43.208333333333336,66.66666666666667,38C92.36111111111111,32.791666666666664,105.55555555555557,-13.958333333333334,133.33333333333334,-15C161.11111111111111,-16.041666666666668,172.22222222222223,31.333333333333332,200,33C227.77777777777777,34.666666666666664,238.8888888888889,-8.041666666666666,266.6666666666667,-7C294.44444444444446,-5.958333333333333,305.5555555555556,39.458333333333336,333.33333333333337,38C361.11111111111114,36.541666666666664,372.22222222222223,-11.5,400,-14C427.77777777777777,-16.5,438.8888888888889,25.166666666666668,466.6666666666667,26C494.44444444444446,26.833333333333332,505.5555555555556,-11.875,533.3333333333334,-10C561.1111111111111,-8.125,572.2222222222222,35,600,35C627.7777777777778,35,638.8888888888889,-15.416666666666666,666.6666666666667,-10C694.4444444444446,-4.583333333333334,707.6388888888889,56.833333333333336,733.3333333333334,61C759.0277777777778,65.16666666666667,778.1944444444445,20.625,790,10" transform="matrix(1,0,0,1,0,805)"></path><path d="M10,10C21.805555555555557,15.833333333333334,40.97222222222223,43.208333333333336,66.66666666666667,38C92.36111111111111,32.791666666666664,105.55555555555557,-13.958333333333334,133.33333333333334,-15C161.11111111111111,-16.041666666666668,172.22222222222223,31.333333333333332,200,33C227.77777777777777,34.666666666666664,238.8888888888889,-8.041666666666666,266.6666666666667,-7C294.44444444444446,-5.958333333333333,305.5555555555556,39.458333333333336,333.33333333333337,38C361.11111111111114,36.541666666666664,372.22222222222223,-11.5,400,-14C427.77777777777777,-16.5,438.8888888888889,25.166666666666668,466.6666666666667,26C494.44444444444446,26.833333333333332,505.5555555555556,-11.875,533.3333333333334,-10C561.1111111111111,-8.125,572.2222222222222,35,600,35C627.7777777777778,35,638.8888888888889,-15.416666666666666,666.6666666666667,-10C694.4444444444446,-4.583333333333334,707.6388888888889,56.833333333333336,733.3333333333334,61C759.0277777777778,65.16666666666667,778.1944444444445,20.625,790,10" transform="matrix(1,0,0,1,0,770)"></path><path d="M10,10C21.805555555555557,15.833333333333334,40.97222222222223,43.208333333333336,66.66666666666667,38C92.36111111111111,32.791666666666664,105.55555555555557,-13.958333333333334,133.33333333333334,-15C161.11111111111111,-16.041666666666668,172.22222222222223,31.333333333333332,200,33C227.77777777777777,34.666666666666664,238.8888888888889,-8.041666666666666,266.6666666666667,-7C294.44444444444446,-5.958333333333333,305.5555555555556,39.458333333333336,333.33333333333337,38C361.11111111111114,36.541666666666664,372.22222222222223,-11.5,400,-14C427.77777777777777,-16.5,438.8888888888889,25.166666666666668,466.6666666666667,26C494.44444444444446,26.833333333333332,505.5555555555556,-11.875,533.3333333333334,-10C561.1111111111111,-8.125,572.2222222222222,35,600,35C627.7777777777778,35,638.8888888888889,-15.416666666666666,666.6666666666667,-10C694.4444444444446,-4.583333333333334,707.6388888888889,56.833333333333336,733.3333333333334,61C759.0277777777778,65.16666666666667,778.1944444444445,20.625,790,10" transform="matrix(1,0,0,1,0,735)"></path><path d="M10,10C21.805555555555557,15.833333333333334,40.97222222222223,43.208333333333336,66.66666666666667,38C92.36111111111111,32.791666666666664,105.55555555555557,-13.958333333333334,133.33333333333334,-15C161.11111111111111,-16.041666666666668,172.22222222222223,31.333333333333332,200,33C227.77777777777777,34.666666666666664,238.8888888888889,-8.041666666666666,266.6666666666667,-7C294.44444444444446,-5.958333333333333,305.5555555555556,39.458333333333336,333.33333333333337,38C361.11111111111114,36.541666666666664,372.22222222222223,-11.5,400,-14C427.77777777777777,-16.5,438.8888888888889,25.166666666666668,466.6666666666667,26C494.44444444444446,26.833333333333332,505.5555555555556,-11.875,533.3333333333334,-10C561.1111111111111,-8.125,572.2222222222222,35,600,35C627.7777777777778,35,638.8888888888889,-15.416666666666666,666.6666666666667,-10C694.4444444444446,-4.583333333333334,707.6388888888889,56.833333333333336,733.3333333333334,61C759.0277777777778,65.16666666666667,778.1944444444445,20.625,790,10" transform="matrix(1,0,0,1,0,700)"></path><path d="M10,10C21.805555555555557,15.833333333333334,40.97222222222223,43.208333333333336,66.66666666666667,38C92.36111111111111,32.791666666666664,105.55555555555557,-13.958333333333334,133.33333333333334,-15C161.11111111111111,-16.041666666666668,172.22222222222223,31.333333333333332,200,33C227.77777777777777,34.666666666666664,238.8888888888889,-8.041666666666666,266.6666666666667,-7C294.44444444444446,-5.958333333333333,305.5555555555556,39.458333333333336,333.33333333333337,38C361.11111111111114,36.541666666666664,372.22222222222223,-11.5,400,-14C427.77777777777777,-16.5,438.8888888888889,25.166666666666668,466.6666666666667,26C494.44444444444446,26.833333333333332,505.5555555555556,-11.875,533.3333333333334,-10C561.1111111111111,-8.125,572.2222222222222,35,600,35C627.7777777777778,35,638.8888888888889,-15.416666666666666,666.6666666666667,-10C694.4444444444446,-4.583333333333334,707.6388888888889,56.833333333333336,733.3333333333334,61C759.0277777777778,65.16666666666667,778.1944444444445,20.625,790,10" transform="matrix(1,0,0,1,0,665)"></path><path d="M10,10C21.805555555555557,15.833333333333334,40.97222222222223,43.208333333333336,66.66666666666667,38C92.36111111111111,32.791666666666664,105.55555555555557,-13.958333333333334,133.33333333333334,-15C161.11111111111111,-16.041666666666668,172.22222222222223,31.333333333333332,200,33C227.77777777777777,34.666666666666664,238.8888888888889,-8.041666666666666,266.6666666666667,-7C294.44444444444446,-5.958333333333333,305.5555555555556,39.458333333333336,333.33333333333337,38C361.11111111111114,36.541666666666664,372.22222222222223,-11.5,400,-14C427.77777777777777,-16.5,438.8888888888889,25.166666666666668,466.6666666666667,26C494.44444444444446,26.833333333333332,505.5555555555556,-11.875,533.3333333333334,-10C561.1111111111111,-8.125,572.2222222222222,35,600,35C627.7777777777778,35,638.8888888888889,-15.416666666666666,666.6666666666667,-10C694.4444444444446,-4.583333333333334,707.6388888888889,56.833333333333336,733.3333333333334,61C759.0277777777778,65.16666666666667,778.1944444444445,20.625,790,10" transform="matrix(1,0,0,1,0,630)"></path><path d="M10,10C21.805555555555557,15.833333333333334,40.97222222222223,43.208333333333336,66.66666666666667,38C92.36111111111111,32.791666666666664,105.55555555555557,-13.958333333333334,133.33333333333334,-15C161.11111111111111,-16.041666666666668,172.22222222222223,31.333333333333332,200,33C227.77777777777777,34.666666666666664,238.8888888888889,-8.041666666666666,266.6666666666667,-7C294.44444444444446,-5.958333333333333,305.5555555555556,39.458333333333336,333.33333333333337,38C361.11111111111114,36.541666666666664,372.22222222222223,-11.5,400,-14C427.77777777777777,-16.5,438.8888888888889,25.166666666666668,466.6666666666667,26C494.44444444444446,26.833333333333332,505.5555555555556,-11.875,533.3333333333334,-10C561.1111111111111,-8.125,572.2222222222222,35,600,35C627.7777777777778,35,638.8888888888889,-15.416666666666666,666.6666666666667,-10C694.4444444444446,-4.583333333333334,707.6388888888889,56.833333333333336,733.3333333333334,61C759.0277777777778,65.16666666666667,778.1944444444445,20.625,790,10" transform="matrix(1,0,0,1,0,595)"></path><path d="M10,10C21.805555555555557,15.833333333333334,40.97222222222223,43.208333333333336,66.66666666666667,38C92.36111111111111,32.791666666666664,105.55555555555557,-13.958333333333334,133.33333333333334,-15C161.11111111111111,-16.041666666666668,172.22222222222223,31.333333333333332,200,33C227.77777777777777,34.666666666666664,238.8888888888889,-8.041666666666666,266.6666666666667,-7C294.44444444444446,-5.958333333333333,305.5555555555556,39.458333333333336,333.33333333333337,38C361.11111111111114,36.541666666666664,372.22222222222223,-11.5,400,-14C427.77777777777777,-16.5,438.8888888888889,25.166666666666668,466.6666666666667,26C494.44444444444446,26.833333333333332,505.5555555555556,-11.875,533.3333333333334,-10C561.1111111111111,-8.125,572.2222222222222,35,600,35C627.7777777777778,35,638.8888888888889,-15.416666666666666,666.6666666666667,-10C694.4444444444446,-4.583333333333334,707.6388888888889,56.833333333333336,733.3333333333334,61C759.0277777777778,65.16666666666667,778.1944444444445,20.625,790,10" transform="matrix(1,0,0,1,0,560)"></path><path d="M10,10C21.805555555555557,15.833333333333334,40.97222222222223,43.208333333333336,66.66666666666667,38C92.36111111111111,32.791666666666664,105.55555555555557,-13.958333333333334,133.33333333333334,-15C161.11111111111111,-16.041666666666668,172.22222222222223,31.333333333333332,200,33C227.77777777777777,34.666666666666664,238.8888888888889,-8.041666666666666,266.6666666666667,-7C294.44444444444446,-5.958333333333333,305.5555555555556,39.458333333333336,333.33333333333337,38C361.11111111111114,36.541666666666664,372.22222222222223,-11.5,400,-14C427.77777777777777,-16.5,438.8888888888889,25.166666666666668,466.6666666666667,26C494.44444444444446,26.833333333333332,505.5555555555556,-11.875,533.3333333333334,-10C561.1111111111111,-8.125,572.2222222222222,35,600,35C627.7777777777778,35,638.8888888888889,-15.416666666666666,666.6666666666667,-10C694.4444444444446,-4.583333333333334,707.6388888888889,56.833333333333336,733.3333333333334,61C759.0277777777778,65.16666666666667,778.1944444444445,20.625,790,10" transform="matrix(1,0,0,1,0,525)"></path><path d="M10,10C21.805555555555557,15.833333333333334,40.97222222222223,43.208333333333336,66.66666666666667,38C92.36111111111111,32.791666666666664,105.55555555555557,-13.958333333333334,133.33333333333334,-15C161.11111111111111,-16.041666666666668,172.22222222222223,31.333333333333332,200,33C227.77777777777777,34.666666666666664,238.8888888888889,-8.041666666666666,266.6666666666667,-7C294.44444444444446,-5.958333333333333,305.5555555555556,39.458333333333336,333.33333333333337,38C361.11111111111114,36.541666666666664,372.22222222222223,-11.5,400,-14C427.77777777777777,-16.5,438.8888888888889,25.166666666666668,466.6666666666667,26C494.44444444444446,26.833333333333332,505.5555555555556,-11.875,533.3333333333334,-10C561.1111111111111,-8.125,572.2222222222222,35,600,35C627.7777777777778,35,638.8888888888889,-15.416666666666666,666.6666666666667,-10C694.4444444444446,-4.583333333333334,707.6388888888889,56.833333333333336,733.3333333333334,61C759.0277777777778,65.16666666666667,778.1944444444445,20.625,790,10" transform="matrix(1,0,0,1,0,490)"></path><path d="M10,10C21.805555555555557,15.833333333333334,40.97222222222223,43.208333333333336,66.66666666666667,38C92.36111111111111,32.791666666666664,105.55555555555557,-13.958333333333334,133.33333333333334,-15C161.11111111111111,-16.041666666666668,172.22222222222223,31.333333333333332,200,33C227.77777777777777,34.666666666666664,238.8888888888889,-8.041666666666666,266.6666666666667,-7C294.44444444444446,-5.958333333333333,305.5555555555556,39.458333333333336,333.33333333333337,38C361.11111111111114,36.541666666666664,372.22222222222223,-11.5,400,-14C427.77777777777777,-16.5,438.8888888888889,25.166666666666668,466.6666666666667,26C494.44444444444446,26.833333333333332,505.5555555555556,-11.875,533.3333333333334,-10C561.1111111111111,-8.125,572.2222222222222,35,600,35C627.7777777777778,35,638.8888888888889,-15.416666666666666,666.6666666666667,-10C694.4444444444446,-4.583333333333334,707.6388888888889,56.833333333333336,733.3333333333334,61C759.0277777777778,65.16666666666667,778.1944444444445,20.625,790,10" transform="matrix(1,0,0,1,0,455)"></path><path d="M10,10C21.805555555555557,15.833333333333334,40.97222222222223,43.208333333333336,66.66666666666667,38C92.36111111111111,32.791666666666664,105.55555555555557,-13.958333333333334,133.33333333333334,-15C161.11111111111111,-16.041666666666668,172.22222222222223,31.333333333333332,200,33C227.77777777777777,34.666666666666664,238.8888888888889,-8.041666666666666,266.6666666666667,-7C294.44444444444446,-5.958333333333333,305.5555555555556,39.458333333333336,333.33333333333337,38C361.11111111111114,36.541666666666664,372.22222222222223,-11.5,400,-14C427.77777777777777,-16.5,438.8888888888889,25.166666666666668,466.6666666666667,26C494.44444444444446,26.833333333333332,505.5555555555556,-11.875,533.3333333333334,-10C561.1111111111111,-8.125,572.2222222222222,35,600,35C627.7777777777778,35,638.8888888888889,-15.416666666666666,666.6666666666667,-10C694.4444444444446,-4.583333333333334,707.6388888888889,56.833333333333336,733.3333333333334,61C759.0277777777778,65.16666666666667,778.1944444444445,20.625,790,10" transform="matrix(1,0,0,1,0,420)"></path><path d="M10,10C21.805555555555557,15.833333333333334,40.97222222222223,43.208333333333336,66.66666666666667,38C92.36111111111111,32.791666666666664,105.55555555555557,-13.958333333333334,133.33333333333334,-15C161.11111111111111,-16.041666666666668,172.22222222222223,31.333333333333332,200,33C227.77777777777777,34.666666666666664,238.8888888888889,-8.041666666666666,266.6666666666667,-7C294.44444444444446,-5.958333333333333,305.5555555555556,39.458333333333336,333.33333333333337,38C361.11111111111114,36.541666666666664,372.22222222222223,-11.5,400,-14C427.77777777777777,-16.5,438.8888888888889,25.166666666666668,466.6666666666667,26C494.44444444444446,26.833333333333332,505.5555555555556,-11.875,533.3333333333334,-10C561.1111111111111,-8.125,572.2222222222222,35,600,35C627.7777777777778,35,638.8888888888889,-15.416666666666666,666.6666666666667,-10C694.4444444444446,-4.583333333333334,707.6388888888889,56.833333333333336,733.3333333333334,61C759.0277777777778,65.16666666666667,778.1944444444445,20.625,790,10" transform="matrix(1,0,0,1,0,385)"></path><path d="M10,10C21.805555555555557,15.833333333333334,40.97222222222223,43.208333333333336,66.66666666666667,38C92.36111111111111,32.791666666666664,105.55555555555557,-13.958333333333334,133.33333333333334,-15C161.11111111111111,-16.041666666666668,172.22222222222223,31.333333333333332,200,33C227.77777777777777,34.666666666666664,238.8888888888889,-8.041666666666666,266.6666666666667,-7C294.44444444444446,-5.958333333333333,305.5555555555556,39.458333333333336,333.33333333333337,38C361.11111111111114,36.541666666666664,372.22222222222223,-11.5,400,-14C427.77777777777777,-16.5,438.8888888888889,25.166666666666668,466.6666666666667,26C494.44444444444446,26.833333333333332,505.5555555555556,-11.875,533.3333333333334,-10C561.1111111111111,-8.125,572.2222222222222,35,600,35C627.7777777777778,35,638.8888888888889,-15.416666666666666,666.6666666666667,-10C694.4444444444446,-4.583333333333334,707.6388888888889,56.833333333333336,733.3333333333334,61C759.0277777777778,65.16666666666667,778.1944444444445,20.625,790,10" transform="matrix(1,0,0,1,0,350)"></path><path d="M10,10C21.805555555555557,15.833333333333334,40.97222222222223,43.208333333333336,66.66666666666667,38C92.36111111111111,32.791666666666664,105.55555555555557,-13.958333333333334,133.33333333333334,-15C161.11111111111111,-16.041666666666668,172.22222222222223,31.333333333333332,200,33C227.77777777777777,34.666666666666664,238.8888888888889,-8.041666666666666,266.6666666666667,-7C294.44444444444446,-5.958333333333333,305.5555555555556,39.458333333333336,333.33333333333337,38C361.11111111111114,36.541666666666664,372.22222222222223,-11.5,400,-14C427.77777777777777,-16.5,438.8888888888889,25.166666666666668,466.6666666666667,26C494.44444444444446,26.833333333333332,505.5555555555556,-11.875,533.3333333333334,-10C561.1111111111111,-8.125,572.2222222222222,35,600,35C627.7777777777778,35,638.8888888888889,-15.416666666666666,666.6666666666667,-10C694.4444444444446,-4.583333333333334,707.6388888888889,56.833333333333336,733.3333333333334,61C759.0277777777778,65.16666666666667,778.1944444444445,20.625,790,10" transform="matrix(1,0,0,1,0,315)"></path><path d="M10,10C21.805555555555557,15.833333333333334,40.97222222222223,43.208333333333336,66.66666666666667,38C92.36111111111111,32.791666666666664,105.55555555555557,-13.958333333333334,133.33333333333334,-15C161.11111111111111,-16.041666666666668,172.22222222222223,31.333333333333332,200,33C227.77777777777777,34.666666666666664,238.8888888888889,-8.041666666666666,266.6666666666667,-7C294.44444444444446,-5.958333333333333,305.5555555555556,39.458333333333336,333.33333333333337,38C361.11111111111114,36.541666666666664,372.22222222222223,-11.5,400,-14C427.77777777777777,-16.5,438.8888888888889,25.166666666666668,466.6666666666667,26C494.44444444444446,26.833333333333332,505.5555555555556,-11.875,533.3333333333334,-10C561.1111111111111,-8.125,572.2222222222222,35,600,35C627.7777777777778,35,638.8888888888889,-15.416666666666666,666.6666666666667,-10C694.4444444444446,-4.583333333333334,707.6388888888889,56.833333333333336,733.3333333333334,61C759.0277777777778,65.16666666666667,778.1944444444445,20.625,790,10" transform="matrix(1,0,0,1,0,280)"></path><path d="M10,10C21.805555555555557,15.833333333333334,40.97222222222223,43.208333333333336,66.66666666666667,38C92.36111111111111,32.791666666666664,105.55555555555557,-13.958333333333334,133.33333333333334,-15C161.11111111111111,-16.041666666666668,172.22222222222223,31.333333333333332,200,33C227.77777777777777,34.666666666666664,238.8888888888889,-8.041666666666666,266.6666666666667,-7C294.44444444444446,-5.958333333333333,305.5555555555556,39.458333333333336,333.33333333333337,38C361.11111111111114,36.541666666666664,372.22222222222223,-11.5,400,-14C427.77777777777777,-16.5,438.8888888888889,25.166666666666668,466.6666666666667,26C494.44444444444446,26.833333333333332,505.5555555555556,-11.875,533.3333333333334,-10C561.1111111111111,-8.125,572.2222222222222,35,600,35C627.7777777777778,35,638.8888888888889,-15.416666666666666,666.6666666666667,-10C694.4444444444446,-4.583333333333334,707.6388888888889,56.833333333333336,733.3333333333334,61C759.0277777777778,65.16666666666667,778.1944444444445,20.625,790,10" transform="matrix(1,0,0,1,0,245)"></path><path d="M10,10C21.805555555555557,15.833333333333334,40.97222222222223,43.208333333333336,66.66666666666667,38C92.36111111111111,32.791666666666664,105.55555555555557,-13.958333333333334,133.33333333333334,-15C161.11111111111111,-16.041666666666668,172.22222222222223,31.333333333333332,200,33C227.77777777777777,34.666666666666664,238.8888888888889,-8.041666666666666,266.6666666666667,-7C294.44444444444446,-5.958333333333333,305.5555555555556,39.458333333333336,333.33333333333337,38C361.11111111111114,36.541666666666664,372.22222222222223,-11.5,400,-14C427.77777777777777,-16.5,438.8888888888889,25.166666666666668,466.6666666666667,26C494.44444444444446,26.833333333333332,505.5555555555556,-11.875,533.3333333333334,-10C561.1111111111111,-8.125,572.2222222222222,35,600,35C627.7777777777778,35,638.8888888888889,-15.416666666666666,666.6666666666667,-10C694.4444444444446,-4.583333333333334,707.6388888888889,56.833333333333336,733.3333333333334,61C759.0277777777778,65.16666666666667,778.1944444444445,20.625,790,10" transform="matrix(1,0,0,1,0,210)"></path><path d="M10,10C21.805555555555557,15.833333333333334,40.97222222222223,43.208333333333336,66.66666666666667,38C92.36111111111111,32.791666666666664,105.55555555555557,-13.958333333333334,133.33333333333334,-15C161.11111111111111,-16.041666666666668,172.22222222222223,31.333333333333332,200,33C227.77777777777777,34.666666666666664,238.8888888888889,-8.041666666666666,266.6666666666667,-7C294.44444444444446,-5.958333333333333,305.5555555555556,39.458333333333336,333.33333333333337,38C361.11111111111114,36.541666666666664,372.22222222222223,-11.5,400,-14C427.77777777777777,-16.5,438.8888888888889,25.166666666666668,466.6666666666667,26C494.44444444444446,26.833333333333332,505.5555555555556,-11.875,533.3333333333334,-10C561.1111111111111,-8.125,572.2222222222222,35,600,35C627.7777777777778,35,638.8888888888889,-15.416666666666666,666.6666666666667,-10C694.4444444444446,-4.583333333333334,707.6388888888889,56.833333333333336,733.3333333333334,61C759.0277777777778,65.16666666666667,778.1944444444445,20.625,790,10" transform="matrix(1,0,0,1,0,175)"></path><path d="M10,10C21.805555555555557,15.833333333333334,40.97222222222223,43.208333333333336,66.66666666666667,38C92.36111111111111,32.791666666666664,105.55555555555557,-13.958333333333334,133.33333333333334,-15C161.11111111111111,-16.041666666666668,172.22222222222223,31.333333333333332,200,33C227.77777777777777,34.666666666666664,238.8888888888889,-8.041666666666666,266.6666666666667,-7C294.44444444444446,-5.958333333333333,305.5555555555556,39.458333333333336,333.33333333333337,38C361.11111111111114,36.541666666666664,372.22222222222223,-11.5,400,-14C427.77777777777777,-16.5,438.8888888888889,25.166666666666668,466.6666666666667,26C494.44444444444446,26.833333333333332,505.5555555555556,-11.875,533.3333333333334,-10C561.1111111111111,-8.125,572.2222222222222,35,600,35C627.7777777777778,35,638.8888888888889,-15.416666666666666,666.6666666666667,-10C694.4444444444446,-4.583333333333334,707.6388888888889,56.833333333333336,733.3333333333334,61C759.0277777777778,65.16666666666667,778.1944444444445,20.625,790,10" transform="matrix(1,0,0,1,0,140)"></path><path d="M10,10C21.805555555555557,15.833333333333334,40.97222222222223,43.208333333333336,66.66666666666667,38C92.36111111111111,32.791666666666664,105.55555555555557,-13.958333333333334,133.33333333333334,-15C161.11111111111111,-16.041666666666668,172.22222222222223,31.333333333333332,200,33C227.77777777777777,34.666666666666664,238.8888888888889,-8.041666666666666,266.6666666666667,-7C294.44444444444446,-5.958333333333333,305.5555555555556,39.458333333333336,333.33333333333337,38C361.11111111111114,36.541666666666664,372.22222222222223,-11.5,400,-14C427.77777777777777,-16.5,438.8888888888889,25.166666666666668,466.6666666666667,26C494.44444444444446,26.833333333333332,505.5555555555556,-11.875,533.3333333333334,-10C561.1111111111111,-8.125,572.2222222222222,35,600,35C627.7777777777778,35,638.8888888888889,-15.416666666666666,666.6666666666667,-10C694.4444444444446,-4.583333333333334,707.6388888888889,56.833333333333336,733.3333333333334,61C759.0277777777778,65.16666666666667,778.1944444444445,20.625,790,10" transform="matrix(1,0,0,1,0,105)"></path><path d="M10,10C21.805555555555557,15.833333333333334,40.97222222222223,43.208333333333336,66.66666666666667,38C92.36111111111111,32.791666666666664,105.55555555555557,-13.958333333333334,133.33333333333334,-15C161.11111111111111,-16.041666666666668,172.22222222222223,31.333333333333332,200,33C227.77777777777777,34.666666666666664,238.8888888888889,-8.041666666666666,266.6666666666667,-7C294.44444444444446,-5.958333333333333,305.5555555555556,39.458333333333336,333.33333333333337,38C361.11111111111114,36.541666666666664,372.22222222222223,-11.5,400,-14C427.77777777777777,-16.5,438.8888888888889,25.166666666666668,466.6666666666667,26C494.44444444444446,26.833333333333332,505.5555555555556,-11.875,533.3333333333334,-10C561.1111111111111,-8.125,572.2222222222222,35,600,35C627.7777777777778,35,638.8888888888889,-15.416666666666666,666.6666666666667,-10C694.4444444444446,-4.583333333333334,707.6388888888889,56.833333333333336,733.3333333333334,61C759.0277777777778,65.16666666666667,778.1944444444445,20.625,790,10" transform="matrix(1,0,0,1,0,70)"></path><path d="M10,10C21.805555555555557,15.833333333333334,40.97222222222223,43.208333333333336,66.66666666666667,38C92.36111111111111,32.791666666666664,105.55555555555557,-13.958333333333334,133.33333333333334,-15C161.11111111111111,-16.041666666666668,172.22222222222223,31.333333333333332,200,33C227.77777777777777,34.666666666666664,238.8888888888889,-8.041666666666666,266.6666666666667,-7C294.44444444444446,-5.958333333333333,305.5555555555556,39.458333333333336,333.33333333333337,38C361.11111111111114,36.541666666666664,372.22222222222223,-11.5,400,-14C427.77777777777777,-16.5,438.8888888888889,25.166666666666668,466.6666666666667,26C494.44444444444446,26.833333333333332,505.5555555555556,-11.875,533.3333333333334,-10C561.1111111111111,-8.125,572.2222222222222,35,600,35C627.7777777777778,35,638.8888888888889,-15.416666666666666,666.6666666666667,-10C694.4444444444446,-4.583333333333334,707.6388888888889,56.833333333333336,733.3333333333334,61C759.0277777777778,65.16666666666667,778.1944444444445,20.625,790,10" transform="matrix(1,0,0,1,0,35)"></path></g></svg>